<?xml version="1.0" encoding="UTF-8"?>
<!DOCTYPE svg PUBLIC "-//W3C//DTD SVG 1.1//EN" "http://www.w3.org/Graphics/SVG/1.1/DTD/svg11.dtd">
<!-- Creator: CorelDRAW -->
<svg xmlns="http://www.w3.org/2000/svg" xml:space="preserve" width="6.82666in" height="6.82666in" style="shape-rendering:geometricPrecision; text-rendering:geometricPrecision; image-rendering:optimizeQuality; fill-rule:evenodd; clip-rule:evenodd"
viewBox="0 0 6.82666 6.82666"
 xmlns:xlink="http://www.w3.org/1999/xlink">
 <defs>
  <style type="text/css">
   <![CDATA[
    .fil2 {fill:none}
    .fil1 {fill:#4094DE}
    .fil0 {fill:#54A3E9}
    .fil5 {fill:#D58105}
    .fil3 {fill:#D59006}
    .fil9 {fill:#D84315}
    .fil7 {fill:#F4511E}
    .fil8 {fill:#FF7043}
    .fil4 {fill:#FFB300}
    .fil6 {fill:#424242;fill-rule:nonzero}
   ]]>
  </style>
   <clipPath id="id0">
    <path d="M3.41333 -3.93701e-006c1.88513,0 3.41333,1.5282 3.41333,3.41333 0,1.88513 -1.5282,3.41333 -3.41333,3.41333 -1.88513,0 -3.41333,-1.5282 -3.41333,-3.41333 0,-1.88513 1.5282,-3.41333 3.41333,-3.41333z"/>
   </clipPath>
 </defs>
 <g id="Layer_x0020_1">
  <metadata id="CorelCorpID_0Corel-Layer"/>
  <path class="fil0" d="M3.41333 -3.93701e-006c1.88513,0 3.41333,1.5282 3.41333,3.41333 0,1.88513 -1.5282,3.41333 -3.41333,3.41333 -1.88513,0 -3.41333,-1.5282 -3.41333,-3.41333 0,-1.88513 1.5282,-3.41333 3.41333,-3.41333z"/>
  <g style="clip-path:url(#id0)">
   <g id="_453118736">
    <g>
     <polygon id="_4719178641" class="fil1" points="3.46815,1.7688 7.25442,5.55507 7.26351,5.56534 7.27249,5.57587 7.28137,5.58664 7.29015,5.59767 7.29882,5.60894 7.30738,5.62046 7.31583,5.63223 7.32416,5.64425 7.33237,5.65652 7.34047,5.66904 7.34844,5.68181 7.3563,5.69483 7.36402,5.70809 7.37161,5.72161 7.37907,5.73537 7.3864,5.74938 7.39359,5.76365 7.40065,5.77815 7.40756,5.79291 3.62129,2.00664 3.61438,1.99188 3.60733,1.97737 3.60013,1.96311 3.59281,1.9491 3.58534,1.93533 3.57775,1.92182 3.57003,1.90856 3.56218,1.89554 3.5542,1.88277 3.54611,1.87025 3.53789,1.85798 3.52956,1.84596 3.52111,1.83419 3.51255,1.82267 3.50388,1.81139 3.49511,1.80037 3.48622,1.78959 3.47724,1.77907 "/>
     <polygon id="_471917936" class="fil1" points="4.21539,2.00664 8.00166,5.79291 7.898,5.92793 4.11173,2.14166 "/>
     <polygon id="_471918056" class="fil1" points="4.26747,2.23456 8.05374,6.02083 8.11801,6.72616 4.33174,2.93989 "/>
     <polygon id="_471918392" class="fil1" points="4.57968,3.06808 8.36594,6.85435 8.37194,6.86091 8.37788,6.86762 8.38375,6.8745 8.38956,6.88154 8.39529,6.88875 8.40096,6.89612 8.40656,6.90365 8.41207,6.91134 8.41752,6.9192 8.42289,6.92722 8.42818,6.9354 8.43339,6.94374 8.43852,6.95225 8.44357,6.96092 8.44853,6.96975 8.45341,6.97875 8.4582,6.98791 8.4629,6.99723 8.46751,7.00671 8.47202,7.01636 4.68576,3.23009 4.68124,3.22044 4.67663,3.21096 4.67193,3.20163 4.66714,3.19248 4.66226,3.18348 4.6573,3.17465 4.65226,3.16598 4.64713,3.15747 4.64191,3.14913 4.63662,3.14094 4.63125,3.13293 4.62581,3.12507 4.62029,3.11737 4.61469,3.10985 4.60902,3.10248 4.60329,3.09527 4.59748,3.08823 4.59161,3.08135 4.58568,3.07464 "/>
     <polygon id="_471917792" class="fil1" points="5.07404,3.23009 8.86031,7.01636 8.79256,7.10459 5.00629,3.31832 "/>
     <polygon id="_471918128" class="fil1" points="5.10808,3.37904 8.89435,7.16531 9.06627,9.052 5.28,5.26572 "/>
     <polygon id="_471918152" class="fil1" points="3.34302,5.12134 7.12929,8.90761 5.33293,8.90761 1.54666,5.12134 "/>
     <polygon id="_471918368" class="fil1" points="5.28,5.26572 9.06627,9.052 7.11613,9.052 3.32986,5.26572 "/>
    </g>
    <path id="_453118784" class="fil1" d="M3.03859 1.56094c0.104079,0 0.207996,0.0323346 0.303472,0.0969882 0.108756,0.0736496 0.206272,0.189957 0.27922,0.348713l0.024311 0 0.0562717 0 0.513524 0 -0.103665 0.135016 0.155744 0.0928976 0.0642717 0.705331c0.0589724,0.00482677 0.117331,0.0255945 0.171528,0.0622913 0.0710787,0.0481339 0.134807,0.12415 0.182484,0.227909l0.0158937 0 0.0367717 0 0.335622 0 -0.067752 0.0882362 0.101787 0.0607165 0.171921 1.88669 -1.95014 0 0.0131575 -0.144386 -1.79636 0 0.263055 -2.88678 0.156217 -0.0952087 -0.104142 -0.132709 0.51352 0 0.0562756 0 0.024315 0c0.0729488,-0.158756 0.170465,-0.275067 0.27922,-0.348717 0.0954764,-0.0646535 0.199398,-0.0969843 0.303472,-0.0969843z"/>
   </g>
  </g>
  <path class="fil2" d="M3.41333 -3.93701e-006c1.88513,0 3.41333,1.5282 3.41333,3.41333 0,1.88513 -1.5282,3.41333 -3.41333,3.41333 -1.88513,0 -3.41333,-1.5282 -3.41333,-3.41333 0,-1.88513 1.5282,-3.41333 3.41333,-3.41333z"/>
  <path class="fil3" d="M1.80972 2.31169c0.0241181,-0.0208543 0.0204606,-0.053685 0,-0.0771339l0.15622 -0.0952087 -0.10415 -0.132709 0.513528 0 0.0562717 0 1.21401 0 0.0562717 0 0.513524 0 -0.103665 0.135012 0.155744 0.0929055c-0.00987795,0.0325433 -0.0237402,0.0569331 0.00096063,0.0779921 -0.0914331,0.00458661 -2.45191,-0.000200787 -2.45872,-0.000858268z"/>
  <path class="fil4" d="M1.80972 2.23456c0.734303,0 1.72346,0 2.45776,0l0.263055 2.88678 -2.98387 0 0.263055 -2.88678z"/>
  <circle class="fil5" cx="2.38369" cy="2.60473" r="0.0942895"/>
  <circle class="fil5" cx="3.69627" cy="2.60473" r="0.0942895"/>
  <path class="fil6" d="M3.63485 2.56774c0.002,0.0319173 0.0295,0.0561693 0.0614173,0.0541654 0.0319134,-0.002 0.0561654,-0.0295 0.0541654,-0.0614173 -0.0302244,-0.458961 -0.198323,-0.760327 -0.40837,-0.902563 -0.0954764,-0.0646535 -0.199394,-0.0969882 -0.303472,-0.0969882 -0.104075,0 -0.207992,0.0323307 -0.303472,0.0969843 -0.210047,0.14224 -0.37815,0.443606 -0.40837,0.902567 -0.002,0.0319173 0.022252,0.0594173 0.0541654,0.0614173 0.0319173,0.00200394 0.0594173,-0.022248 0.0614173,-0.0541654 0.0276142,-0.419366 0.174614,-0.690264 0.357606,-0.814181 0.0753976,-0.0510591 0.157114,-0.0765906 0.238654,-0.0765906 0.0815433,0 0.163256,0.0255354 0.238657,0.0765945 0.182988,0.123913 0.329988,0.394811 0.357602,0.814177z"/>
  <path class="fil7" d="M3.50179 3.42945c0.0157638,-0.0136299 0.013374,-0.0350866 0,-0.0504134l0.102098 -0.0622205 -0.0680669 -0.0867323 0.335622 0 0.0367756 0 0.793429 0 0.0367756 0 0.335622 0 -0.067752 0.0882362 0.101787 0.0607165c-0.00645669,0.0212717 -0.0155157,0.0372087 0.000625984,0.0509764 -0.0597559,0.00299606 -1.60247,-0.000133858 -1.60692,-0.000562992z"/>
  <path class="fil8" d="M3.50179 3.37904c0.479909,0 1.12638,0 1.60629,0l0.171921 1.88668 -1.95013 0 0.171921 -1.88668z"/>
  <circle class="fil9" cx="3.87691" cy="3.62097" r="0.0616238"/>
  <circle class="fil9" cx="4.73476" cy="3.62097" r="0.0616238"/>
  <path class="fil6" d="M4.69462 3.5968c0.00131102,0.0208583 0.0192835,0.0367087 0.0401417,0.0353976 0.0208583,-0.00130709 0.0367087,-0.0192795 0.0353976,-0.0401378 -0.019748,-0.299957 -0.129614,-0.496917 -0.26689,-0.589878 -0.0624016,-0.0422559 -0.130319,-0.0633898 -0.198339,-0.0633898 -0.0680197,0 -0.135937,0.0211299 -0.198339,0.0633858 -0.137276,0.0929646 -0.247142,0.289925 -0.266894,0.589882 -0.00130709,0.0208583 0.0145433,0.0388307 0.0354016,0.0401378 0.0208583,0.00131102 0.0388307,-0.0145394 0.0401378,-0.0353976 0.0180472,-0.274083 0.114122,-0.45113 0.233717,-0.532118 0.0492795,-0.0333701 0.102685,-0.0500551 0.155976,-0.0500551 0.0532913,0 0.106697,0.016689 0.155976,0.0500591 0.119594,0.0809843 0.215665,0.258031 0.233713,0.532114z"/>
 </g>
</svg>
