<?xml version="1.0" encoding="UTF-8"?>
<!DOCTYPE svg PUBLIC "-//W3C//DTD SVG 1.1//EN" "http://www.w3.org/Graphics/SVG/1.1/DTD/svg11.dtd">
<!-- Creator: CorelDRAW -->
<svg xmlns="http://www.w3.org/2000/svg" xml:space="preserve" width="6.82666in" height="6.82666in" style="shape-rendering:geometricPrecision; text-rendering:geometricPrecision; image-rendering:optimizeQuality; fill-rule:evenodd; clip-rule:evenodd"
viewBox="0 0 6.82666 6.82666"
 xmlns:xlink="http://www.w3.org/1999/xlink">
 <defs>
  <style type="text/css">
   <![CDATA[
    .fil2 {fill:none}
    .fil10 {fill:#007D87}
    .fil8 {fill:#00838F}
    .fil9 {fill:#0097A7}
    .fil3 {fill:#212121}
    .fil4 {fill:#555555}
    .fil1 {fill:#6DB9F7}
    .fil0 {fill:#90CAF9}
    .fil5 {fill:#E0F7FA}
    .fil6 {fill:#FF5722}
    .fil7 {fill:#FFFFFE}
    .fil11 {fill:#424242;fill-rule:nonzero}
   ]]>
  </style>
   <clipPath id="id0">
    <path d="M3.41333 -3.93701e-006c1.88513,0 3.41333,1.5282 3.41333,3.41333 0,1.88513 -1.5282,3.41333 -3.41333,3.41333 -1.88513,0 -3.41333,-1.5282 -3.41333,-3.41333 0,-1.88513 1.5282,-3.41333 3.41333,-3.41333z"/>
   </clipPath>
 </defs>
 <g id="Layer_x0020_1">
  <metadata id="CorelCorpID_0Corel-Layer"/>
  <path class="fil0" d="M3.41333 -3.93701e-006c1.88513,0 3.41333,1.5282 3.41333,3.41333 0,1.88513 -1.5282,3.41333 -3.41333,3.41333 -1.88513,0 -3.41333,-1.5282 -3.41333,-3.41333 0,-1.88513 1.5282,-3.41333 3.41333,-3.41333z"/>
  <g style="clip-path:url(#id0)">
   <g id="_453122360">
    <g>
     <polygon id="_4659013441" class="fil1" points="4.47113,1.61942 8.2574,5.40569 8.26066,5.40954 8.26383,5.41348 8.26691,5.41749 8.26989,5.42157 8.27278,5.42573 8.27557,5.42996 8.27826,5.43426 8.28084,5.43863 8.28333,5.44307 8.2857,5.44757 8.28798,5.45213 8.29014,5.45676 8.2922,5.46144 8.29414,5.46618 8.29597,5.47098 8.29769,5.47583 8.29929,5.48074 8.30077,5.4857 8.30213,5.49071 8.30337,5.49577 8.30448,5.50087 8.30547,5.50602 8.30633,5.51121 8.30707,5.51644 8.30768,5.52171 8.30815,5.52702 8.30849,5.53237 8.3087,5.53775 8.30877,5.54316 4.5225,1.75689 4.52243,1.75148 4.52222,1.74609 4.52189,1.74075 4.52141,1.73544 4.5208,1.73017 4.52007,1.72494 4.5192,1.71974 4.51821,1.7146 4.5171,1.7095 4.51586,1.70444 4.5145,1.69943 4.51302,1.69447 4.51142,1.68956 4.5097,1.68471 4.50787,1.67991 4.50593,1.67517 4.50387,1.67048 4.50171,1.66586 4.49944,1.6613 4.49706,1.6568 4.49457,1.65236 4.49199,1.64799 4.4893,1.64369 4.48651,1.63946 4.48363,1.6353 4.48064,1.63122 4.47757,1.6272 4.47439,1.62327 "/>
     <polygon id="_465901536" class="fil1" points="4.5225,1.75689 8.30877,5.54316 8.30877,8.85605 4.5225,5.06978 "/>
     <polygon id="_465900888" class="fil1" points="4.5225,5.06978 8.30877,8.85605 8.3087,8.86146 8.30849,8.86684 8.30815,8.87219 8.30768,8.8775 8.30707,8.88277 8.30633,8.888 8.30547,8.89319 8.30448,8.89834 8.30337,8.90344 8.30213,8.9085 8.30077,8.91351 8.29929,8.91847 8.29769,8.92337 8.29597,8.92823 8.29414,8.93303 8.2922,8.93777 8.29014,8.94246 8.28798,8.94708 8.2857,8.95164 8.28333,8.95614 8.28084,8.96058 8.27826,8.96494 8.27557,8.96925 8.27278,8.97348 8.26989,8.97763 8.26691,8.98172 8.26383,8.98573 8.26066,8.98966 8.2574,8.99352 8.25405,8.99729 8.25061,9.00098 8.24709,9.00459 4.46082,5.21832 4.46434,5.21471 4.46778,5.21102 4.47113,5.20725 4.47439,5.20339 4.47757,5.19946 4.48064,5.19545 4.48363,5.19136 4.48651,5.1872 4.4893,5.18298 4.49199,5.17867 4.49457,5.17431 4.49706,5.16987 4.49944,5.16537 4.50171,5.16081 4.50387,5.15619 4.50593,5.1515 4.50787,5.14676 4.5097,5.14196 4.51142,5.1371 4.51302,5.1322 4.5145,5.12724 4.51586,5.12223 4.5171,5.11717 4.51821,5.11207 4.5192,5.10692 4.52007,5.10173 4.5208,5.0965 4.52141,5.09122 4.52189,5.08592 4.52222,5.08057 4.52243,5.07519 "/>
     <polygon id="_465900984" class="fil1" points="4.46082,5.21832 8.24709,9.00459 8.24348,9.00812 8.23978,9.01156 8.23601,9.01491 8.23215,9.01817 8.22822,9.02134 8.22421,9.02442 8.22012,9.0274 8.21596,9.03029 8.21174,9.03307 8.20743,9.03576 8.20307,9.03835 8.19863,9.04083 8.19413,9.04321 8.18957,9.04548 8.18494,9.04765 8.18026,9.0497 8.17552,9.05165 8.17072,9.05348 8.16586,9.05519 8.16096,9.05679 8.156,9.05827 8.15099,9.05963 8.14593,9.06087 8.14083,9.06198 8.13568,9.06298 8.13049,9.06384 8.12526,9.06457 8.11999,9.06518 8.11468,9.06566 8.10933,9.066 8.10395,9.0662 8.09854,9.06627 4.31227,5.28 4.31769,5.27993 4.32307,5.27972 4.32841,5.27939 4.33372,5.27891 4.33899,5.2783 4.34422,5.27757 4.34941,5.2767 4.35456,5.27571 4.35967,5.2746 4.36472,5.27336 4.36973,5.272 4.37469,5.27052 4.37959,5.26892 4.38445,5.2672 4.38925,5.26537 4.39399,5.26343 4.39868,5.26138 4.4033,5.25921 4.40786,5.25694 4.41236,5.25456 4.4168,5.25208 4.42117,5.24949 4.42547,5.2468 4.4297,5.24402 4.43385,5.24113 4.43794,5.23815 4.44195,5.23507 4.44589,5.2319 4.44974,5.22864 4.45352,5.22529 4.45721,5.22185 "/>
     <polygon id="_465902208" class="fil1" points="4.31227,5.28 8.09854,9.06627 6.30066,9.06627 2.51439,5.28 "/>
     <polygon id="_465902136" class="fil1" points="2.51439,5.28 6.30066,9.06627 6.29524,9.0662 6.28986,9.066 6.28452,9.06566 6.27921,9.06518 6.27394,9.06457 6.2687,9.06384 6.26352,9.06298 6.25837,9.06198 6.25326,9.06087 6.24821,9.05963 6.2432,9.05827 6.23824,9.05679 6.23333,9.05519 6.22848,9.05348 6.22368,9.05165 6.21894,9.0497 6.21425,9.04765 6.20963,9.04548 6.20507,9.04321 6.20057,9.04083 6.19613,9.03835 6.19176,9.03576 6.18746,9.03307 6.18323,9.03029 6.17907,9.0274 6.17499,9.02442 6.17098,9.02134 6.16704,9.01817 6.16319,9.01491 2.37692,5.22864 2.38078,5.2319 2.38471,5.23507 2.38872,5.23815 2.39281,5.24113 2.39696,5.24402 2.40119,5.2468 2.4055,5.24949 2.40986,5.25208 2.4143,5.25456 2.4188,5.25694 2.42336,5.25921 2.42798,5.26138 2.43267,5.26343 2.43741,5.26537 2.44221,5.2672 2.44707,5.26892 2.45197,5.27052 2.45693,5.272 2.46194,5.27336 2.467,5.2746 2.4721,5.27571 2.47725,5.2767 2.48244,5.27757 2.48767,5.2783 2.49294,5.27891 2.49825,5.27939 2.50359,5.27972 2.50898,5.27993 "/>
    </g>
    <path id="_453122024" class="fil1" d="M4.31227 1.54667c0.0579094,0 0.110492,0.023622 0.148547,0.0616732 0.0380551,0.0380551 0.0616811,0.0906378 0.0616811,0.148551l0 3.31289c0,0.0579134 -0.023626,0.1105 -0.0616811,0.148547 -0.0380551,0.0380551 -0.0906378,0.0616772 -0.148547,0.0616772l-1.79788 0c-0.0579094,0 -0.110492,-0.023622 -0.148547,-0.0616772 -0.0380551,-0.0380472 -0.0616811,-0.0906339 -0.0616811,-0.148547l0 -3.31289c0,-0.0579134 0.023626,-0.110496 0.0616811,-0.148551 0.0380551,-0.0380512 0.0906378,-0.0616732 0.148547,-0.0616732l1.79788 0z"/>
   </g>
  </g>
  <path class="fil2" d="M3.41333 -3.93701e-006c1.88513,0 3.41333,1.5282 3.41333,3.41333 0,1.88513 -1.5282,3.41333 -3.41333,3.41333 -1.88513,0 -3.41333,-1.5282 -3.41333,-3.41333 0,-1.88513 1.5282,-3.41333 3.41333,-3.41333z"/>
  <path class="fil3" d="M4.31227 1.54667l-1.79788 0c-0.0579134,0 -0.110496,0.023622 -0.148547,0.0616772 -0.0380551,0.0380551 -0.0616811,0.0906339 -0.0616811,0.148547l0 3.31289c0,0.0579134 0.023626,0.1105 0.0616811,0.148547 0.0380512,0.0380551 0.0906339,0.0616772 0.148547,0.0616772l1.79788 0c0.0579134,0 0.110496,-0.023622 0.148547,-0.0616772 0.0380551,-0.0380472 0.0616811,-0.0906339 0.0616811,-0.148547l0 -3.31289c0,-0.0579134 -0.023626,-0.110492 -0.0616811,-0.148547 -0.0380512,-0.0380551 -0.0906339,-0.0616772 -0.148547,-0.0616772z"/>
  <path class="fil4" d="M3.66594 1.76113c0.0161181,0 0.029185,0.0130709 0.029185,0.029189 0,0.016122 -0.0130669,0.029189 -0.029185,0.029189 -0.016122,0 -0.029189,-0.0130669 -0.029189,-0.029189 0,-0.0161181 0.0130669,-0.029189 0.029189,-0.029189z"/>
  <path class="fil5" d="M4.03602 1.84087l0 -0.0996181 0.276248 0c0.00419685,0 0.00808661,0.00179134 0.0109646,0.00466929 0.00287795,0.00287795 0.00466929,0.00676772 0.00466929,0.0109646l0 3.31289c0,0.00419685 -0.00179134,0.00809055 -0.00466929,0.0109646 -0.00287795,0.00287795 -0.00676772,0.00466929 -0.0109646,0.00466929l-1.79788 0c-0.00419685,0 -0.00808661,-0.00179134 -0.0109646,-0.00466929 -0.00287795,-0.00287402 -0.00466929,-0.00676772 -0.00466929,-0.0109646l0 -3.31289c0,-0.00419685 0.00179134,-0.00808661 0.00466929,-0.0109646 0.00287795,-0.00287795 0.00676772,-0.00466929 0.0109646,-0.00466929l0.276248 0 0 0.0996181c0,0.0427638 0.0349843,0.0777441 0.0777441,0.0777441l1.0899 0c0.0427598,0 0.0777441,-0.0349803 0.0777441,-0.0777441z"/>
  <path class="fil4" d="M3.56906 1.80978c0.010748,0 0.0194606,-0.0087126 0.0194606,-0.0194606 0,-0.010748 -0.0087126,-0.0194606 -0.0194606,-0.0194606l-0.428201 0c-0.010748,0 -0.0194606,0.0087126 -0.0194606,0.0194606 0,0.010748 0.0087126,0.0194606 0.0194606,0.0194606l0.428201 0z"/>
  <circle class="fil3" cx="3.41333" cy="4.90866" r="0.116754"/>
  <path class="fil6" d="M2.97057 3.87872l0.88552 0c0.029748,0 0.0540906,0.0243425 0.0540906,0.0540906l0 0.220378c0,0.029748 -0.0243465,0.0540906 -0.0540906,0.0540906l-0.88552 0c-0.0297441,0 -0.0540906,-0.0243386 -0.0540906,-0.0540906l0 -0.220378c0,-0.029752 0.0243425,-0.0540906 0.0540906,-0.0540906z"/>
  <path class="fil7" d="M3.11375 4.04846c-0.00297638,-0.00479134 -0.00707087,-0.00854724 -0.0123031,-0.011315 -0.00523228,-0.00274803 -0.0133071,-0.00541339 -0.0242362,-0.00800394 -0.0109331,-0.00256299 -0.0178228,-0.00505118 -0.0206417,-0.00743307 -0.00223228,-0.00186614 -0.00334252,-0.00411811 -0.00334252,-0.00675984 0,-0.00287795 0.00118898,-0.0051811 0.0035748,-0.00688976 0.00367717,-0.00269291 0.00880315,-0.00401575 0.0153307,-0.00401575 0.0063189,0 0.0110591,0.00124409 0.0142205,0.00375591 0.00315748,0.00248425 0.00522835,0.0066063 0.00618504,0.0123268l0.0224567 -0.000980315c-0.000362205,-0.0102323 -0.00406693,-0.0183898 -0.0111102,-0.0245276 -0.00707087,-0.00611417 -0.0175591,-0.00916929 -0.0315433,-0.00916929 -0.00854724,0 -0.0158228,0.00129528 -0.0218858,0.00385827 -0.00603543,0.00259055 -0.0106693,0.00634646 -0.0138819,0.0112677 -0.0032126,0.00494882 -0.00481496,0.0102283 -0.00481496,0.0159016 0,0.00880709 0.00341732,0.0162638 0.010252,0.022378 0.00484646,0.00434646 0.0132874,0.00802756 0.0253307,0.0110039 0.00935039,0.00233071 0.0153583,0.00393701 0.0179724,0.00487008 0.00385827,0.00134646 0.00655512,0.00295276 0.00808268,0.0048189 0.00155512,0.00183858 0.00233071,0.00406299 0.00233071,0.00670472 0,0.00409449 -0.00183858,0.00766929 -0.00551575,0.0107244 -0.00365354,0.00307874 -0.00911811,0.0046063 -0.0163425,0.0046063 -0.00683858,0 -0.012248,-0.00173228 -0.0162677,-0.00515354 -0.00403937,-0.00344488 -0.00670472,-0.00883071 -0.008,-0.016185l-0.0218583 0.00214961c0.00144882,0.0124291 0.00595669,0.0219094 0.0134921,0.0284134 0.00753543,0.00649606 0.0183346,0.00973622 0.0324016,0.00973622 0.00965748,0 0.0177402,-0.00134646 0.0242126,-0.00406693 0.00647638,-0.00269291 0.0114724,-0.00683465 0.0150236,-0.0124055 0.00354724,-0.00553937 0.00530709,-0.0115236 0.00530709,-0.0178976 0,-0.00701575 -0.00147638,-0.0129213 -0.00442913,-0.0177126z"/>
  <polygon class="fil7" points="3.12322,3.98734 3.12322,4.09857 3.14569,4.09857 3.14569,4.04994 3.1897,4.04994 3.1897,4.09857 3.21215,4.09857 3.21215,3.98734 3.1897,3.98734 3.1897,4.03111 3.14569,4.03111 3.14569,3.98734 "/>
  <path class="fil7" d="M3.2169 4.04365c0,0.017689 0.00487008,0.0315945 0.0146299,0.0416929 0.00976772,0.0100748 0.0229213,0.015126 0.0394724,0.015126 0.016315,0 0.0293701,-0.0050748 0.0391299,-0.0152047 0.00976772,-0.0101496 0.0146614,-0.024185 0.0146614,-0.0421614 0,-0.0181024 -0.00492126,-0.0322402 -0.0147638,-0.0423937 -0.00983858,-0.0101811 -0.0229449,-0.0152559 -0.0393386,-0.0152559 -0.00906693,0 -0.0170433,0.00145276 -0.0239843,0.00440551 -0.00520472,0.00217323 -0.00999606,0.00551575 -0.0143701,0.00999213 -0.00437795,0.00450787 -0.00782283,0.00961024 -0.0103622,0.0152559 -0.0033937,0.00769291 -0.0050748,0.0171969 -0.0050748,0.0285433zm0.0318543 0.0278937c-0.00579921,-0.00650394 -0.00872835,-0.0160591 -0.00872835,-0.0286457 0,-0.0128189 0.00285039,-0.022378 0.00849606,-0.0287205 0.00566929,-0.00634646 0.0131299,-0.0095315 0.0224016,-0.0095315 0.00924409,0 0.0166772,0.00313386 0.0222756,0.00940157 0.00556693,0.00629134 0.0083622,0.0157992 0.0083622,0.0285394 0,0.0128976 -0.00287402,0.0225591 -0.00859843,0.0290079 -0.00574803,0.00647244 -0.0131024,0.00968504 -0.0220394,0.00968504 -0.00896063,0 -0.0163425,-0.00324016 -0.0221693,-0.00973622z"/>
  <path class="fil7" d="M3.3284 3.98734l0 0.111236 0.0224528 0 0 -0.0419567 0.0146339 0c0.0101811,0 0.0179488,-0.000543307 0.023311,-0.0016063 0.00393307,-0.000850394 0.00782283,-0.00261417 0.011626,-0.00525591 0.00383465,-0.00266535 0.0069685,-0.0063189 0.00945276,-0.0109803 0.00248819,-0.0046378 0.00372835,-0.0103858 0.00372835,-0.0172244 0,-0.00883071 -0.00214961,-0.0160551 -0.00644488,-0.0216496 -0.00430315,-0.00559449 -0.00966142,-0.00922047 -0.0160354,-0.010878 -0.00414173,-0.00111417 -0.0130512,-0.00168504 -0.0267008,-0.00168504l-0.0360236 0zm0.0224528 0.050374l0 -0.0315433 0.0108543 0c0.00807874,0 0.0134646,0.000232283 0.0161614,0.000751969 0.00362598,0.000645669 0.00665354,0.00230315 0.00901181,0.00491732 0.00238189,0.00264567 0.0035748,0.00598425 0.0035748,0.0100236 0,0.00329134 -0.000854331,0.00616535 -0.00253937,0.00864961 -0.00170866,0.00248819 -0.00403937,0.00429921 -0.00701575,0.00546457 -0.00298031,0.00116929 -0.00891339,0.00173622 -0.0177717,0.00173622l-0.0122756 0z"/>
  <polygon class="fil7" points="3.47957,4.02603 3.52441,4.09857 3.54696,4.09857 3.54696,3.98734 3.52609,3.98734 3.52609,4.06162 3.48056,3.98734 3.4587,3.98734 3.4587,4.09857 3.47957,4.09857 "/>
  <path class="fil7" d="M3.55223 4.04365c0,0.017689 0.00487008,0.0315945 0.0146339,0.0416929 0.00976378,0.0100748 0.0229173,0.015126 0.0394685,0.015126 0.016315,0 0.0293701,-0.0050748 0.0391339,-0.0152047 0.00976378,-0.0101496 0.0146575,-0.024185 0.0146575,-0.0421614 0,-0.0181024 -0.00492126,-0.0322402 -0.0147638,-0.0423937 -0.00983858,-0.0101811 -0.0229449,-0.0152559 -0.0393386,-0.0152559 -0.00906693,0 -0.0170394,0.00145276 -0.0239803,0.00440551 -0.00520866,0.00217323 -0.01,0.00551575 -0.014374,0.00999213 -0.00437795,0.00450787 -0.00782283,0.00961024 -0.0103583,0.0152559 -0.0033937,0.00769291 -0.00507874,0.0171969 -0.00507874,0.0285433zm0.0318543 0.0278937c-0.00579921,-0.00650394 -0.00872835,-0.0160591 -0.00872835,-0.0286457 0,-0.0128189 0.00285039,-0.022378 0.00849606,-0.0287205 0.00567323,-0.00634646 0.0131339,-0.0095315 0.0224016,-0.0095315 0.00924803,0 0.0166772,0.00313386 0.0222756,0.00940157 0.00556693,0.00629134 0.0083622,0.0157992 0.0083622,0.0285394 0,0.0128976 -0.00287402,0.0225591 -0.00859843,0.0290079 -0.00574803,0.00647244 -0.0131024,0.00968504 -0.0220394,0.00968504 -0.00896063,0 -0.0163425,-0.00324016 -0.0221693,-0.00973622z"/>
  <polygon class="fil7" points="3.65296,3.98734 3.6795,4.09857 3.70385,4.09857 3.72594,4.01541 3.74808,4.09857 3.77191,4.09857 3.79892,3.98734 3.77631,3.98734 3.75924,4.06504 3.73974,3.98734 3.71304,3.98734 3.69271,4.06374 3.67593,3.98734 "/>
  <path class="fil8" d="M3.02044 2.91042c0.0077126,-0.00666535 0.00654331,-0.0171614 3.93701e-006,-0.0246575l0.0499409 -0.0304409 -0.0332953 -0.0424291 0.164181 0 0.0179882 0 0.388134 0 0.0179882 0 0.164177 0 -0.0331417 0.0431654 0.0497913 0.0297047c-0.00315748,0.0104016 -0.00758661,0.0182008 0.000307087,0.0249331 -0.0292283,0.0014685 -0.783898,-6.29921e-005 -0.786075,-0.000275591z"/>
  <path class="fil9" d="M3.02045 2.88576c0.23476,0 0.551004,0 0.785764,0l0.0841024 0.922933 -0.953969 0 0.0841024 -0.922933z"/>
  <circle class="fil10" cx="3.20395" cy="3.00411" r="0.0301452"/>
  <circle class="fil10" cx="3.6236" cy="3.00411" r="0.0301452"/>
  <path class="fil11" d="M3.60396 2.99228c0.000637795,0.0102047 0.00943307,0.0179567 0.0196339,0.0173189 0.0102047,-0.000641732 0.0179567,-0.00943307 0.0173189,-0.0196378 -0.00966142,-0.146732 -0.0634055,-0.243083 -0.130559,-0.288555 -0.0305276,-0.0206732 -0.063748,-0.0310079 -0.0970236,-0.0310079 -0.0332756,0 -0.0664961,0.0103346 -0.0970236,0.0310039 -0.0671535,0.0454764 -0.120898,0.141827 -0.130559,0.288559 -0.000637795,0.0102047 0.00711417,0.0189961 0.0173189,0.0196378 0.0102008,0.000637795 0.0189961,-0.00711417 0.0196339,-0.0173189 0.00882677,-0.134075 0.0558268,-0.220681 0.114331,-0.260299 0.0241063,-0.0163268 0.0502283,-0.0244882 0.0762992,-0.0244882 0.0260709,0 0.0521929,0.00816535 0.0762992,0.0244882 0.0585039,0.0396181 0.1055,0.126224 0.114331,0.260299z"/>
 </g>
</svg>
