<?xml version="1.0" encoding="UTF-8"?>
<!DOCTYPE svg PUBLIC "-//W3C//DTD SVG 1.1//EN" "http://www.w3.org/Graphics/SVG/1.1/DTD/svg11.dtd">
<!-- Creator: CorelDRAW -->
<svg xmlns="http://www.w3.org/2000/svg" xml:space="preserve" width="6.82666in" height="6.82666in" style="shape-rendering:geometricPrecision; text-rendering:geometricPrecision; image-rendering:optimizeQuality; fill-rule:evenodd; clip-rule:evenodd"
viewBox="0 0 6.82666 6.82666"
 xmlns:xlink="http://www.w3.org/1999/xlink">
 <defs>
  <style type="text/css">
   <![CDATA[
    .fil2 {fill:none}
    .fil6 {fill:#00838F}
    .fil3 {fill:#26C6DA}
    .fil1 {fill:#939393}
    .fil0 {fill:#A6A6A6}
    .fil7 {fill:#FFB300}
    .fil4 {fill:#FFCA28}
    .fil8 {fill:#FFFFFE}
    .fil5 {fill:#FFB300;fill-rule:nonzero}
   ]]>
  </style>
   <clipPath id="id0">
    <path d="M3.41333 -3.93701e-006c1.88513,0 3.41333,1.5282 3.41333,3.41333 0,1.88513 -1.5282,3.41333 -3.41333,3.41333 -1.88513,0 -3.41333,-1.5282 -3.41333,-3.41333 0,-1.88513 1.5282,-3.41333 3.41333,-3.41333z"/>
   </clipPath>
 </defs>
 <g id="Layer_x0020_1">
  <metadata id="CorelCorpID_0Corel-Layer"/>
  <path class="fil0" d="M3.41333 -3.93701e-006c1.88513,0 3.41333,1.5282 3.41333,3.41333 0,1.88513 -1.5282,3.41333 -3.41333,3.41333 -1.88513,0 -3.41333,-1.5282 -3.41333,-3.41333 0,-1.88513 1.5282,-3.41333 3.41333,-3.41333z"/>
  <g style="clip-path:url(#id0)">
   <g id="_453117104">
    <g>
     <polygon id="_4719099441" class="fil1" points="4.42223,2.26004 8.2085,6.04631 8.21261,6.05118 8.21658,6.05616 8.22039,6.06125 8.22404,6.06646 8.22754,6.07179 8.23089,6.07722 8.23408,6.08277 8.23712,6.08842 8.24001,6.09418 8.24274,6.10004 8.24533,6.10601 8.24776,6.11208 8.25004,6.11826 8.25216,6.12453 8.25414,6.1309 8.25596,6.13737 8.25763,6.14394 8.25915,6.1506 8.26053,6.15735 8.26175,6.16419 8.26282,6.17113 8.26374,6.17815 8.26451,6.18526 8.26514,6.19246 8.26561,6.19974 8.26594,6.20711 4.47967,2.42083 4.47934,2.41347 4.47887,2.40619 4.47824,2.39899 4.47747,2.39188 4.47655,2.38486 4.47548,2.37792 4.47426,2.37108 4.47289,2.36433 4.47137,2.35767 4.46969,2.3511 4.46787,2.34463 4.46589,2.33826 4.46377,2.33198 4.46149,2.32581 4.45906,2.31974 4.45648,2.31377 4.45374,2.30791 4.45085,2.30215 4.44781,2.2965 4.44462,2.29095 4.44128,2.28552 4.43778,2.28019 4.43412,2.27498 4.43031,2.26989 4.42635,2.26491 "/>
     <polygon id="_471909248" class="fil1" points="4.47967,2.42083 8.26594,6.20711 8.26609,6.21335 8.26614,6.21967 8.26608,6.22604 8.26591,6.23247 8.26564,6.23896 8.26525,6.2455 8.26476,6.25211 8.26416,6.25876 8.26345,6.26548 8.26263,6.27224 8.26171,6.27906 8.26068,6.28592 8.25955,6.29283 8.2583,6.2998 8.25695,6.3068 8.2555,6.31386 8.25394,6.32096 8.25227,6.3281 8.2505,6.33528 8.24862,6.34251 8.24664,6.34977 8.24455,6.35707 8.24236,6.36442 8.24006,6.3718 8.23766,6.37921 8.23515,6.38665 8.23254,6.39413 8.22983,6.40165 8.22701,6.40919 8.22409,6.41676 8.22106,6.42436 8.21794,6.43198 4.43167,2.64571 4.4348,2.63809 4.43782,2.63049 4.44074,2.62291 4.44356,2.61537 4.44628,2.60786 4.44889,2.60038 4.45139,2.59294 4.45379,2.58552 4.45609,2.57815 4.45828,2.5708 4.46037,2.5635 4.46235,2.55624 4.46423,2.54901 4.466,2.54183 4.46767,2.53469 4.46923,2.52759 4.47069,2.52053 4.47204,2.51352 4.47328,2.50656 4.47441,2.49965 4.47544,2.49278 4.47637,2.48597 4.47718,2.4792 4.47789,2.47249 4.47849,2.46583 4.47898,2.45923 4.47937,2.45269 4.47965,2.4462 4.47981,2.43977 4.47987,2.43339 4.47983,2.42708 "/>
     <polygon id="_471909992" class="fil1" points="4.43167,2.64571 8.21794,6.43198 8.21558,6.4376 8.21316,6.44323 8.21069,6.44888 8.20816,6.45454 8.20557,6.46023 8.20293,6.46593 8.20023,6.47165 8.19748,6.47738 8.19467,6.48313 8.1918,6.48889 8.18887,6.49467 8.18589,6.50046 8.18286,6.50626 8.17977,6.51208 8.17662,6.51791 8.17342,6.52375 8.17016,6.5296 8.16685,6.53546 8.16348,6.54134 8.16006,6.54722 8.15658,6.55311 8.15305,6.55902 8.14946,6.56493 8.14581,6.57084 8.14212,6.57677 8.13837,6.5827 8.13456,6.58864 8.1307,6.59458 8.12678,6.60053 8.12281,6.60649 8.11879,6.61244 8.11471,6.61841 4.32844,2.83214 4.33252,2.82617 4.33654,2.82022 4.34051,2.81426 4.34443,2.80831 4.34829,2.80237 4.3521,2.79643 4.35585,2.7905 4.35955,2.78457 4.36319,2.77865 4.36678,2.77274 4.37031,2.76684 4.37379,2.76095 4.37721,2.75507 4.38058,2.74919 4.38389,2.74333 4.38715,2.73748 4.39035,2.73164 4.3935,2.72581 4.39659,2.71999 4.39963,2.71419 4.40261,2.7084 4.40553,2.70262 4.4084,2.69685 4.41121,2.69111 4.41396,2.68537 4.41666,2.67966 4.4193,2.67396 4.42189,2.66827 4.42442,2.66261 4.42689,2.65696 4.42931,2.65133 "/>
     <polygon id="_471909776" class="fil1" points="5.26145,2.86168 9.04772,6.64795 9.05239,6.65419 9.05646,6.66086 9.05988,6.66794 9.06261,6.67537 9.06461,6.68311 9.06585,6.69113 9.06627,6.69937 9.06627,7.10419 9.06585,7.11243 9.06461,7.12045 9.06261,7.12819 9.05988,7.13562 9.05646,7.1427 9.05239,7.14937 9.04772,7.15561 9.04248,7.16137 9.03673,7.1666 9.03049,7.17127 9.02381,7.17534 9.01674,7.17876 9.00931,7.18149 9.00157,7.1835 8.99356,7.18473 8.98531,7.18515 8.96929,7.18515 5.18302,3.39888 5.19904,3.39888 5.20729,3.39846 5.2153,3.39722 5.22305,3.39522 5.23048,3.39249 5.23755,3.38907 5.24422,3.385 5.25046,3.38033 5.25622,3.37509 5.26145,3.36934 5.26613,3.3631 5.27019,3.35643 5.27361,3.34935 5.27634,3.34192 5.27835,3.33418 5.27958,3.32616 5.28,3.31791 5.28,2.9131 5.27958,2.90485 5.27835,2.89684 5.27634,2.88909 5.27361,2.88167 5.27019,2.87459 5.26613,2.86791 "/>
     <polygon id="_471909800" class="fil1" points="3.13059,2.4807 6.91686,6.26697 6.92784,6.27852 6.93872,6.29025 6.9495,6.30214 6.96018,6.3142 6.97075,6.32642 6.9812,6.3388 6.99152,6.35135 7.00172,6.36404 3.21546,2.57777 3.20526,2.56507 3.19493,2.55253 3.18448,2.54015 3.17391,2.52793 3.16324,2.51587 3.15246,2.50398 3.14157,2.49225 "/>
     <polygon id="_471909560" class="fil1" points="3.34323,2.7749 7.1295,6.56117 7.13132,6.56478 7.13311,6.56839 7.13489,6.572 7.13664,6.57559 7.13837,6.57919 7.14008,6.58278 7.14177,6.58637 7.14343,6.58995 7.14508,6.59352 7.1467,6.59709 7.1483,6.60066 7.14988,6.60422 7.15144,6.60778 7.15297,6.61133 7.15448,6.61487 7.15598,6.61841 3.36971,2.83214 3.36822,2.8286 3.3667,2.82506 3.36517,2.8215 3.36361,2.81795 3.36203,2.81439 3.36043,2.81082 3.35881,2.80725 3.35717,2.80368 3.3555,2.80009 3.35381,2.79651 3.3521,2.79292 3.35037,2.78932 3.34862,2.78572 3.34685,2.78212 3.34505,2.77851 "/>
     <polygon id="_471909920" class="fil1" points="3.54637,4.64328 7.33264,8.42955 7.06656,8.42955 3.28029,4.64328 "/>
     <polygon id="_471909848" class="fil1" points="1.64365,3.39888 5.42991,7.18515 5.41389,7.18515 5.40565,7.18473 5.39763,7.1835 5.38989,7.18149 5.38246,7.17876 5.37538,7.17534 5.36871,7.17127 5.36247,7.1666 1.5762,3.38033 1.58244,3.385 1.58911,3.38907 1.59619,3.39249 1.60362,3.39522 1.61136,3.39722 1.61938,3.39846 1.62763,3.39888 "/>
     <polygon id="_471910496" class="fil1" points="3.28029,4.64328 7.06656,8.42955 5.42991,8.42955 1.64365,4.64328 "/>
     <polygon id="_471910688" class="fil1" points="3.21546,2.57777 7.00172,6.36404 7.00662,6.37024 7.01146,6.37645 7.01624,6.38267 7.02096,6.38888 7.02563,6.39509 7.03024,6.40131 7.03479,6.40752 7.03928,6.41373 7.04372,6.41994 7.04809,6.42615 7.05241,6.43236 7.05667,6.43857 7.06088,6.44477 7.06502,6.45097 7.06911,6.45716 7.07313,6.46335 7.0771,6.46953 7.08101,6.4757 7.08486,6.48187 7.08865,6.48804 7.09238,6.49419 7.09606,6.50033 7.09967,6.50646 7.10322,6.51259 7.10672,6.5187 7.11015,6.52481 7.11353,6.5309 7.11684,6.53698 7.1201,6.54305 7.12329,6.54911 7.12643,6.55515 7.1295,6.56117 3.34323,2.7749 3.34016,2.76887 3.33702,2.76283 3.33383,2.75678 3.33057,2.75071 3.32726,2.74463 3.32389,2.73854 3.32045,2.73243 3.31696,2.72632 3.3134,2.72019 3.30979,2.71406 3.30611,2.70791 3.30239,2.70176 3.29859,2.6956 3.29474,2.68943 3.29083,2.68326 3.28687,2.67707 3.28284,2.67089 3.27875,2.6647 3.27461,2.6585 3.27041,2.6523 3.26615,2.64609 3.26183,2.63988 3.25745,2.63367 3.25302,2.62746 3.24852,2.62125 3.24397,2.61504 3.23936,2.60882 3.2347,2.60261 3.22997,2.59639 3.22519,2.59018 3.22035,2.58397 "/>
     <polygon id="_471910592" class="fil1" points="5.18302,3.39888 8.96929,7.18515 8.96929,8.42955 5.18302,4.64328 "/>
     <polygon id="_471910040" class="fil1" points="5.18302,4.64328 8.96929,8.42955 7.33264,8.42955 3.54637,4.64328 "/>
    </g>
    <path id="_453116816" class="fil1" d="M4.34193 2.2027c0.0193189,0.00803543 0.0367559,0.0183346 0.0523228,0.0306811 0.0547362,0.0434409 0.0827362,0.108457 0.0854213,0.187457 0.00225591,0.0663268 -0.0140906,0.143386 -0.048,0.224878 -0.0248661,0.0597638 -0.059437,0.122803 -0.103228,0.186425l0.870598 0c0.0445276,0 0.0809606,0.0364331 0.0809606,0.0809646l0 0.404811c0,0.0445315 -0.0364331,0.0809646 -0.0809606,0.0809646l-0.0160197 0 0 1.2444 -1.63665 0 -0.266087 0 -1.63664 0 0 -1.2444 -0.0160197 0c-0.0445315,0 -0.0809606,-0.0364331 -0.0809606,-0.0809646l0 -0.404811c0,-0.0445315 0.0364291,-0.0809646 0.0809606,-0.0809646l0.870594 0c-0.0437913,-0.063622 -0.0783622,-0.126661 -0.103228,-0.186425 -0.0339094,-0.0814921 -0.0502559,-0.158551 -0.048,-0.224878 0.00268504,-0.079 0.030685,-0.144016 0.0854213,-0.187457 0.0155669,-0.0123465 0.0330039,-0.0226457 0.0523228,-0.0306811 0.098315,-0.0409094 0.231717,-0.0149331 0.367913,0.0601378 0.123969,0.0683307 0.254705,0.178713 0.362807,0.314933 0.0525236,0.0661811 0.0953071,0.132929 0.127776,0.197134 0.00975197,0.0192756 0.0185787,0.038378 0.0264764,0.0572362l0.0872441 0c0.00789764,-0.0188583 0.0167244,-0.0379606 0.0264764,-0.0572362 0.0324685,-0.0642047 0.075252,-0.130953 0.127776,-0.197134 0.108102,-0.13622 0.238839,-0.246602 0.362807,-0.314933 0.136197,-0.0750709 0.269598,-0.101047 0.367913,-0.0601378z"/>
   </g>
  </g>
  <path class="fil2" d="M3.41333 -3.93701e-006c1.88513,0 3.41333,1.5282 3.41333,3.41333 0,1.88513 -1.5282,3.41333 -3.41333,3.41333 -1.88513,0 -3.41333,-1.5282 -3.41333,-3.41333 0,-1.88513 1.5282,-3.41333 3.41333,-3.41333z"/>
  <polygon class="fil3" points="1.64365,4.64328 5.18302,4.64328 5.18302,3.38335 1.64365,3.38335 "/>
  <polygon class="fil4" points="3.28029,4.64328 3.54637,4.64328 3.54637,3.38335 3.28029,3.38335 "/>
  <path class="fil5" d="M3.73821 2.67874c-0.0445866,0.056189 -0.0807047,0.112047 -0.107972,0.16522l-0.0838661 0 -0.0942677 0c0.00908268,-0.0226772 0.0195315,-0.0457441 0.0313228,-0.0690591 0.0324685,-0.0642047 0.075252,-0.130953 0.127776,-0.197134 0.108102,-0.13622 0.238839,-0.246602 0.362807,-0.314933 0.136197,-0.0750709 0.269598,-0.101047 0.367913,-0.0601378 0.019315,0.00803543 0.0367559,0.0183307 0.0523228,0.030685 0.0547362,0.043437 0.0827362,0.108457 0.0854213,0.187457 0.00225591,0.0663228 -0.0140906,0.143382 -0.048,0.224874 -0.0264055,0.0634646 -0.0637559,0.130626 -0.111472,0.198248l-0.205945 0c0.0113425,-0.013122 0.0230157,-0.0272244 0.0349921,-0.042315 0.0595512,-0.0750433 0.104055,-0.149669 0.132555,-0.218169 0.0251575,-0.0604646 0.0373976,-0.114441 0.0359331,-0.157559 -0.0010315,-0.0304409 -0.00906693,-0.053311 -0.0244606,-0.0655236 -0.0037874,-0.00300787 -0.00831102,-0.00563386 -0.0135827,-0.00782283 -0.050248,-0.0209094 -0.133539,0.000688976 -0.227563,0.0525118 -0.106248,0.0585669 -0.219283,0.154413 -0.313913,0.273657z"/>
  <path class="fil5" d="M3.08845 2.67874c0.0445866,0.056189 0.0807047,0.112047 0.107972,0.16522l0.178134 0c-0.00908268,-0.0226772 -0.0195315,-0.0457441 -0.0313228,-0.0690591 -0.0324685,-0.0642047 -0.075252,-0.130953 -0.127776,-0.197134 -0.108102,-0.13622 -0.238839,-0.246602 -0.362807,-0.314933 -0.136197,-0.0750709 -0.269598,-0.101047 -0.367913,-0.0601378 -0.019315,0.00803543 -0.0367559,0.0183307 -0.0523228,0.030685 -0.0547362,0.043437 -0.0827362,0.108457 -0.0854213,0.187457 -0.00225591,0.0663228 0.0140906,0.143382 0.048,0.224874 0.0264055,0.0634646 0.0637559,0.130626 0.111472,0.198248l0.205945 0c-0.0113425,-0.013122 -0.0230157,-0.0272244 -0.0349921,-0.042315 -0.0595512,-0.0750433 -0.104055,-0.149669 -0.132555,-0.218169 -0.0251575,-0.0604646 -0.0373976,-0.114441 -0.0359331,-0.157559 0.0010315,-0.0304409 0.00906693,-0.053311 0.0244606,-0.0655236 0.0037874,-0.00300787 0.00831102,-0.00563386 0.0135827,-0.00782283 0.050248,-0.0209094 0.133539,0.000688976 0.227563,0.0525118 0.106248,0.0585669 0.219283,0.154413 0.313913,0.273657z"/>
  <rect class="fil6" x="1.54666" y="2.83214" width="3.73334" height="0.566741" rx="0.0809646" ry="0.0809646"/>
  <polygon class="fil7" points="3.28029,2.83214 3.54637,2.83214 3.54637,3.39888 3.28029,3.39888 "/>
  <polygon class="fil8" points="4.39422,3.85903 4.43964,3.99973 4.58749,3.99944 4.46771,4.08612 4.51367,4.22665 4.39422,4.13951 4.27478,4.22665 4.32074,4.08612 4.20096,3.99944 4.3488,3.99973 "/>
  <polygon class="fil8" points="2.43244,3.85903 2.47786,3.99973 2.6257,3.99944 2.50593,4.08612 2.55189,4.22665 2.43244,4.13951 2.31299,4.22665 2.35895,4.08612 2.23917,3.99944 2.38702,3.99973 "/>
 </g>
</svg>
