<?xml version="1.0" encoding="utf-8"?>
<!-- Generator: Adobe Illustrator 22.0.1, SVG Export Plug-In . SVG Version: 6.00 Build 0)  -->
<svg version="1.1" id="Layer_1" xmlns="http://www.w3.org/2000/svg" xmlns:xlink="http://www.w3.org/1999/xlink" x="0px" y="0px"
	 viewBox="0 0 128 128" style="enable-background:new 0 0 128 128;" xml:space="preserve">
<style type="text/css">
	.st0{fill:#3A2C60;}
	.st1{fill:#E6E7E8;}
	.st2{fill:#FFFFFF;}
	.st3{fill:#6DC9F7;}
	.st4{fill:red;}
	.st5{fill:#cc0e74;}
	.st6{fill:#FFD7E5;}
	.st7{fill:#D4FBFF;}
</style>
<g>
	<path class="st1" d="M118.536,81.385c-0.339-2.518-0.904-4.918-1.712-7.03c-3.48-9.104-10.976-12.847-21.097-10.545
		c-1.896,0.432-3.63,1.024-5.151,1.761c-0.898,0.435-1.825,0.655-2.757,0.655h-9.623c-0.931,0-1.858-0.22-2.757-0.655
		c-1.521-0.737-3.255-1.329-5.151-1.761c-2.216-0.505-4.298-0.702-6.247-0.634l-2.249-8.745c2.592-4.26,4.085-9.261,4.085-14.612
		c0-5.424-1.538-10.487-4.196-14.785C57.026,15.112,46.944,8.221,35.279,8.221c-16.073,0-29.15,13.077-29.15,29.15
		c0,11.665,6.891,21.747,16.813,26.402c4.297,2.658,9.361,4.196,14.785,4.196c2.487,0,4.899-0.323,7.195-0.928
		c2.179-0.575,4.255-1.404,6.194-2.454l3.994,1.55c-2.538,1.881-4.545,4.625-5.918,8.218c-0.798,2.086-1.361,4.454-1.701,6.938
		H47.39c-4.696,0-8.517,3.82-8.517,8.517v4.774c0,4.696,3.82,8.517,8.517,8.517h3.322c1.663,2.784,3.786,4.544,6.329,5.226
		c6.051,1.624,12.661-5.453,18.381-12.212c1.229-1.453,3.021-2.286,4.919-2.286h5.334c1.897,0,3.69,0.833,4.92,2.287
		c5.156,6.095,11.035,12.447,16.579,12.447c0.604,0,1.206-0.076,1.801-0.235c2.543-0.682,4.666-2.442,6.329-5.226h1.052v1.177
		c0,7.945-6.464,14.408-14.408,14.408H88.938c-0.37-1.208-1.481-2.093-2.81-2.093h-2.918c-1.63,0-2.952,1.322-2.952,2.952v0.282
		c0,1.63,1.322,2.952,2.952,2.952h2.918c1.33,0,2.441-0.885,2.81-2.093h13.009c9.048,0,16.408-7.361,16.408-16.408v-1.241
		c4.226-0.497,7.517-4.095,7.517-8.453V89.81C125.872,85.515,122.674,81.963,118.536,81.385z"/>
	<g>
		<g>
			<g>
				<path class="st5" d="M113.643,79.308c0.79,6.853-0.085,14.675-2.919,19.793h2.633c4.151,0,7.517-3.365,7.517-7.517V86.81
					C120.873,82.756,117.66,79.46,113.643,79.308z"/>
				<path class="st5" d="M44.375,79.293H43.39c-4.151,0-7.517,3.365-7.517,7.517v4.774c0,4.151,3.365,7.517,7.517,7.517h3.903
					C44.456,93.979,43.583,86.15,44.375,79.293z"/>
			</g>
			<g>
				<path class="st4" d="M111.891,71.712c-3.716-9.722-11.689-11.805-19.941-9.927c-1.782,0.406-3.446,0.964-4.937,1.685
					c-0.982,0.475-2.069,0.755-3.193,0.755h-9.623c-1.124,0-2.211-0.28-3.193-0.755c-1.491-0.721-3.155-1.28-4.937-1.685
					c-8.252-1.878-16.225,0.205-19.941,9.927c-4.009,10.486-2.326,30.1,7.174,32.649c5.667,1.521,12.417-6.052,17.358-11.892
					c1.437-1.699,3.528-2.641,5.683-2.641h5.334c2.156,0,4.246,0.942,5.683,2.641c4.941,5.84,11.691,13.413,17.358,11.892
					C114.217,101.812,115.9,82.198,111.891,71.712z"/>
				<g>
					<g>
						<path class="st2" d="M92.04,77.556c-1.743,0-3.157,1.413-3.157,3.157s1.413,3.157,3.157,3.157
							c1.744,0,3.157-1.413,3.157-3.157S93.784,77.556,92.04,77.556z"/>
						<path class="st2" d="M104.668,77.556c-1.743,0-3.157,1.413-3.157,3.157s1.413,3.157,3.157,3.157s3.157-1.413,3.157-3.157
							S106.411,77.556,104.668,77.556z"/>
					</g>
					<g>
						<path class="st2" d="M98.354,83.869c-1.743,0-3.157,1.413-3.157,3.157s1.413,3.157,3.157,3.157s3.157-1.413,3.157-3.157
							S100.098,83.869,98.354,83.869z"/>
						<path class="st2" d="M98.354,71.242c-1.743,0-3.157,1.413-3.157,3.157s1.413,3.157,3.157,3.157s3.157-1.413,3.157-3.157
							S100.098,71.242,98.354,71.242z"/>
					</g>
				</g>
				<polygon class="st2" points="66.899,76.992 62.276,76.992 62.276,72.369 56.413,72.369 56.413,76.992 51.791,76.992 
					51.791,82.855 56.413,82.855 56.413,87.477 62.276,87.477 62.276,82.855 66.899,82.855 				"/>
			</g>
		</g>
		<g>
			<g>
				<path class="st2" d="M55.344,48.983c2.592-4.26,4.085-9.261,4.085-14.612c0-15.547-12.603-28.151-28.151-28.151
					S3.128,18.824,3.128,34.372s12.603,28.151,28.151,28.151c4.847,0,9.408-1.225,13.39-3.383l14.761,5.728L55.344,48.983z"/>
				<path class="st5" d="M57.792,51.431c2.892-4.753,4.416-10.43,4.024-16.484C60.923,21.137,49.82,9.855,36.025,8.76
					C19.13,7.419,5.057,21.007,5.59,37.739C6.055,52.32,17.927,64.326,32.503,64.944c5.303,0.225,10.298-1.019,14.613-3.357
					l12.777,4.958c0.83,0.322,1.676-0.429,1.454-1.291L57.792,51.431z"/>
				<g>
					<path class="st0" d="M114.536,78.383c-0.339-2.517-0.904-4.917-1.711-7.028c-3.48-9.104-10.971-12.849-21.097-10.545
						c-1.896,0.431-3.629,1.023-5.151,1.76c-0.898,0.435-1.827,0.655-2.758,0.655h-9.622c-0.931,0-1.859-0.22-2.758-0.655
						c-1.521-0.736-3.253-1.329-5.15-1.761c-2.217-0.505-4.298-0.702-6.248-0.634l0.509,1.978c0.065-0.001,0.13-0.005,0.194-0.005
						c1.761,0,3.496,0.246,5.102,0.611c1.749,0.398,3.338,0.94,4.723,1.611c1.173,0.567,2.394,0.854,3.629,0.854h9.622
						c1.235,0,2.456-0.288,3.629-0.855c1.387-0.671,2.976-1.212,4.724-1.61c6.394-1.453,14.837-1.019,18.784,9.309c0,0,0,0,0.001,0
						c0.833,2.179,1.391,4.683,1.698,7.298c0.001,0.019-0.008,0.036-0.006,0.055c0.257,2.226,0.331,4.464,0.237,6.632
						c-0.005,0.118-0.012,0.235-0.019,0.352c-0.018,0.343-0.037,0.685-0.063,1.024c-0.038,0.477-0.083,0.952-0.138,1.422
						c-0.016,0.138-0.035,0.272-0.052,0.409c-0.051,0.404-0.108,0.805-0.171,1.202c-0.02,0.127-0.041,0.253-0.062,0.379
						c-0.08,0.468-0.167,0.931-0.265,1.385c-0.008,0.038-0.015,0.077-0.023,0.115c-0.104,0.478-0.221,0.944-0.344,1.403
						c-0.042,0.155-0.087,0.306-0.13,0.458c-0.082,0.287-0.169,0.569-0.259,0.847c-0.063,0.193-0.125,0.386-0.191,0.574
						c-0.083,0.236-0.172,0.463-0.26,0.692c-0.139,0.357-0.284,0.703-0.436,1.038c-0.071,0.156-0.141,0.313-0.214,0.465
						c-0.119,0.244-0.241,0.483-0.368,0.714c-1.438,2.636-3.261,4.278-5.433,4.861c-5.34,1.429-12.491-7.028-16.336-11.572
						c-1.609-1.903-3.96-2.995-6.447-2.995h-5.333c-2.486,0-4.837,1.091-6.447,2.995c-3.845,4.544-10.999,13.003-16.336,11.572
						c-2.172-0.583-3.995-2.225-5.433-4.861c-0.127-0.232-0.249-0.47-0.368-0.715c-0.074-0.151-0.143-0.308-0.214-0.464
						c-0.152-0.335-0.297-0.68-0.435-1.036c-0.089-0.23-0.179-0.458-0.262-0.696c-0.066-0.188-0.128-0.381-0.191-0.573
						c-0.09-0.279-0.177-0.561-0.259-0.848c-0.044-0.152-0.088-0.302-0.13-0.456c-0.123-0.459-0.24-0.926-0.344-1.404
						c-0.008-0.036-0.014-0.074-0.022-0.111c-0.098-0.456-0.185-0.921-0.266-1.391c-0.021-0.125-0.042-0.252-0.062-0.378
						c-0.063-0.395-0.119-0.794-0.17-1.196c-0.018-0.14-0.038-0.278-0.054-0.42c-0.054-0.468-0.099-0.941-0.137-1.416
						c-0.027-0.349-0.046-0.701-0.064-1.054c-0.006-0.108-0.012-0.215-0.017-0.323c-0.094-2.172-0.019-4.416,0.239-6.646
						c0.002-0.019-0.006-0.037-0.005-0.056c0.308-2.61,0.865-5.108,1.697-7.283c1.546-4.044,3.784-6.561,6.315-8.052l-2.267-0.88
						c-2.538,1.882-4.544,4.626-5.917,8.218c-0.798,2.086-1.361,4.454-1.701,6.938H43.39c-4.696,0-8.517,3.82-8.517,8.517v4.774
						c0,4.696,3.82,8.517,8.517,8.517h3.322c1.663,2.783,3.786,4.544,6.329,5.226c0.596,0.16,1.196,0.235,1.801,0.235
						c5.545,0,11.424-6.353,16.58-12.447c1.229-1.453,3.022-2.287,4.92-2.287h5.333c1.898,0,3.691,0.833,4.92,2.287
						c5.72,6.76,12.327,13.832,18.381,12.212c2.543-0.682,4.665-2.443,6.329-5.226h1.052v1.177c0,7.945-6.464,14.408-14.409,14.408
						H84.938c-0.37-1.208-1.481-2.093-2.81-2.093h-2.918c-1.63,0-2.952,1.322-2.952,2.952v0.282c0,1.63,1.322,2.952,2.952,2.952
						h2.918c1.33,0,2.441-0.885,2.81-2.093h13.009c9.048,0,16.409-7.361,16.409-16.408v-1.241c4.226-0.497,7.517-4.095,7.517-8.453
						V86.81C121.873,82.506,118.713,78.957,114.536,78.383z M43.39,98.101c-3.594,0-6.517-2.923-6.517-6.517V86.81
						c0-3.552,2.857-6.45,6.395-6.516c-0.005,0.051-0.005,0.102-0.009,0.154c-0.052,0.624-0.091,1.25-0.116,1.88
						c-0.014,0.322-0.022,0.641-0.029,0.962c-0.006,0.316-0.007,0.632-0.006,0.949c0.001,2.317,0.184,4.58,0.537,6.72
						c0.015,0.093,0.031,0.186,0.046,0.279c0.086,0.495,0.177,0.983,0.281,1.462c0.045,0.211,0.096,0.415,0.145,0.622
						c0.091,0.384,0.178,0.771,0.281,1.142c0.164,0.603,0.344,1.188,0.539,1.754c0.021,0.06,0.045,0.116,0.066,0.176
						c0.195,0.555,0.408,1.087,0.633,1.6c0.015,0.034,0.027,0.072,0.042,0.106H43.39z M119.873,91.584
						c0,3.593-2.923,6.517-6.517,6.517h-1.02c0.015-0.034,0.027-0.073,0.042-0.107c0.221-0.504,0.429-1.027,0.622-1.571
						c0.024-0.066,0.05-0.128,0.073-0.194c0.195-0.565,0.375-1.149,0.539-1.75c0.104-0.376,0.192-0.767,0.284-1.156
						c0.047-0.202,0.097-0.4,0.141-0.604c0.105-0.482,0.197-0.974,0.283-1.472c0.016-0.093,0.032-0.185,0.047-0.278
						c0.354-2.138,0.537-4.401,0.539-6.717c0.001-0.289,0.002-0.576-0.003-0.865c-0.006-0.331-0.016-0.66-0.03-0.992
						c-0.021-0.551-0.054-1.098-0.095-1.644c-0.008-0.1-0.009-0.199-0.017-0.299c2.943,0.64,5.11,3.24,5.11,6.357V91.584z"/>
					<path class="st0" d="M59.068,65.8c0.117,0.046,0.239,0.068,0.361,0.068c0.24,0,0.478-0.087,0.664-0.252
						c0.28-0.249,0.397-0.634,0.305-0.997l-3.981-15.48c2.627-4.463,4.013-9.559,4.013-14.767c0-16.074-13.077-29.15-29.151-29.15
						c-16.073,0-29.15,13.077-29.15,29.15c0,7.24,2.673,14.182,7.525,19.547c0.371,0.41,1.002,0.44,1.412,0.071
						c0.409-0.371,0.441-1.003,0.07-1.413C6.617,47.58,4.128,41.115,4.128,34.371c0-14.971,12.18-27.15,27.15-27.15
						c14.972,0,27.151,12.18,27.151,27.15c0,4.983-1.362,9.856-3.939,14.092c-0.14,0.23-0.182,0.508-0.114,0.769l3.601,13.999
						l-12.947-5.023c-0.272-0.106-0.579-0.087-0.838,0.053c-5.739,3.111-12.68,4.032-19.027,2.571
						c-0.543-0.123-1.075,0.212-1.199,0.75c-0.124,0.538,0.212,1.075,0.75,1.199c6.668,1.533,13.938,0.624,20.018-2.543L59.068,65.8
						z"/>
					<path class="st0" d="M21.383,59.663c-2.741-1.074-5.279-2.582-7.544-4.481c-0.424-0.355-1.055-0.299-1.408,0.124
						c-0.355,0.423-0.3,1.054,0.123,1.409c2.431,2.04,5.156,3.658,8.101,4.812c0.119,0.047,0.243,0.069,0.364,0.069
						c0.399,0,0.776-0.241,0.931-0.636C22.151,60.444,21.897,59.864,21.383,59.663z"/>
				</g>
			</g>
			<path class="st2" d="M41.141,36.565c-0.438-1-1.072-1.872-1.877-2.585c-0.754-0.689-1.621-1.223-2.576-1.587
				c-0.835-0.318-1.947-0.672-3.309-1.053v-6.526c1.002,0.498,1.64,1.302,1.94,2.443c0.524,1.915,1.821,2.317,2.817,2.317
				c0.772,0,1.438-0.275,1.98-0.818c0.542-0.542,0.817-1.196,0.817-1.943c0-0.62-0.166-1.302-0.495-2.027
				c-0.319-0.704-0.777-1.395-1.353-2.047c-0.745-0.876-1.632-1.541-2.637-1.974c-0.87-0.375-1.901-0.642-3.071-0.795v-1.541
				c0-1.812-1.173-2.007-1.677-2.007c-0.498,0-1.657,0.199-1.657,2.044v1.497c-2.428,0.284-4.334,1.107-5.673,2.452
				c-1.433,1.44-2.159,3.303-2.159,5.537c0,1.71,0.375,3.14,1.114,4.248c0.731,1.098,1.698,1.956,2.874,2.55
				c1.042,0.527,2.334,1.014,3.844,1.449v7.471c-0.456-0.186-0.84-0.416-1.145-0.687c-0.442-0.393-0.775-0.83-0.99-1.297
				c-0.236-0.513-0.52-1.271-0.842-2.248c-0.181-0.574-0.512-1.027-0.986-1.349c-0.462-0.313-1.026-0.472-1.678-0.472
				c-0.822,0-1.521,0.289-2.077,0.859c-0.552,0.567-0.831,1.22-0.831,1.939c0,0.858,0.186,1.742,0.553,2.627
				c0.365,0.879,0.934,1.734,1.688,2.54c0.756,0.807,1.708,1.49,2.832,2.03c1.006,0.482,2.173,0.819,3.477,1.001v1.559
				c0,0.671,0.114,1.17,0.349,1.525c0.188,0.287,0.576,0.629,1.346,0.629c0.864,0,1.232-0.435,1.389-0.801
				c0.169-0.397,0.251-0.978,0.251-1.776v-1.162c1.633-0.191,3.077-0.663,4.3-1.403c1.346-0.815,2.381-1.884,3.077-3.178
				c0.692-1.288,1.043-2.688,1.043-4.161C41.8,38.668,41.578,37.564,41.141,36.565z M33.38,37.202
				c0.885,0.334,1.577,0.72,2.063,1.151c0.549,0.488,0.815,1.175,0.815,2.099c0,0.873-0.288,1.617-0.882,2.275
				c-0.488,0.54-1.158,0.938-1.997,1.187V37.202z M27.773,27.492c0-0.874,0.227-1.496,0.693-1.903
				c0.396-0.346,0.926-0.646,1.579-0.895v5.608c-0.704-0.306-1.249-0.635-1.625-0.981C27.985,28.92,27.773,28.322,27.773,27.492z"/>
		</g>
	</g>
</g>
</svg>
