<?xml version="1.0" encoding="utf-8"?>
<!-- Generator: Adobe Illustrator 18.0.0, SVG Export Plug-In . SVG Version: 6.00 Build 0)  -->
<!DOCTYPE svg PUBLIC "-//W3C//DTD SVG 1.1//EN" "http://www.w3.org/Graphics/SVG/1.1/DTD/svg11.dtd">
<svg version="1.1" xmlns="http://www.w3.org/2000/svg" xmlns:xlink="http://www.w3.org/1999/xlink" x="0px" y="0px"
	 viewBox="0 0 128 128" enable-background="new 0 0 128 128" xml:space="preserve">
<g id="Names">
	<rect x="-219.984" y="-731" opacity="0" fill="#F4F5F5" width="727.938" height="1520"/>
</g>
<g id="New_Year">
	<g id="Gifts">
		<circle fill="#2B6AC2" cx="64" cy="64" r="64"/>
		<g>
			<defs>
				<circle id="SVGID_61_" cx="64" cy="64" r="64"/>
			</defs>
			<clipPath id="SVGID_2_">
				<use xlink:href="#SVGID_61_"  overflow="visible"/>
			</clipPath>
			<polygon clip-path="url(#SVGID_2_)" fill="#1155C2" points="22.651,102.377 48.137,127.863 128,128 128,64 86.419,24.737 			"/>
		</g>
		<path fill="#92C600" d="M103.424,103.59H69.413c-2.2,0-4-1.8-4-4V79.492c0-2.2,1.8-4,4-4h34.011c2.2,0,4,1.8,4,4V99.59
			C107.424,101.79,105.624,103.59,103.424,103.59z"/>
		<rect x="82.72" y="74.806" fill="#63B100" width="9.087" height="28.785"/>
		<rect x="74.066" y="86.664" fill="#63B100" width="33.293" height="5.069"/>
		<g>
			<path fill="#D4ECC4" d="M90.233,75.651l14.701-0.111c0.729-0.006,1.295-0.813,1.172-1.671l-0.649-4.505
				c-0.125-0.866-0.888-1.342-1.57-0.979L90.233,75.651z"/>
			<path fill="#D4ECC4" d="M90,76.61l11.41-9.253c0.766-0.621,0.658-1.82-0.206-2.295l-4.292-2.357
				c-0.741-0.407-1.671-0.062-1.968,0.729L90,76.61z"/>
			<path fill="#D4ECC4" d="M88.461,76.61l-11.41-9.253c-0.766-0.621-0.658-1.82,0.206-2.295l4.292-2.357
				c0.741-0.407,1.671-0.062,1.968,0.729L88.461,76.61z"/>
			<path fill="#D4ECC4" d="M88.245,75.651L73.544,75.54c-0.729-0.006-1.295-0.813-1.172-1.671l0.649-4.505
				c0.125-0.866,0.888-1.342,1.57-0.979L88.245,75.651z"/>
			<path fill="#D4ECC4" d="M90.836,75.963l4.967,7.528c0.433,0.656-0.062,1.484-0.922,1.543l-2.028,0.139
				c-0.581,0.04-1.107-0.303-1.233-0.803l-2.088-8.273L90.836,75.963z"/>
			<path fill="#D4ECC4" d="M88.022,75.963l-4.967,7.528c-0.433,0.656,0.062,1.484,0.922,1.543l2.028,0.139
				c0.581,0.04,1.107-0.303,1.233-0.803l2.088-8.273L88.022,75.963z"/>
			<path fill="#D4ECC4" d="M90.727,77.584h-2.984c-1.288,0-2.332-1.044-2.332-2.332v-0.964c0-1.288,1.044-2.332,2.332-2.332h2.984
				c1.288,0,2.332,1.044,2.332,2.332v0.964C93.059,76.54,92.015,77.584,90.727,77.584z"/>
		</g>
		<path fill="#EE458A" d="M83.1,103.59H48.315c-2.2,0-4-1.8-4-4V26.962c0-2.2,1.8-4,4-4H83.1c2.2,0,4,1.8,4,4V99.59
			C87.1,101.79,85.3,103.59,83.1,103.59z"/>
		<g>
			<defs>
				<path id="SVGID_63_" d="M83.1,103.59H48.315c-2.2,0-4-1.8-4-4V26.962c0-2.2,1.8-4,4-4H83.1c2.2,0,4,1.8,4,4V99.59
					C87.1,101.79,85.3,103.59,83.1,103.59z"/>
			</defs>
			<clipPath id="SVGID_4_">
				<use xlink:href="#SVGID_63_"  overflow="visible"/>
			</clipPath>
			<g clip-path="url(#SVGID_4_)">
				
					<line fill="none" stroke="#FCB9DA" stroke-width="4" stroke-miterlimit="10" x1="89.574" y1="-10.667" x2="42.808" y2="36.099"/>
				<line fill="none" stroke="#FCB9DA" stroke-width="4" stroke-miterlimit="10" x1="89.574" y1="3.3" x2="42.808" y2="50.066"/>
				<line fill="none" stroke="#FCB9DA" stroke-width="4" stroke-miterlimit="10" x1="89.574" y1="17.268" x2="42.808" y2="64.033"/>
				<line fill="none" stroke="#FCB9DA" stroke-width="4" stroke-miterlimit="10" x1="89.574" y1="31.235" x2="42.808" y2="78"/>
				<line fill="none" stroke="#FCB9DA" stroke-width="4" stroke-miterlimit="10" x1="89.574" y1="45.202" x2="42.808" y2="91.968"/>
				
					<line fill="none" stroke="#FCB9DA" stroke-width="4" stroke-miterlimit="10" x1="89.574" y1="59.169" x2="42.808" y2="105.935"/>
				
					<line fill="none" stroke="#FCB9DA" stroke-width="4" stroke-miterlimit="10" x1="89.574" y1="73.136" x2="42.808" y2="119.902"/>
				
					<line fill="none" stroke="#FCB9DA" stroke-width="4" stroke-miterlimit="10" x1="89.574" y1="87.103" x2="42.808" y2="133.869"/>
			</g>
		</g>
		<g>
			<defs>
				<path id="SVGID_65_" d="M83.1,103.59H48.315c-2.2,0-4-1.8-4-4V26.962c0-2.2,1.8-4,4-4H83.1c2.2,0,4,1.8,4,4V99.59
					C87.1,101.79,85.3,103.59,83.1,103.59z"/>
			</defs>
			<clipPath id="SVGID_6_">
				<use xlink:href="#SVGID_65_"  overflow="visible"/>
			</clipPath>
			<polygon opacity="0.24" clip-path="url(#SVGID_6_)" fill="#D01D96" points="68.691,50.069 87.85,69.228 87.85,104.333 
				60.795,104.333 60.795,52.667 			"/>
		</g>
		<path fill="#FED612" d="M65.292,103.59H25.511c-2.2,0-4-1.8-4-4V52.163c0-2.2,1.8-4,4-4h39.781c2.2,0,4,1.8,4,4V99.59
			C69.292,101.79,67.492,103.59,65.292,103.59z"/>
		<rect x="41.133" y="48.163" fill="#FEB212" width="8.567" height="55.423"/>
		<rect x="21.508" y="65.337" fill="#FEB212" width="47.795" height="7.65"/>
		<g>
			<defs>
				<path id="SVGID_67_" d="M65.292,103.59H25.511c-2.2,0-4-1.8-4-4V52.163c0-2.2,1.8-4,4-4h39.781c2.2,0,4,1.8,4,4V99.59
					C69.292,101.79,67.492,103.59,65.292,103.59z"/>
			</defs>
			<clipPath id="SVGID_8_">
				<use xlink:href="#SVGID_67_"  overflow="visible"/>
			</clipPath>
			<polygon opacity="0.15" clip-path="url(#SVGID_8_)" fill="#D75B41" points="25.515,70.626 59.334,104.444 70.5,104.444 
				70.5,68.812 60.403,58.647 49.437,67.042 38.049,55.653 30.307,60.714 38.582,68.99 			"/>
		</g>
		<g>
			<path fill="#FFF1E5" d="M46.608,71.101l17.841-0.135c0.885-0.007,1.572-0.987,1.422-2.028l-0.788-5.467
				c-0.151-1.051-1.078-1.629-1.906-1.188L46.608,71.101z"/>
			<path fill="#FFF1E5" d="M46.326,72.265l13.846-11.229c0.929-0.754,0.799-2.209-0.25-2.785l-5.209-2.86
				c-0.899-0.494-2.027-0.076-2.388,0.885L46.326,72.265z"/>
			<path fill="#FFF1E5" d="M44.458,72.265L30.612,61.036c-0.929-0.754-0.799-2.209,0.25-2.785l5.209-2.86
				c0.899-0.494,2.027-0.076,2.388,0.885L44.458,72.265z"/>
			<path fill="#FFF1E5" d="M44.195,71.101l-17.841-0.135c-0.885-0.007-1.572-0.987-1.422-2.028l0.788-5.467
				c0.151-1.051,1.078-1.629,1.906-1.188L44.195,71.101z"/>
			<path fill="#FFF1E5" d="M47.339,71.48l6.028,9.136c0.525,0.796-0.075,1.801-1.119,1.872l-2.461,0.168
				c-0.705,0.048-1.343-0.367-1.497-0.975l-2.534-10.039L47.339,71.48z"/>
			<path fill="#FFF1E5" d="M43.925,71.48l-6.028,9.136c-0.525,0.796,0.075,1.801,1.119,1.872l2.461,0.168
				c0.705,0.048,1.343-0.367,1.497-0.975l2.534-10.039L43.925,71.48z"/>
			<path fill="#FFF1E5" d="M47.706,73.447h-4.617c-1.288,0-2.332-1.044-2.332-2.332V68.95c0-1.288,1.044-2.332,2.332-2.332h4.617
				c1.288,0,2.332,1.044,2.332,2.332v2.166C50.037,72.403,48.993,73.447,47.706,73.447z"/>
		</g>
	</g>
</g>
</svg>
