<?xml version="1.0" encoding="utf-8"?>
<!-- Generator: Adobe Illustrator 18.0.0, SVG Export Plug-In . SVG Version: 6.00 Build 0)  -->
<!DOCTYPE svg PUBLIC "-//W3C//DTD SVG 1.1//EN" "http://www.w3.org/Graphics/SVG/1.1/DTD/svg11.dtd">
<svg version="1.1" id="Layer_1" xmlns="http://www.w3.org/2000/svg" xmlns:xlink="http://www.w3.org/1999/xlink" x="0px" y="0px"
	 width="128px" height="128px" viewBox="0 0 128 128" style="enable-background:new 0 0 128 128;" xml:space="preserve">
<style >
	.stc0{fill:#6CBD45;}
	.stc1{clip-path:url(#SVGID_2_);fill:#3DA743;}
	.stc2{fill:#585271;}
	.stc3{opacity:0.8;clip-path:url(#SVGID_4_);fill:#474159;}
	.stc4{fill:#2BC3EF;}
	.stc5{fill:#FFF1E5;}
	.stc6{clip-path:url(#SVGID_6_);}
	.stc7{fill:#FFFFFF;}
	.stc8{fill:none;}
	.stc9{clip-path:url(#SVGID_8_);fill:#D1E5B3;}
</style>
<g>
	<circle class="stc0" cx="64" cy="64" r="64"/>
	<g>
		<defs>
			<circle id="SVGID_1_" cx="64" cy="64" r="64"/>
		</defs>
		<clipPath id="SVGID_2_">
			<use xlink:href="#SVGID_1_"  style="overflow:visible;"/>
		</clipPath>
		<polygon class="stc1" points="84.9,25.2 128.2,65.2 128,128 73.7,128 38.5,91.6 		"/>
	</g>
	<path class="stc2" d="M67,110.9c-1.1,0.7-2.6,0.7-3.7,0c-8.4-5.3-35.6-24.3-35.6-46.5c0-7.2,0.5-13.9,1.6-20.1
		c0.3-1.5,1.4-2.7,2.9-3c7.1-1,12.5-5.5,12.5-13c0,0,0,0,0,0c0-1.8,1.2-3.4,3-3.6c6.4-0.8,13.4-0.9,17.4-0.9
		c6.1,0,11.7,0.3,16.3,0.8c1.8,0.2,3.1,1.8,3.1,3.6c0,0,0,0.1,0,0.1c0,8.5,6.9,13.2,15.4,13.2c0.1,0,0.3,0,0.4,0
		c1.5,7.3,2.2,14.5,2.2,22.8C102.5,86.6,75.3,105.6,67,110.9z"/>
	<g>
		<defs>
			<path id="SVGID_3_"  d="M67,110.9c-1.1,0.7-2.6,0.7-3.7,0c-8.4-5.3-35.6-24.3-35.6-46.5c0-7.2,0.5-13.9,1.6-20.1
				c0.3-1.5,1.4-2.7,2.9-3c7.1-1,12.5-5.5,12.5-13c0,0,0,0,0,0c0-1.8,1.2-3.4,3-3.6c6.4-0.8,13.4-0.9,17.4-0.9
				c6.1,0,11.7,0.3,16.3,0.8c1.8,0.2,3.1,1.8,3.1,3.6c0,0,0,0.1,0,0.1c0,8.5,6.9,13.2,15.4,13.2c0.1,0,0.3,0,0.4,0
				c1.5,7.3,2.2,14.5,2.2,22.8C102.5,86.6,75.3,105.6,67,110.9z"/>
		</defs>
		<clipPath id="SVGID_4_">
			<use xlink:href="#SVGID_3_"  style="overflow:visible;"/>
		</clipPath>
		<path class="stc3" d="M75.8,33.5l26.1,24.2c0,0,1.4,13.7-3.5,21.7c-4.8,8-12.9,17-17,20.5c-4.2,3.5-11.7,9.1-11.7,9.1L50,89.3
			L75.8,33.5z"/>
	</g>
	<path class="stc4" d="M65.1,101.6c-3.4-2.3-8.2-5.8-12.9-10.1c-7.2-6.7-15.8-16.8-15.8-27c0-5.5,0.3-10.6,1-15.4
		c7.4-2.7,13.2-6.9,15.2-14.3c0.3-0.9,1.1-1.6,2.1-1.7c3.2-0.2,6.7-0.3,10.4-0.3c3.3,0,6.4,0.1,9.3,0.2c1,0.1,1.9,0.7,2.1,1.7
		c2.2,7.7,8.3,12.2,16.2,14.7c0.7,4.8,1,9.7,1,15.1C93.6,79.1,75.8,94.3,65.1,101.6z"/>
	<path class="stc5" d="M65.1,25c6,0,11.4,0.3,16,0.8c1.3,0.1,1.9,1.2,1.9,2.5c0,0,0,0.1,0,0.1c0,8.9,7.3,14,16.2,14.3
		c1.3,6.9,2.1,13.9,2.1,21.7c0,22.9-30,42.5-36.2,46.3c-6.2-3.8-36.4-23.4-36.4-46.3c0-7.9,0.8-15.1,2-21.8C39.2,42,46,37.1,46,28.4
		c0,0,0,0,0,0c0-1.3,0.7-2.3,2-2.5C52.8,25.3,58.7,25,65.1,25 M65.1,22.8c-5.8,0-12.4,0.3-18,1c-2.1,0.3-3.6,2.1-3.6,4.3
		c0,0.1,0,0.3,0,0.4c0,7.9-6.4,12.1-14.3,12.1c-0.1,0-0.3,0-0.4,0c-1.3,6.4-2.3,14.1-2.3,24c0,27,38.6,48.9,38.6,48.9
		s38.5-21.9,38.5-48.9c0-9.9-1-17.6-2.4-24c-0.4,0-0.8,0.1-1.3,0.1c-7.9,0-14.3-4.2-14.3-12.1c0-0.2,0-0.3,0-0.5
		c0.1-2.2-1.5-4-3.6-4.3C76.7,23,70.7,22.8,65.1,22.8L65.1,22.8z"/>
	<g>
		<defs>
			<path id="SVGID_5_" d="M65.1,101.6c-3.4-2.3-8.2-5.8-12.9-10.1c-7.2-6.7-15.8-16.8-15.8-27c0-5.5,0.3-10.6,1-15.4
				c7.5-2.7,13.3-7,15.3-14.5c0.2-0.8,1-1.4,1.8-1.5c3.3-0.2,6.9-0.3,10.6-0.3c3.4,0,6.6,0.1,9.5,0.3c0.9,0.1,1.6,0.7,1.8,1.5
				c2.1,7.9,8.3,12.4,16.2,14.8c0.7,4.8,1,9.7,1,15.1C93.6,79.1,75.8,94.3,65.1,101.6z"/>
		</defs>
		<clipPath id="SVGID_6_">
			<use xlink:href="#SVGID_5_"  style="overflow:visible;"/>
		</clipPath>
		<g class="stc6">
			<polygon class="stc7" points="101,64.1 65,64.1 65,26.9 101,24.5 			"/>
			<rect x="29" y="64.1" class="stc7" width="36" height="37.7"/>
		</g>
	</g>
	<g>
		<path class="stc8" d="M65.1,101.6c-3.4-2.3-8.2-5.8-12.9-10.1c-7.2-6.7-15.8-16.8-15.8-27c0-5.5,0.3-10.6,1-15.4
			c7.4-2.7,13.2-6.9,15.2-14.3c0.3-0.9,1.1-1.6,2.1-1.7c3.2-0.2,6.7-0.3,10.4-0.3c3.3,0,6.4,0.1,9.3,0.2c1,0.1,1.9,0.7,2.1,1.7
			c2.2,7.7,8.3,12.2,16.2,14.7c0.7,4.8,1,9.7,1,15.1C93.6,79.1,75.8,94.3,65.1,101.6z"/>
	</g>
	<g>
		<defs>
			<path id="SVGID_7_" d="M65.1,25c6,0,11.4,0.3,16,0.8c1.3,0.1,1.9,1.2,1.9,2.5c0,0,0,0.1,0,0.1c0,8.9,7.3,14,16.2,14.3
				c1.3,6.9,2.1,13.9,2.1,21.7c0,22.9-30,42.5-36.2,46.3c-6.2-3.8-36.4-23.4-36.4-46.3c0-7.9,0.8-15.1,2-21.8
				C39.2,42,46,37.1,46,28.4c0,0,0,0,0,0c0-1.3,0.7-2.3,2-2.5C52.8,25.3,58.7,25,65.1,25 M65.1,22.8c-5.8,0-12.4,0.3-18,1
				c-2.1,0.3-3.6,2.1-3.6,4.3c0,0.1,0,0.3,0,0.4c0,7.9-6.4,12.1-14.3,12.1c-0.1,0-0.3,0-0.4,0c-1.3,6.4-2.3,14.1-2.3,24
				c0,27,38.6,48.9,38.6,48.9s38.5-21.9,38.5-48.9c0-9.9-1-17.6-2.4-24c-0.4,0-0.8,0.1-1.3,0.1c-7.9,0-14.3-4.2-14.3-12.1
				c0-0.2,0-0.3,0-0.5c0.1-2.2-1.5-4-3.6-4.3C76.7,23,70.7,22.8,65.1,22.8L65.1,22.8z"/>
		</defs>
		<clipPath id="SVGID_8_">
			<use xlink:href="#SVGID_7_"  style="overflow:visible;"/>
		</clipPath>
		<rect x="65" y="21.7" class="stc9" width="40.2" height="92.8"/>
	</g>
</g>
</svg>
