<?xml version="1.0" encoding="utf-8"?>
<!-- Generator: Adobe Illustrator 24.0.1, SVG Export Plug-In . SVG Version: 6.00 Build 0)  -->
<svg version="1.1" id="bfbb5b39-9b4a-43f6-b630-7b09a59f4f63"
	 xmlns="http://www.w3.org/2000/svg" xmlns:xlink="http://www.w3.org/1999/xlink" x="0px" y="0px" viewBox="0 0 1188.5 718"
	 style="enable-background:new 0 0 1188.5 718;" xml:space="preserve">
<style type="text/css">
	.sti0{display:none;fill:#F2F2F2;}
	.sti1{fill:#3F3D56;}
	.sti2{fill:#FF782A;}
	.sti3{opacity:0.1;enable-background:new    ;}
	.sti4{fill:#FF8955;}
	.sti5{opacity:0.15;enable-background:new    ;}
	.sti6{fill:#FF6A0A;}
	.sti7{fill:url(#SVGID_1_);}
	.sti8{fill:#DF5E00;}
	.sti9{fill:#FF971F;}
	.sti10{fill:#2F2E41;}
	.sti11{fill:#FBBEBE;}
	.sti12{fill:#FF962A;}
	.sti13{fill:#FF6C2A;}
</style>
<title>mobile user</title>
<path class="sti0" d="M184,225v36c31.5,0,57,25.5,57,57s-25.5,57-57,57v36h186V225H184z"/>
<circle class="sti0" cx="184" cy="318" r="45"/>
<polygon class="sti0" points="866,363.1 793,318.1 793,666 866,666 "/>
<polygon class="sti0" points="681,666 754,666 754,294 681,249 "/>
<polygon class="sti0" points="642,225 277,0 277,203 394,203 394,437 277,437 277,666 642,666 "/>
<polygon class="sti0" points="905,387.1 905,666 943,666 1046,474 "/>
<path class="sti1" d="M1046.8,532.9c-60.6,45.3-77.7,124.8-77.7,124.8s81.1,6.1,141.7-39.1s77.7-124.8,77.7-124.8
	S1107.4,487.6,1046.8,532.9z"/>
<path class="sti2" d="M969.2,657c0,0-0.9-0.5-2.5-1.5c-1.3-0.8-3-1.9-5.2-3.3c-19-12.5-68.4-49.4-88.6-106.4
	c-25.3-71.3,4.6-147,4.6-147s65.2,36.6,92.9,102.5c1.2,2.8,2.3,5.7,3.4,8.7c22,62,2.3,127.4-3.2,143.3
	C969.7,655.7,969.2,657,969.2,657z"/>
<path class="sti1" d="M969.5,659.2l-0.9-0.7c-0.7-0.5-66.4-48.8-83.3-122c-16.9-73.2,21-145.4,21.4-146.2l0.5-1l0.9,0.7
	c0.7,0.5,66.4,48.8,83.3,122l0,0c16.9,73.2-21,145.4-21.4,146.2L969.5,659.2z M907.9,392.4c-4.6,9.1-36.3,76-20.7,143.7
	c15.6,67.7,73.5,113.9,81.6,120.1c4.6-9.1,36.3-76,20.7-143.7l0,0C973.9,444.8,916,398.5,907.9,392.4z"/>
<path class="sti3" d="M970.5,653.3c-1.5,0.9-2.8,1.6-3.8,2.2c-2.3,1.3-3.6,1.9-3.6,1.9s-0.6-1.8-1.5-5.2
	c-5.1-18.4-19.8-82.7,4.8-141.8c1.3-3.1,2.7-6.1,4.1-9.1c1.2,2.8,2.3,5.7,3.4,8.7C995.8,572,976,637.4,970.5,653.3z"/>
<path class="sti4" d="M1072.1,554.1c-29.1,69.8-102,105.9-102,105.9s-25.8-77.2,3.2-147s102-105.9,102-105.9
	S1101.2,484.2,1072.1,554.1z"/>
<rect x="888.4" y="533.1" transform="matrix(0.3868 -0.9221 0.9221 0.3868 134.6521 1270.6312)" class="st1" width="268.7" height="2"/>
<path class="sti1" d="M1177.5,680.5c0,9.4-53.9,17.9-142.9,24.5c-16.2,1.2-33.6,2.3-52,3.4c-15.9,0.9-32.6,1.8-50,2.6
	c-16.9,0.8-34.4,1.5-52.6,2.1c-57.4,2.1-120.9,3.6-188.4,4.3c-16.4,0.2-33,0.3-49.8,0.4c-17.5,0.1-35.2,0.1-53.1,0.1
	C263.6,718,0,701.2,0,680.5S263.6,643,588.8,643c140,0,268.5,3.1,369.6,8.3c3.7,0.2,7.4,0.4,11,0.6c0,0,0,0,0.1,0
	C1096.7,658.8,1177.5,669,1177.5,680.5z"/>
<path class="sti5" d="M1177.5,680.5c0,9.4-53.9,17.9-142.9,24.5c-16.2,1.2-33.6,2.3-52,3.4c-15.9,0.9-32.6,1.8-50,2.6
	c-16.9,0.8-34.4,1.5-52.6,2.1c-57.4,2.1-120.9,3.6-188.4,4.3c-16.4,0.2-33,0.3-49.8,0.4c-17.5,0.1-35.2,0.1-53.1,0.1
	C263.6,718,0,701.2,0,680.5S263.6,643,588.8,643c140,0,268.5,3.1,369.6,8.3c3.7,0.2,7.4,0.4,11,0.6c0,0,0,0,0.1,0
	C1096.7,658.8,1177.5,669,1177.5,680.5z"/>
<path class="sti1" d="M1132.3,673.9c0,7.8-50.2,15-133.3,20.5c-15.1,1-31.3,1.9-48.4,2.8c-14.8,0.8-30.4,1.5-46.6,2.2
	c-15.8,0.6-32.1,1.2-49,1.8c-53.5,1.8-112.7,3-175.6,3.6c-15.3,0.1-30.7,0.3-46.4,0.3c-16.3,0.1-32.8,0.1-49.5,0.1
	c-303.1,0-548.9-14-548.9-31.4s245.7-31.4,548.9-31.4c67,0,131.3,0.7,190.6,2h0.2c56.2,1.2,108,2.9,153.8,5
	c3.5,0.2,6.9,0.3,10.3,0.5c0,0,0,0,0.1,0c21,1,40.6,2.1,58.7,3.3c0.2,0,0.4,0,0.6,0C1081.5,658.8,1132.3,666,1132.3,673.9z"/>
<path class="sti3" d="M997,653.3c-7.4,48.3-54.3,32.1-111,32.1c-59.9,0-108.8,18.1-111.8-40.9c56.2,1.2,108,2.9,153.8,5
	c3.5,0.2,6.9,0.3,10.3,0.5c0,0,0,0,0.1,0C959.3,651,978.9,652.1,997,653.3z"/>
<path class="sti6" d="M317.3,638.6c0,17.4-10.4,23.5-23.1,23.5c-0.3,0-0.6,0-0.9,0c-0.6,0-1.2,0-1.8-0.1
	c-11.5-0.8-20.5-7.2-20.5-23.4c0-16.8,21.4-37.9,23-39.5l0,0c0.1-0.1,0.1-0.1,0.1-0.1S317.3,621.2,317.3,638.6z"/>
<path class="sti1" d="M293.3,659.4l8.5-11.8l-8.5,13.1l0,1.4c-0.6,0-1.2,0-1.8-0.1l0.9-17.4l0-0.1l0,0l0.1-1.6l-8.5-13.1l8.5,11.9
	l0,0.3l0.7-13.2l-7.3-13.6l7.4,11.3l0.7-27.3l0-0.1v0.1l-0.1,21.5l7.2-8.5l-7.3,10.4l-0.2,11.8l6.8-11.3l-6.8,13l-0.1,6.6l9.8-15.7
	l-9.9,18L293.3,659.4z"/>
<path class="sti1" d="M774,626.4c0-66.3,50.1-120,112-120s112,53.7,112,120s-50.1,47-112,47S774,692.7,774,626.4z"/>
<rect x="151.4" y="547.3" class="st1" width="2" height="135.2"/>
<circle class="sti1" cx="152.4" cy="547.3" r="19.1"/>
<path class="sti1" d="M152.4,630.6c0,0-2.7-58.7-58.7-51.9"/>
<linearGradient id="SVGID_1_" gradientUnits="userSpaceOnUse" x1="643.1698" y1="52.1683" x2="643.1698" y2="103.7294" gradientTransform="matrix(1 0 0 -1 -5.7341 627)">
	<stop  offset="0" style="stop-color:#808080;stop-opacity:0.25"/>
	<stop  offset="0.5351" style="stop-color:#808080;stop-opacity:0.12"/>
	<stop  offset="1" style="stop-color:#808080;stop-opacity:0.1"/>
</linearGradient>
<path class="sti7" d="M709,569.6c0.5,1.8,1.1,3.5,1.7,5.3c-2.7-2.6-5.3-5.3-8-7.9c1.1,0.3,2.1,0.7,3.1,1.1
	C707,568.4,708,568.9,709,569.6z M696.1,560.8c-15.7-13.7-34-24.3-50.1-37.5c8.8,4.3,17.4,9.4,25.9,14.2
	c10.1,5.7,20.3,11.3,30.6,16.6C700.8,556.7,698.6,559,696.1,560.8z M702.8,526.4c0.3-0.3,0.5-0.5,0.8-0.8c0,1.9,0,3.8,0,5.4
	c-1.4-0.5-2.8-0.9-4.2-1.4C700.6,528.6,701.7,527.5,702.8,526.4L702.8,526.4z M564.2,563.4c6.5-7.3,12.1-15.4,16.8-24
	c6.2,10.9,16.4,18.8,25,27.9C592.1,565.5,578.2,564,564.2,563.4z"/>
<path class="sti8" d="M117.3,664.6c0,17.4-10.4,23.5-23.1,23.5c-0.3,0-0.6,0-0.9,0c-0.6,0-1.2,0-1.8-0.1C80,687.2,71,680.8,71,664.6
	c0-16.8,21.4-37.9,23-39.5l0,0c0.1-0.1,0.1-0.1,0.1-0.1S117.3,647.2,117.3,664.6z"/>
<path class="sti1" d="M93.3,685.4l8.5-11.8l-8.5,13.1l0,1.4c-0.6,0-1.2,0-1.8-0.1l0.9-17.4l0-0.1l0,0l0.1-1.6L84,655.6l8.5,11.9
	l0,0.3l0.7-13.2L86,641.1l7.4,11.3l0.7-27.3l0-0.1v0.1l-0.1,21.5l7.2-8.5l-7.3,10.4l-0.2,11.8l6.8-11.3l-6.8,13l-0.1,6.6l9.8-15.7
	l-9.9,18L93.3,685.4z"/>
<circle class="sti9" cx="129" cy="516" r="10"/>
<path class="sti10" d="M772,376c0,0,36.3-8,40.3,24S793,438,793,438l-14.7,4l-57-15l8-23L772,376z"/>
<circle class="sti10" cx="758.9" cy="328.8" r="49"/>
<polygon class="sti10" points="586.7,430.6 596.6,432.6 630.5,482.7 615.5,484.7 "/>
<path class="sti11" d="M345.7,633.7c2.7,8.8,6,17.5,9.9,25.8c11.2-2.3,22.3-5.5,33-9.4c0.3-0.1-6.2-8.6-6.9-9.3
	c-2.6-2.6-5.9-5.7-9.3-7.2c-3.4-1.5-7.7-0.4-11.4-0.2C356,633.8,350.9,633.8,345.7,633.7z"/>
<path class="sti10" d="M372.5,647.1c-5.6-1.8-9-7.4-11.3-12.9s-4.1-11.4-8.5-15.4c-1.7,0.1-3,1.4-3.8,2.9s-1.3,3.1-2.3,4.5
	c-1.8,2.6-5,3.9-7.3,6.1c-2.4,2.3-3.7,5.6-6.1,7.8c-3.1,2.8-7.5,3.5-11.5,4.4c-6.3,1.4-12.3,3.7-18,6.7c-2.1,1.3-4.3,2.3-6.7,3
	c-2.6,0.5-5.2,0.6-7.8,0.3l-18-1.3c-1.6-0.2-3.2-0.1-4.8,0.2c-3.7,1-6,5.2-5.7,9s2.7,7.3,5.7,9.7c3.1,2.2,6.6,4,10.2,5.2
	c15.6,5.9,31.7,10.5,48.1,13.8l0,3.6c11.4,5.6,23.9,8.5,36.7,8.5c0.9,0.1,1.9-0.1,2.7-0.5c1.3-0.7,1.8-2.2,2.3-3.5
	c4.3-12.6,6.8-25.7,7.5-39c0.3-3.4,0.1-6.8-0.8-10.1c-1-3.2,2.4-1.9-0.7-3.1"/>
<path class="sti10" d="M716.9,579.4c-53.2,3.2-105.9-12.4-159.2-14.1c-6.6-0.2-13.3-0.2-19.8,1.3c-6.8,1.5-13.2,4.6-19.6,7.6
	c-28.6,13.3-58.2,24.3-87.7,35.3l-33.9,12.6c-6.8,2.5-13.8,5.1-21,4.6c-3.2-0.2-7.2-0.7-9,2c-5.5,8.2-2.9,20.2,0.7,29.4
	c1.2,3,3.2,6.2,6.4,6.5c2.2,0.2,4.3-1.1,6.5-1.6c6.2-1.7,12.3,2.5,18.7,3.2c7.9,0.8,15.1-3.6,22.6-6.4c12.3-4.5,25.7-4.4,38.7-6.6
	c21.7-3.6,41.8-13.7,60.5-25.1c7.1-4.4,14.4-9,22.6-10.6c9.4-1.8,19.1,0.6,28.4,3.2c22.1,6.2,43.8,13.6,65.1,22.2
	c11.2,4.5,22.3,9.3,34,12.4c25.2,6.6,51.9,5.1,76.2-4.4c8.5-3.4,17.8-9.3,18.3-18.5c0.3-5.2-3.8-9.9-6.5-14.3
	c-1.7-2.9-3.5-5.8-5.4-8.5C744.2,596.1,733.1,578.5,716.9,579.4z"/>
<path class="sti3" d="M716.9,579.4c-53.2,3.2-105.9-12.4-159.2-14.1c-6.6-0.2-13.3-0.2-19.8,1.3c-6.8,1.5-13.2,4.6-19.6,7.6
	c-28.6,13.3-58.2,24.3-87.7,35.3l-33.9,12.6c-6.8,2.5-13.8,5.1-21,4.6c-3.2-0.2-7.2-0.7-9,2c-5.5,8.2-2.9,20.2,0.7,29.4
	c1.2,3,3.2,6.2,6.4,6.5c2.2,0.2,4.3-1.1,6.5-1.6c6.2-1.7,12.3,2.5,18.7,3.2c7.9,0.8,15.1-3.6,22.6-6.4c12.3-4.5,25.7-4.4,38.7-6.6
	c21.7-3.6,41.8-13.7,60.5-25.1c7.1-4.4,14.4-9,22.6-10.6c9.4-1.8,19.1,0.6,28.4,3.2c22.1,6.2,43.8,13.6,65.1,22.2
	c11.2,4.5,22.3,9.3,34,12.4c25.2,6.6,51.9,5.1,76.2-4.4c8.5-3.4,17.8-9.3,18.3-18.5c0.3-5.2-3.8-9.9-6.5-14.3
	c-1.7-2.9-3.5-5.8-5.4-8.5C744.2,596.1,733.1,578.5,716.9,579.4z"/>
<path class="sti11" d="M447.9,636.3c8.3,2.8,16.7,5.5,25.2,7.8c4.7-7.8,13.6-13.2,15.7-22.1c0.1-0.4,0.1-0.8,0-1.2
	c-0.2-0.4-0.6-0.7-1-0.9c-6.1-3.4-12.8-5.3-19.7-5.8c-5.5-0.3-8,5.4-10.5,9.4C456.7,625.2,450.2,637.1,447.9,636.3z"/>
<path class="sti10" d="M459.6,630.7c-4.9-1-9.7-3.7-12.3-8.1c-1.2-2.1-2.4-4.8-4.8-4.7c-2.2,0.1-3.2,2.7-3.7,4.9
	c-1.8,8-3.6,16.1-6.9,23.7s-8,14.7-14.7,19.4c-3.1,2.1-6.5,3.8-9.5,6c-2.7,2-5.1,4.5-8.1,6.1c-2,0.9-4.1,1.7-6.2,2.3
	c-3.1,1.1-6.1,2.5-8.9,4.3c-2.4,1.4-4.5,3.4-6,5.8c-1.5,2.4-1.7,5.5-0.5,8.1c1.3,2.1,3.5,3.6,5.9,4c2.4,0.4,4.9,0.5,7.3,0.2
	c9.7-0.7,19.4-1.6,29.1-2.4c4.1-0.3,8.2-0.8,12.2-1.7c2.1-0.5,4.2-1.2,6.3-1.7c3.6-0.9,7.3-1.5,11.1-1.6c1.1-0.1,2.2,0,3.2,0.3
	c2.2,0.7,3.8,3,6.2,3.4c1.5,0.1,3-0.1,4.4-0.6c7-1.9,14.3-1.9,21.6-2.2c3.2-0.2,6.9-0.8,8.4-3.6c1.8-3.6-1.2-7.5-2.4-11.3
	c-0.6-2.4-0.9-4.9-1-7.4c-0.6-6.2-2.4-12.2-5.3-17.7c-2.5-4.5-5.8-9.6-4.1-14.4c0.6-1.7,1.8-3.2,1.6-4.9
	C482,628.9,464.1,631.6,459.6,630.7z"/>
<path class="sti11" d="M637.1,494c-9.4-4.2-17-11.7-21.2-21.1c-0.9-2-1.6-4.1-2.5-6.2c-2.8-6.8-7.1-12.8-12.7-17.6
	c-1.4-1.2-3-2.3-4.7-2c-1.6,0.3-2.9,1.9-3.5,3.7c-0.5,1.9-0.6,3.8-0.4,5.7c0.5,4.5,1.2,8.9,2.3,13.3l2.6,11.8
	c0.3,1.8,0.9,3.6,1.6,5.2c1.1,2,2.6,3.7,4.3,5.2c2.4,2.2,4.8,4.3,7.2,6.3c3.4,3.2,7.8,5.2,12.5,5.5c10.6,2,21.3,4.8,30.2,11.7
	c-0.1-0.1,0-7.9-0.2-8.8c-0.4-2.4-0.7-4.7-2.3-6.3C647,496.9,641.3,495.9,637.1,494z"/>
<path class="sti3" d="M637.1,494c-9.4-4.2-17-11.7-21.2-21.1c-0.9-2-1.6-4.1-2.5-6.2c-2.8-6.8-7.1-12.8-12.7-17.6
	c-1.4-1.2-3-2.3-4.7-2c-1.6,0.3-2.9,1.9-3.5,3.7c-0.5,1.9-0.6,3.8-0.4,5.7c0.5,4.5,1.2,8.9,2.3,13.3l2.6,11.8
	c0.3,1.8,0.9,3.6,1.6,5.2c1.1,2,2.6,3.7,4.3,5.2c2.4,2.2,4.8,4.3,7.2,6.3c3.4,3.2,7.8,5.2,12.5,5.5c10.6,2,21.3,4.8,30.2,11.7
	c-0.1-0.1,0-7.9-0.2-8.8c-0.4-2.4-0.7-4.7-2.3-6.3C647,496.9,641.3,495.9,637.1,494z"/>
<ellipse class="sti10" cx="745.5" cy="391" rx="12.9" ry="13"/>
<path class="sti10" d="M737.5,383.1c-3.5-0.4-7.4-0.7-10.2,1.5c-1.5,1.3-2.7,2.9-3.5,4.8c-2.7,5.1-5.4,10.3-6.7,15.9
	c-1.2,4.8-1.3,9.7-2.8,14.4c-2.7,8.7-9.5,16-10.2,25c-0.3,4,0.3,8.8-2.6,11.6c-0.7,0.6-1.5,1.2-2.3,1.7c-2,1.4-3.8,3.2-5.1,5.2
	c-1.1,1.8-2,3.8-3.6,5c-2.6,2-7,1.8-8.3,4.8c-1.3,3.1,2.1,6.6,1.3,9.8c-0.6,2.7-3.6,3.9-5.7,5.7c-2.6,2.3-3.8,5.8-4.9,9.2
	c-8.8,1.7-17.8-0.6-24.8-6.2c3.6,8.9,3.7,18.7,3.8,28.3c0.1,3.1,0,6.6-2.3,8.8c10.3,0.2,20.4,3,30.4,5.3c4.4,1,9.2,1.9,13.3,0
	c2.3-1.2,4.4-2.9,6.1-4.8c5.5-5.5,11.2-11.6,12.6-19.3c0.8-4.3,0-8.7,0.2-13.1c0.2-5.4,1.9-10.7,3.3-15.9
	c2.9-10.7,4.8-21.7,5.8-32.7c0.6-6.8,6.5-12.3,9.6-18.4c5.9-11.5,11.8-23.5,12.3-36.4C743.2,388.8,741.8,383.6,737.5,383.1z"/>
<path class="sti3" d="M737.5,383.1c-3.5-0.4-7.4-0.7-10.2,1.5c-1.5,1.3-2.7,2.9-3.5,4.8c-2.7,5.1-5.4,10.3-6.7,15.9
	c-1.2,4.8-1.3,9.7-2.8,14.4c-2.7,8.7-9.5,16-10.2,25c-0.3,4,0.3,8.8-2.6,11.6c-0.7,0.6-1.5,1.2-2.3,1.7c-2,1.4-3.8,3.2-5.1,5.2
	c-1.1,1.8-2,3.8-3.6,5c-2.6,2-7,1.8-8.3,4.8c-1.3,3.1,2.1,6.6,1.3,9.8c-0.6,2.7-3.6,3.9-5.7,5.7c-2.6,2.3-3.8,5.8-4.9,9.2
	c-8.8,1.7-17.8-0.6-24.8-6.2c3.6,8.9,3.7,18.7,3.8,28.3c0.1,3.1,0,6.6-2.3,8.8c10.3,0.2,20.4,3,30.4,5.3c4.4,1,9.2,1.9,13.3,0
	c2.3-1.2,4.4-2.9,6.1-4.8c5.5-5.5,11.2-11.6,12.6-19.3c0.8-4.3,0-8.7,0.2-13.1c0.2-5.4,1.9-10.7,3.3-15.9
	c2.9-10.7,4.8-21.7,5.8-32.7c0.6-6.8,6.5-12.3,9.6-18.4c5.9-11.5,11.8-23.5,12.3-36.4C743.2,388.8,741.8,383.6,737.5,383.1z"/>
<path class="sti10" d="M725.4,590.6c-11.1-5.3-19.2-15.1-28.2-23.5c-17.1-16.1-38-27.4-56-42.5c-11.9-10-22.6-21.6-35.7-30
	c-11.5-7.4-24.6-11.9-38.2-13.4c-1.6-0.3-3.2-0.2-4.7,0.2c-1.7,0.8-3.2,1.9-4.4,3.4c-5.8,6.6-11,13.7-15.4,21.2
	c-22.8,38.7-55.2,71.3-82.1,107.3c-1.8,1.8-1.9,4.6-0.3,6.5l5.5,10.7c3.1,6,8,13,14.5,11.8c3-0.5,5.4-2.8,7.6-4.9l24.5-23.4
	l25.7-24.6c15.1-14.4,30.4-29.1,40.2-47.5c7.7,13.3,21.3,22,30.6,34.2c3.6,4.6,6.5,9.7,9.6,14.6c5.1,7.9,10.9,15.2,16.6,22.6
	l29.5,37.6c4,5.1,8.2,10.4,13.7,13.8c7,4.4,15.5,5.6,23.7,6.3c11.1,1,22.2,1.4,33.3,1.2c8.5-0.1,17.2-0.7,24.8-4.5
	s13.9-11.5,13.5-20c-0.2-4.4-2.1-8.6-4.2-12.5C758.9,616.1,745.2,600.1,725.4,590.6z"/>
<ellipse class="sti10" cx="753.5" cy="400" rx="10" ry="10"/>
<path class="sti11" d="M751.3,392.5c2.4,4.3,2.4,9.6,1.1,14.4s-3.9,9-6.4,13.3c-2.5,4.2-5,8.4-8.3,11.9c15.4,0.7,30.3-5.3,43.8-12.6
	c10.9-5.9,21.8-13.1,27.6-24.1c-3.4,1-7.2,0-10.2-1.9c-2.9-2-5.6-4.5-7.8-7.3l-7.7-8.7c-1.8-1.9-3.4-4-4.7-6.2
	c-1.7-3.1-2.4-6.6-2-10.1c-3.1,3.2-6.5,6.1-10.2,8.5c-5.5,3.6-11.6,6.2-17.1,9.8c-2,1.3-6.3,3.3-5.2,5.9
	C745.2,387.8,749.7,389.8,751.3,392.5z"/>
<path class="sti3" d="M751.3,392.5c2.4,4.3,2.4,9.6,1.1,14.4s-3.9,9-6.4,13.3c-2.5,4.2-5,8.4-8.3,11.9c15.4,0.7,30.3-5.3,43.8-12.6
	c10.9-5.9,21.8-13.1,27.6-24.1c-3.4,1-7.2,0-10.2-1.9c-2.9-2-5.6-4.5-7.8-7.3l-7.7-8.7c-1.8-1.9-3.4-4-4.7-6.2
	c-1.7-3.1-2.4-6.6-2-10.1c-3.1,3.2-6.5,6.1-10.2,8.5c-5.5,3.6-11.6,6.2-17.1,9.8c-2,1.3-6.3,3.3-5.2,5.9
	C745.2,387.8,749.7,389.8,751.3,392.5z"/>
<path class="sti12" d="M751.5,394c-2.9,4.9-3.5,10.6,0,15c0.4,0.6,2.1,4,2.8,4c0.7-0.1,1.3-0.4,1.8-0.9c3.7-3.4,6.5-7.8,9.7-11.6
	s7.4-7.4,12.4-8.1c6-0.9,11.8,2.3,17.1,5.3c2.2,1.3,4.5,2.6,5.8,4.8c1.1,2,1.8,4.2,1.9,6.5c1.8,13.7,1.8,27.6,1.7,41.4
	c0,10-0.1,20.1-2,29.9c-1,5.1-2.4,10.1-3.1,15.2c-0.5,4.5-0.7,9.1-0.6,13.6l0,19c-0.1,3.5,0.1,7,0.7,10.4c0.9,4.2,2.9,8,4.2,12.1
	c1.4,4.7,2.3,9.4,2.8,14.3l2.6,19.7c0.8,6.2,1.4,13-2.3,18c-1.7,2.3-3.9,4.1-5.6,6.3c-6.4,8.4-4.4,20.4-7.1,30.6
	c-2.1,7.5-6.5,14.2-12.5,19.2c-4.6,3.9-10.5,7-16.5,5.9c-8-1.5-12.8-9.8-15-17.7s-3-16.5-7.7-23.1c-3.9-5.4-9.8-8.9-15.2-12.7
	s-10.7-8.9-11.9-15.5c-0.5-2.9-0.2-5.8-0.5-8.7c-0.9-7.5-5.8-13.9-12.7-16.7c-4.1-1.6-9.2-2.2-11.5-5.9c6-3.4,9.9-9.6,12-16.1
	s2.5-13.5,2.9-20.3l1.4-22.9c0.6-10.2,0.9-20.4,5.4-29.6c2-4.1,4.5-8,6.6-12c2.8-5.7,5.1-11.6,7.1-17.6c3.3-9.4,6.5-18.8,9.4-28.3
	c1.4-4.5,2.7-9.1,5.2-13.2S746.9,394.9,751.5,394z"/>
<path class="sti10" d="M700.6,542.8l6.1,0.2l1.3-9.2c0.2-1.8,0.6-3.6,1.3-5.3c1-1.8,2.2-3.5,3.5-5.1c6-8.4,5.5-19.6,7-29.8
	c2-13.6,7.7-26.4,13.3-39l11.8-26.2c2.3-4.5,3.5-9.4,3.3-14.5c0.1-4.1,1.3-18.8,1.4-22.9c0-1.5-3.3-0.7-4-2c-1.5-2.9-3.5,5-6.2,6.7
	s-4.3,4.9-5.4,7.9c-2.5,6.6-4.1,13.5-6.4,20.2c-2.4,6.7-5.7,13.2-11,17.9c-2.4,2.1-5.2,3.8-7.5,6c-7.3,7.2-8,18.7-8.3,29
	C700.5,482.9,699.3,542.8,700.6,542.8z"/>
<path class="sti10" d="M787.9,383.1c-5.9,2.3-9.1,8.7-10.8,14.8s-2.3,12.7-5.5,18.2c-7.4,12.9-26.2,16.6-31.4,30.5
	c-1.7,4.5-1.6,9.5-2.1,14.4c-0.9,10-4.2,19.6-5.2,29.5c-0.7,7.7-0.1,15.5,0.5,23.2l6.6,78.5c1,11.3,0.9,23.5-2,34.5
	c6.7,1.3,13.6-0.4,19.8-3.3s11.8-6.7,17.8-10c10.2-5.6,21.5-9.6,30.5-17.2c1.6-1.3,3-2.8,4.1-4.5c1.8-3.1,1.9-6.9,2.8-10.3
	c0.8-2.8,1.8-5.5,3-8.1c3.3-7.9,6.1-16,8.6-24.2c1.7-5.5,3-11,3.9-16.6c0.7-4.5,1.1-9,1.5-13.5c0.5-7.1,1.9-14.1,4.2-20.8
	c5.7-16,9-32.8,9.6-49.7c0.2-2.5,0-4.9-0.5-7.3c-0.8-3-2.5-5.6-4-8.3c-2.7-5.2-4.4-10.8-7-16.1c-5.8-11.8-16.1-20.8-26.9-28.3
	C800.1,384.8,793.9,380.7,787.9,383.1z"/>
<path class="sti11" d="M650.2,511.2c-4.6-2.7-9.1-5.5-12.5-9.5c-1.6-1.9-3-4.1-4.7-6c-4.1-4.6-9.8-7.5-15.8-9s-12.1-1.7-18.3-1.8
	c-4.1,0-8.3,0-12.2,1.5s-7.3,4.6-8.1,8.6c-0.9,4.9,2.3,9.6,6.1,12.8c3.6,2.9,7.8,4.9,12.3,5.9c3.7,0.6,7.4,1.1,11.1,1.3
	c21.8,2.3,41.3,14.2,60.4,25c16.8,9.5,33.9,18.4,51.3,26.6c0.7-5.2,1-10.5,0.9-15.8c-0.1-3.9-0.3-9.9-4-12.2
	c-4.3-2.7-11.5-3.3-16.3-4.9c-11.2-3.7-22.2-8.1-32.8-13.3C661.7,517.6,655.9,514.5,650.2,511.2z"/>
<ellipse class="sti11" cx="745.5" cy="348.9" rx="38.8" ry="39.1"/>
<path class="sti10" d="M799,427.4c-3.5,4-5.2,9.3-7.5,14.1c-4.8,9.9-12.3,18.4-16.1,28.7c-4,10.9-3.8,23.8-11.6,32.4
	c-1.4,1.5-3,2.9-3.4,4.9c-0.2,1.2,0,2.4-0.4,3.6c-1.1,3.1-6.2,3.3-7.2,6.4c-0.3,0.9-0.1,2-0.5,2.9c-0.8,2-3.5,2.4-5.3,3.6
	c-3.8,2.6-3,8.5-5.7,12.2c-2.1,2.9-6.1,3.9-9.7,3.4s-6.8-2.2-10.1-3.8c-1.1-0.6-2.3-1-3.6-1.1c-1.5,0.1-3,0.5-4.2,1.4
	c-7.2,4.6-10.5,13.6-10.5,22.1s3,16.8,6,24.7c0.4,1.3,1.1,2.6,2,3.7c2.4,2.5,6.5,2.1,9.7,0.7s6-3.6,9.4-4.2c6-1.1,11.9,3,18,2.7
	c4.5-0.2,8.4-2.8,12.1-5.4c5.9-4,12-8.1,16.3-13.8c2.7-3.5,4.6-7.5,6.9-11.2c3-4.6,6.3-8.9,9.8-13.1l22.4-27.4
	c5.4-5.9,9.1-13.1,10.7-20.8c2.1-7.3,4.3-14.7,4.6-22.3c0.3-6.3-0.6-12.5-1.6-18.7c-1-6.1-2.1-12.2-4.8-17.8
	C820,425.1,808.1,416.7,799,427.4z"/>
<circle class="sti10" cx="812" cy="264.2" r="49"/>
<path class="sti10" d="M854.3,304.8c-21.9,15.9-52.6,10.9-68.5-11c-3.2-4.5-5.7-9.4-7.3-14.7c3.4,26.9,27.9,45.9,54.8,42.5
	c26.9-3.4,45.9-27.9,42.5-54.8c-0.3-2.7-0.9-5.3-1.7-7.9C876.5,276.8,868.8,294.3,854.3,304.8z"/>
<circle class="sti10" cx="772" cy="336.9" r="36"/>
<ellipse class="sti10" cx="741.8" cy="323.5" rx="31.9" ry="24.9"/>
<ellipse transform="matrix(0.7759 -0.6309 0.6309 0.7759 -60.7606 553.9752)" class="sti11" cx="749.3" cy="362.5" rx="5" ry="7.5"/>
<path class="sti13" d="M714.3,680.6c0,17.4-10.4,23.5-23.1,23.5c-0.3,0-0.6,0-0.9,0c-0.6,0-1.2,0-1.8-0.1
	c-11.5-0.8-20.5-7.2-20.5-23.4c0-16.8,21.4-37.9,23-39.5l0,0c0.1-0.1,0.1-0.1,0.1-0.1S714.3,663.2,714.3,680.6z"/>
<path class="sti1" d="M690.3,701.4l8.5-11.8l-8.5,13.1l0,1.4c-0.6,0-1.2,0-1.8-0.1l0.9-17.4l0-0.1l0,0l0.1-1.6l-8.5-13.1l8.5,11.9
	l0,0.3l0.7-13.2l-7.3-13.6l7.4,11.3l0.7-27.3l0-0.1v0.1l-0.1,21.5l7.2-8.5l-7.3,10.4l-0.2,11.8l6.8-11.3l-6.8,13l-0.1,6.6l9.8-15.7
	l-9.9,18L690.3,701.4z"/>
</svg>
