


<?xml version="1.0" encoding="utf-8"?>
<!-- Generator: Adobe Illustrator 18.0.0, SVG Export Plug-In . SVG Version: 6.00 Build 0)  -->
<!DOCTYPE svg PUBLIC "-//W3C//DTD SVG 1.1//EN" "http://www.w3.org/Graphics/SVG/1.1/DTD/svg11.dtd">
<svg version="1.1" id="Layer_1" xmlns="http://www.w3.org/2000/svg" xmlns:xlink="http://www.w3.org/1999/xlink" x="0px" y="0px"
	 width="128px" height="128px" viewBox="0 0 128 128" style="enable-background:new 0 0 128 128;" xml:space="preserve">
<style type="text/css">
	.sta0{fill:#EF4C45;}
	.sta1{clip-path:url(#SVGID_2_);fill:#D43032;}
	.sta2{fill:#32353A;}
	.sta3{clip-path:url(#SVGID_4_);fill:#4C505F;}
	.sta4{fill:#E4E8F1;}
	.sta5{fill:#333333;}
	.sta6{fill:#91C5EA;}
	.sta7{fill:#0484C0;}
	.sta8{fill:#FFFFFF;}
	.sta9{fill:#A62338;}
	.sta10{fill:#F7971D;}
	.sta11{fill:#2FA042;}
	.sta12{fill:#FFCD03;}
	.sta13{fill:#AAC737;}
	.sta14{fill:#3AC2E5;}
	.sta15{fill:#E51B23;}
	.sta16{clip-path:url(#SVGID_6_);fill:#C6D2DC;}
	.sta17{fill:#58555C;}
</style>
<g style="fill: rgb(0,94,184);">
	<circle fill="#EF4C45" class="sta0" cx="64" cy="64" r="64"/>
	<g>
		<defs>
			<circle id="SVGID_1_" cx="64" cy="64" r="64"/>
		</defs>
		<clipPath id="SVGID_2_">
			<use xlink:href="SVGID_1_"  style="overflow:visible;"/>
		</clipPath>
		<polygon fill="#D43032" class="sta1" points="22,91.6 58.5,128 128,128 128,68.4 94.4,35.1 37,60.4 		"/>
	</g>
	<g>
		<path  stroke-linecap="round" stroke-miterlimit="10"  stroke-width="15" fill='#32353A' class="sta2" d="M106.5,66.9c-2.2-9.4-7.2-23.1-8.3-25.1s-2.6-4.6-2.6-4.6s0-1.4-2.9-3.6s-8.9-3.5-11-3.6
			c-2.1-0.1-2.9,0.8-4,1.4S75,32,75,32H53c0,0-1.5,0-2.7-0.6s-1.9-1.5-4-1.4c-2.1,0.1-8.1,1.5-11,3.6s-2.9,3.6-2.9,3.6
			s-1.2,2.2-2.3,4.1c-1.1,1.9-6.1,16.1-8.2,25.5c-2.2,9.4-2.6,14.9-1,19.4s3.9,5.6,4.9,6.1s1.3,2.2,1.3,2.2s1.5-0.1,3.2-1.7
			c1.7-1.6,8.2-11,10.2-13.3s4.1-4.5,8-4.5c3.9,0,15.4,0,15.4,0s11.4,0,15.4,0c3.9,0,6,2.2,8,4.5s8.6,11.7,10.2,13.3
			c1.7,1.6,3.2,1.7,3.2,1.7s0.1-1.5,1.1-1.9s4-1.4,5.6-5.9S108.7,76.3,106.5,66.9z"/>
		<g>
			<defs>
				<path fill="none" id="SVGID_3_" d="M106.5,66.9c-2.2-9.4-7.2-23.1-8.3-25.1s-2.6-4.6-2.6-4.6s0-1.4-2.9-3.6s-8.9-3.5-11-3.6
					c-2.1-0.1-2.9,0.8-4,1.4S75,32,75,32H53c0,0-1.5,0-2.7-0.6s-1.9-1.5-4-1.4c-2.1,0.1-8.1,1.5-11,3.6s-2.9,3.6-2.9,3.6
					s-1.2,2.2-2.3,4.1c-1.1,1.9-6.1,16.1-8.2,25.5c-2.2,9.4-2.6,14.9-1,19.4s3.9,5.6,4.9,6.1s1.3,2.2,1.3,2.2s1.5-0.1,3.2-1.7
					c1.7-1.6,8.2-11,10.2-13.3s4.1-4.5,8-4.5c3.9,0,15.4,0,15.4,0s11.4,0,15.4,0c3.9,0,6,2.2,8,4.5s8.6,11.7,10.2,13.3
					c1.7,1.6,3.2,1.7,3.2,1.7s0.1-1.5,1.1-1.9s4-1.4,5.6-5.9S108.7,76.3,106.5,66.9z"/>
			</defs>
			<clipPath id="SVGID_4_">
				<use xlink:href="SVGID_3_" style="overflow:visible;"/>
			</clipPath>
			<polygon class="sta3" fill="#4C505F"  points="75.4,31 53,31 49.1,37.5 54.9,43 73.5,43 79.3,37.5 			"/>
		</g>
		<path fill="#E4E8F1" fill="#E4E8F1" class="st4" d="M107.7,66.8c-2.2-9.4-7.8-23.9-8.8-25.8c-1.1-1.9-3.4-3.8-3.4-3.8c-4.1-3-9.8-4.2-12.3-4.4s-3.7,1.6-3.7,1.6
			s-3.7,3.9-5.4,5.8C72.3,42.1,71,42,71,42H57c0,0-1.3,0.1-3.1-1.8c-1.8-1.9-5.4-5.8-5.4-5.8s-1.2-1.8-3.7-1.6s-8.2,1.4-12.3,4.4
			c0,0-2.3,1.9-3.4,3.8c-1.1,1.9-6.6,16.4-8.8,25.8c-2.2,9.4-2.6,15.9-1,20.4s5.4,6.4,6.4,6.8s1.5,0.5,1.5,0.5s4.1-5,8.4-11.1
			c2.1-3,4.8-6.6,6.5-8c1.7-1.4,4.1-2.4,7.9-2.4c3.8,0,14-0.1,14-0.1s10.2,0.1,14,0.1c3.8,0,6.2,1,7.9,2.4c1.7,1.4,4.4,5,6.5,8
			c4.3,6.1,8.4,11.1,8.4,11.1s0.5,0,1.5-0.5s4.8-2.3,6.4-6.8S109.9,76.2,107.7,66.8z"/>
		<circle class="#333333" cx="70.9" cy="46.9" r="2"/>
		<circle class="#91C5EA" cx="64.4" cy="37" r="2.9"/>
		<circle class="sta5" cx="57.7" cy="46.9" r="2"/>
		<circle class="#0484C0" cx="81.4" cy="46.9" r="3"/>
		<circle class="#FFFFFF" cx="74.4" cy="60" r="7.4"/>
		<circle class="#FFFFFF" cx="41.4" cy="46.9" r="7.6"/>
		<circle class="#A62338" cx="93.9" cy="46.9" r="3"/>
		<circle class="#F7971D" cx="87.9" cy="40.9" r="3"/>
		<circle class="#2FA042" cx="87.9" cy="52.9" r="3"/>
		<circle class="#FFCD03" cx="87.9" cy="40.9" r="1.5"/>
		<circle class="#AAC737" cx="87.9" cy="52.9" r="1.5"/>
		<circle class="#3AC2E5" cx="81.4" cy="46.9" r="1.5"/>
		<circle class="#E51B23" cx="93.9" cy="46.9" r="1.5"/>
		<circle class="#E4E8F1" cx="57.7" cy="46.9" r="0.7"/>
		<circle class="#E4E8F1" cx="70.9" cy="46.9" r="0.7"/>
		<g>
			<defs>
				<path fill="none" id="SVGID_5_" d="M107.7,66.8c-2.2-9.4-7.8-23.9-8.8-25.8c-1.1-1.9-3.4-3.8-3.4-3.8c-4.1-3-9.8-4.2-12.3-4.4
					s-3.7,1.6-3.7,1.6s-3.7,3.9-5.4,5.8C72.3,42.1,71,42,71,42H57c0,0-1.3,0.1-3.1-1.8c-1.8-1.9-5.4-5.8-5.4-5.8s-1.2-1.8-3.7-1.6
					s-8.2,1.4-12.3,4.4c0,0-2.3,1.9-3.4,3.8c-1.1,1.9-6.6,16.4-8.8,25.8c-2.2,9.4-2.6,15.9-1,20.4s5.4,6.4,6.4,6.8s1.5,0.5,1.5,0.5
					s4.1-5,8.4-11.1c2.1-3,4.8-6.6,6.5-8c1.7-1.4,4.1-2.4,7.9-2.4c3.8,0,14-0.1,14-0.1s10.2,0.1,14,0.1c3.8,0,6.2,1,7.9,2.4
					c1.7,1.4,4.4,5,6.5,8c4.3,6.1,8.4,11.1,8.4,11.1s0.5,0,1.5-0.5s4.8-2.3,6.4-6.8S109.9,76.2,107.7,66.8z"/>
			</defs>
			<clipPath id="SVGID_6_">
				<use xlink:href="#SVGID_5_"  style="overflow:visible;"/>
			</clipPath>
			<polygon fill="#C6D2DC" clip-path=url('#SVGID_6_') class="sta16" points="37.1,50.6 60.4,73.9 84.4,95.4 100.4,95.9 107.7,94.5 110,87.9 78.8,56.6 70.5,64 100.7,94.5 
				97.7,95.2 45.5,43.1 			"/>
		</g>
		<circle class="#FFFFFF" cx="52.2" cy="61.4" r="8.3"/>
		<g>
			<path fill="#333333" class="sta5" d="M54.6,55.9c0-0.5-0.3-0.9-0.8-1c-0.5-0.1-1.1-0.2-1.7-0.2c-0.6,0-1.1,0.1-1.7,0.2c-0.5,0.1-0.8,0.5-0.8,1v2
				c0,0.6-0.4,1-1,1h-2c-0.5,0-0.9,0.3-1,0.8c-0.1,0.5-0.2,1.1-0.2,1.7c0,0.6,0.1,1.1,0.2,1.7c0.1,0.5,0.5,0.8,1,0.8h2
				c0.6,0,1,0.4,1,1v2c0,0.5,0.3,0.9,0.8,1c0.5,0.1,1.1,0.2,1.7,0.2c0.6,0,1.1-0.1,1.7-0.2c0.5-0.1,0.8-0.5,0.8-1v-2
				c0-0.6,0.4-1,1-1h2c0.5,0,0.9-0.3,1-0.8c0.1-0.5,0.2-1.1,0.2-1.7c0-0.6-0.1-1.1-0.2-1.7c-0.1-0.5-0.5-0.8-1-0.8h-2
				c-0.6,0-1-0.4-1-1V55.9z"/>
		</g>
		<path fill="#E4E8F1" class="sta4" d="M52.2,56.1l-0.9,1.5h1.9L52.2,56.1z M52.3,66.7l0.9-1.5h-1.9L52.3,66.7z M48.5,62.4v-1.9l-1.5,1L48.5,62.4z
			 M56,60.5v1.9l1.5-1L56,60.5z M52.2,60.3c-0.6,0-1.1,0.5-1.1,1.1c0,0.6,0.5,1.1,1.1,1.1c0.6,0,1.1-0.5,1.1-1.1
			C53.2,60.8,52.8,60.3,52.2,60.3z"/>
		<g>
			<path fill="#58555C" class="sta17" d="M74.4,64.6c-2.5,0-4.6-2.1-4.6-4.6c0-2.5,2.1-4.6,4.6-4.6c2.5,0,4.6,2.1,4.6,4.6
				C79,62.5,76.9,64.6,74.4,64.6z"/>
			<g>
				<path fill="#333333" class="sta5" d="M74.4,56.4c2,0,3.6,1.6,3.6,3.6c0,2-1.6,3.6-3.6,3.6c-2,0-3.6-1.6-3.6-3.6C70.8,58,72.4,56.4,74.4,56.4
					 M74.4,54.4c-3.1,0-5.6,2.5-5.6,5.6c0,3.1,2.5,5.6,5.6,5.6c3.1,0,5.6-2.5,5.6-5.6C80,56.9,77.5,54.4,74.4,54.4L74.4,54.4z"/>
			</g>
		</g>
		<g>
			<path fill="#58555C" class="sta17" d="M41.4,51.6c-2.6,0-4.7-2.1-4.7-4.7c0-2.6,2.1-4.7,4.7-4.7c2.6,0,4.7,2.1,4.7,4.7
				C46.1,49.5,44,51.6,41.4,51.6z"/>
			<path fill="#333333" class="sta5" d="M41.4,43.3c2,0,3.7,1.6,3.7,3.7s-1.6,3.7-3.7,3.7c-2,0-3.7-1.6-3.7-3.7S39.4,43.3,41.4,43.3 M41.4,41.3
				c-3.1,0-5.7,2.5-5.7,5.7s2.5,5.7,5.7,5.7c3.1,0,5.7-2.5,5.7-5.7S44.5,41.3,41.4,41.3L41.4,41.3z"/>
		</g>
	</g>
</g>
</svg>
