b<?xml version="1.0" encoding="utf-8"?>
<!-- Generator: Adobe Illustrator 18.0.0, SVG Export Plug-In . SVG Version: 6.00 Build 0)  -->
<!DOCTYPE svg PUBLIC "-//W3C//DTD SVG 1.1//EN" "http://www.w3.org/Graphics/SVG/1.1/DTD/svg11.dtd">
<svg version="1.1" id="Layer_1" xmlns="http://www.w3.org/2000/svg" xmlns:xlink="http://www.w3.org/1999/xlink" x="0px" y="0px"
	 width="128px" height="128px" viewBox="0 0 128 128" style="enable-background:new 0 0 128 128;" xml:space="preserve">
<style type="text/css">
	.stb0{fill:#00B1A7;}
	.stb1{clip-path:url(#SVGID_2_);}
	.stb2{opacity:0.35;fill:#007C91;}
	.stb3{opacity:0.35;fill:#007289;}
	.stb4{fill:#FFE3A7;}
	.stb5{fill:#59515C;}
	.stb6{opacity:0.46;fill:#A05B41;}
	.stb7{fill:#F1F8F5;}
	.stb8{fill:#D22027;}
	.stb9{fill:#FCB813;}
	.stb10{fill:#3A3F48;}
	.stb11{fill:#8A7967;}
	.stb12{fill:#6D8793;}
</style>
<g>
	<circle class="stb0" cx="64" cy="64" r="64"/>
	<g>
		<defs>
			<circle id="SVGID_1_" cx="64" cy="64" r="64"/>
		</defs>
		<clipPath id="SVGID_2_">
			<use xlink:href="#SVGID_1_"  style="overflow:visible;"/>
		</clipPath>
		<g class="stb1">
			<polygon class="st2" points="34,99.9 62,128 128,128 128,65.8 84.3,22.3 			"/>
			<polygon class="st3" points="34,99.9 62,128 128,128 128,78.8 103.4,54.5 			"/>
		</g>
	</g>
	<g>
		<path class="stb4" d="M94.8,67.6L35.5,86.9c-2.4,0.8-5-0.5-5.8-2.9L17.4,46.3c-0.8-2.4,0.5-5,2.9-5.8l59.4-19.4
			c2.4-0.8,5,0.5,5.8,2.9l12.3,37.7C98.6,64.2,97.2,66.8,94.8,67.6z"/>
		<rect x="19" y="40.2" transform="matrix(0.9506 -0.3103 0.3103 0.9506 -11.4712 19.2741)" class="stb5" width="71.6" height="11"/>
		<path class="st6" d="M85.2,56.1l4.4-1.4c0.5-0.2,0.8-0.7,0.6-1.3l-2.3-7.1c-0.2-0.5-0.7-0.8-1.3-0.6L82.2,47
			c-0.5,0.2-0.8,0.7-0.6,1.3l2.3,7.1C84.1,55.9,84.6,56.2,85.2,56.1z"/>
		<path class="stb6" d="M56.1,65.5l24.3-7.9c0.5-0.2,0.8-0.7,0.6-1.3l-2.3-7.1c-0.2-0.5-0.7-0.8-1.3-0.6l-24.3,7.9
			c-0.5,0.2-0.8,0.7-0.6,1.3l2.3,7.1C55,65.4,55.6,65.7,56.1,65.5z"/>
	</g>
	<g>
		<path class="stb7" d="M100,101.7H37.5c-2.5,0-4.6-2.1-4.6-4.6V57.5c0-2.5,2.1-4.6,4.6-4.6H100c2.5,0,4.6,2.1,4.6,4.6v39.6
			C104.5,99.6,102.5,101.7,100,101.7z"/>
		<circle class="stb8" cx="91.5" cy="66.6" r="6.3"/>
		<circle class="stb9" cx="83.1" cy="66.6" r="6.3"/>
		<g>
			<path class="stb10" d="M40,86c0,0.3,0.1,0.4,0.3,0.5c0.1,0.1,0.2,0.1,0.3,0.1c0.2,0,0.4-0.1,0.6-0.3c0.2-0.2,0.3-0.6,0.3-1.1
				c-0.1,0.2-0.2,0.3-0.4,0.3c-0.1,0.1-0.3,0.1-0.5,0.1c-0.4,0-0.6-0.1-0.8-0.3c-0.2-0.2-0.3-0.5-0.3-0.8c0-0.3,0.1-0.6,0.3-0.9
				c0.2-0.3,0.5-0.4,0.9-0.4c0.5,0,0.9,0.2,1.1,0.7c0.1,0.3,0.2,0.6,0.2,1c0,0.4-0.1,0.8-0.2,1.2c-0.2,0.6-0.6,0.9-1.1,0.9
				c-0.4,0-0.6-0.1-0.8-0.3c-0.2-0.2-0.3-0.4-0.3-0.7H40z M41.2,85.1c0.1-0.1,0.2-0.3,0.2-0.6c0-0.3-0.1-0.5-0.2-0.6
				c-0.1-0.1-0.3-0.2-0.5-0.2c-0.2,0-0.4,0.1-0.5,0.2c-0.1,0.1-0.2,0.3-0.2,0.6c0,0.2,0.1,0.4,0.2,0.6c0.1,0.1,0.3,0.2,0.6,0.2
				C40.9,85.3,41.1,85.2,41.2,85.1z"/>
			<path class="stb10" d="M42.7,84.8c-0.1-0.1-0.2-0.3-0.2-0.5c0-0.3,0.1-0.5,0.3-0.7c0.2-0.2,0.5-0.3,0.8-0.3c0.3,0,0.6,0.1,0.8,0.3
				c0.2,0.2,0.3,0.4,0.3,0.6c0,0.2-0.1,0.4-0.2,0.6c-0.1,0.1-0.2,0.2-0.3,0.2c0.2,0.1,0.3,0.1,0.4,0.2c0.2,0.2,0.2,0.4,0.2,0.7
				c0,0.3-0.1,0.6-0.3,0.8c-0.2,0.2-0.5,0.3-0.9,0.3c-0.4,0-0.7-0.1-0.9-0.3c-0.2-0.2-0.4-0.5-0.4-0.8c0-0.2,0.1-0.4,0.2-0.6
				c0.1-0.2,0.3-0.3,0.5-0.4C42.9,84.9,42.8,84.9,42.7,84.8z M44.2,86.4c0.1-0.1,0.2-0.3,0.2-0.5c0-0.2-0.1-0.4-0.2-0.5
				c-0.1-0.1-0.3-0.2-0.6-0.2c-0.2,0-0.4,0.1-0.5,0.2c-0.1,0.1-0.2,0.3-0.2,0.5c0,0.2,0.1,0.4,0.2,0.5c0.1,0.1,0.3,0.2,0.6,0.2
				C43.9,86.6,44.1,86.5,44.2,86.4z M44.1,84.6c0.1-0.1,0.2-0.2,0.2-0.4c0-0.1-0.1-0.3-0.2-0.4c-0.1-0.1-0.3-0.2-0.5-0.2
				c-0.2,0-0.4,0.1-0.5,0.2C43.1,84,43,84.1,43,84.3c0,0.2,0.1,0.3,0.2,0.4c0.1,0.1,0.3,0.1,0.4,0.1C43.8,84.8,44,84.7,44.1,84.6z"
				/>
			<path class="stb10" d="M45.5,86.7c-0.2-0.2-0.3-0.5-0.3-0.9h0.5c0,0.2,0.1,0.4,0.1,0.5c0.1,0.2,0.3,0.3,0.6,0.3
				c0.2,0,0.4-0.1,0.6-0.2c0.1-0.1,0.2-0.3,0.2-0.5c0-0.3-0.1-0.4-0.2-0.5c-0.2-0.1-0.4-0.1-0.6-0.1c0,0-0.1,0-0.1,0
				c0,0-0.1,0-0.1,0v-0.4c0,0,0.1,0,0.1,0s0.1,0,0.1,0c0.2,0,0.3,0,0.4-0.1c0.2-0.1,0.3-0.3,0.3-0.5c0-0.2-0.1-0.3-0.2-0.4
				c-0.1-0.1-0.3-0.1-0.4-0.1c-0.3,0-0.5,0.1-0.6,0.3c-0.1,0.1-0.1,0.3-0.1,0.5h-0.5c0-0.3,0.1-0.5,0.2-0.7c0.2-0.3,0.5-0.5,1-0.5
				c0.4,0,0.7,0.1,0.9,0.2c0.2,0.2,0.3,0.4,0.3,0.7c0,0.2-0.1,0.4-0.2,0.5c-0.1,0.1-0.2,0.2-0.3,0.2c0.2,0.1,0.3,0.2,0.4,0.3
				c0.1,0.2,0.2,0.3,0.2,0.5c0,0.3-0.1,0.6-0.3,0.8c-0.2,0.2-0.6,0.3-1,0.3C46,87,45.7,86.9,45.5,86.7z"/>
			<path class="stb10" d="M48.4,86.1c0.1-0.2,0.3-0.4,0.7-0.6l0.5-0.3c0.2-0.1,0.4-0.2,0.5-0.3c0.1-0.1,0.2-0.3,0.2-0.5
				c0-0.2-0.1-0.4-0.2-0.5c-0.1-0.1-0.3-0.2-0.5-0.2c-0.3,0-0.5,0.1-0.6,0.4c-0.1,0.1-0.1,0.3-0.1,0.5h-0.5c0-0.3,0.1-0.6,0.2-0.8
				c0.2-0.4,0.5-0.5,1-0.5c0.4,0,0.7,0.1,0.9,0.3c0.2,0.2,0.3,0.5,0.3,0.8c0,0.3-0.1,0.5-0.3,0.7c-0.1,0.1-0.3,0.3-0.6,0.4l-0.3,0.2
				c-0.2,0.1-0.3,0.2-0.4,0.3c-0.2,0.1-0.3,0.3-0.3,0.5h2v0.4h-2.5C48.2,86.6,48.3,86.3,48.4,86.1z"/>
			<path class="stb10" d="M55.7,84.3V84c0.3,0,0.6-0.1,0.7-0.2c0.1-0.1,0.2-0.3,0.3-0.5h0.4v3.6h-0.5v-2.6H55.7z"/>
			<path class="stb10" d="M58.2,84.3V84c0.3,0,0.6-0.1,0.7-0.2c0.1-0.1,0.2-0.3,0.3-0.5h0.4v3.6h-0.5v-2.6H58.2z"/>
			<path class="stb10" d="M61.1,84.8c-0.1-0.1-0.2-0.3-0.2-0.5c0-0.3,0.1-0.5,0.3-0.7c0.2-0.2,0.5-0.3,0.8-0.3c0.3,0,0.6,0.1,0.8,0.3
				c0.2,0.2,0.3,0.4,0.3,0.6c0,0.2-0.1,0.4-0.2,0.6c-0.1,0.1-0.2,0.2-0.3,0.2c0.2,0.1,0.3,0.1,0.4,0.2c0.2,0.2,0.2,0.4,0.2,0.7
				c0,0.3-0.1,0.6-0.3,0.8c-0.2,0.2-0.5,0.3-0.9,0.3c-0.4,0-0.7-0.1-0.9-0.3c-0.2-0.2-0.4-0.5-0.4-0.8c0-0.2,0.1-0.4,0.2-0.6
				c0.1-0.2,0.3-0.3,0.5-0.4C61.3,84.9,61.2,84.9,61.1,84.8z M62.6,86.4c0.1-0.1,0.2-0.3,0.2-0.5c0-0.2-0.1-0.4-0.2-0.5
				c-0.1-0.1-0.3-0.2-0.6-0.2c-0.2,0-0.4,0.1-0.5,0.2c-0.1,0.1-0.2,0.3-0.2,0.5c0,0.2,0.1,0.4,0.2,0.5c0.1,0.1,0.3,0.2,0.6,0.2
				C62.3,86.6,62.4,86.5,62.6,86.4z M62.5,84.6c0.1-0.1,0.2-0.2,0.2-0.4c0-0.1-0.1-0.3-0.2-0.4c-0.1-0.1-0.3-0.2-0.5-0.2
				c-0.2,0-0.4,b0.1-0.5,0.2c-0.1,0.1-0.1,0.2-0.1,0.4c0,0.2,0.1,0.3,0.2,0.4c0.1,0.1,0.3,0.1,0.4,0.1C62.2,84.8,62.4,84.7,62.5,84.6
				z"/>
			<path class="stb10" d="M64.2,86c0,0.3,0.1,0.4,0.3,0.5c0.1,0.1,0.2,0.1,0.3,0.1c0.2,0,0.4-0.1,0.6-0.3c0.2-0.2,0.3-0.6,0.3-1.1
				c-0.1,0.2-0.2,0.3-0.4,0.3c-0.1,0.1-0.3,0.1-0.5,0.1c-0.3,0-0.6-0.1-0.8-0.3c-0.2-0.2-0.3-0.5-0.3-0.8c0-0.3,0.1-0.6,0.3-0.9
				c0.2-0.3,0.5-0.4,0.9-0.4c0.5,0,0.9,0.2,1.1,0.7c0.1,0.3,0.2,0.6,0.2,1c0,0.4-0.1,0.8-0.2,1.2c-0.2,0.6-0.6,0.9-1.1,0.9
				c-0.4,0-0.6-0.1-0.8-0.3c-0.2-0.2-0.3-0.4-0.3-0.7H64.2z M65.4,85.1c0.1-0.1,0.2-0.3,0.2-0.6c0-0.3-0.1-0.5-0.2-0.6
				c-0.1-0.1-0.3-0.2-0.5-0.2c-0.2,0-0.4,0.1-0.5,0.2c-0.1,0.1-0.2,0.3-0.2,0.6c0,0.2,0.1,0.4,0.2,0.6c0.1,0.1,0.3,0.2,0.6,0.2
				C65.1,85.3,65.2,85.2,65.4,85.1z"/>
			<path class="stb10" d="M71.4,86c0,0.3,0.2,0.4,0.4,0.5c0.1,0.1,0.2,0.1,0.4,0.1c0.3,0,0.5-0.1,0.6-0.3c0.1-0.2,0.2-0.4,0.2-0.6
				c0-0.3-0.1-0.4-0.2-0.6C72.5,85,72.3,85,72.1,85c-0.2,0-0.3,0-0.4,0.1c-0.1,0.1-0.2,0.1-0.3,0.3l-0.4,0l0.3-2h1.9v0.4h-1.5
				l-0.2,1c0.1-0.1,0.2-0.1,0.2-0.1c0.1-0.1,0.3-0.1,0.5-0.1c0.3,0,0.6,0.1,0.8,0.3c0.2,0.2,0.3,0.5,0.3,0.8c0,0.3-0.1,0.6-0.3,0.9
				c-0.2,0.3-0.6,0.4-1,0.4c-0.3,0-0.6-0.1-0.8-0.3c-0.2-0.2-0.4-0.4-0.4-0.8H71.4z"/>
			<path class="stb10" d="M76,83.6c0.2,0.2,0.2,0.4,0.2,0.7h-0.5c0-0.1-0.1-0.3-0.1-0.3c-0.1-0.2-0.3-0.2-0.5-0.2
				c-0.3,0-0.5,0.1-0.6,0.4c-0.2,0.2-0.2,0.6-0.3,1c0.1-0.2,0.2-0.3,0.4-0.3c0.1-0.1,0.3-0.1,0.5-0.1c0.3,0,0.6,0.1,0.8,0.3
				c0.2,0.2,0.3,0.5,0.3,0.9c0,0.3-0.1,0.6-0.3,0.9c-0.2,0.3-0.5,0.4-0.9,0.4c-0.3,0-0.6-0.1-0.9-0.4c-0.2-0.3-0.4-0.7-0.4-1.3
				c0-0.5,0.1-0.8,0.2-1.1c0.2-0.6,0.6-0.9,1.2-0.9C75.5,83.3,75.8,83.4,76,83.6z M75.6,86.4c0.1-0.2,0.2-0.4,0.2-0.6
				c0-0.2-0.1-0.4-0.2-0.5c-0.1-0.2-0.3-0.3-0.6-0.3c-0.2,0-0.4,0.1-0.5,0.2c-0.1,0.1-0.2,0.3-0.2,0.6c0,0.2,0.1,0.4,0.2,0.6
				c0.1,0.2,0.3,0.2,0.6,0.2C75.3,86.6,75.5,86.5,75.6,86.4z"/>
			<path class="stb10" d="M79.2,83.3v0.4c-0.1,0.1-0.3,0.3-0.5,0.6c-0.2,0.3-0.4,0.6-0.5,0.9c-0.1,0.3-0.3,0.6-0.3,0.9
				c0,0.2-0.1,0.4-0.2,0.8h-0.5c0.1-0.7,0.4-1.4,0.8-2.1c0.2-0.4,0.5-0.7,0.7-1h-2v-0.5H79.2z"/>
			<path class="stb10" d="M79.8,86.7c-0.2-0.2-0.3-0.5-0.3-0.9H80c0,0.2,0.1,0.4,0.1,0.5c0.1,0.2,0.3,0.3,0.6,0.3
				c0.2,0,0.4-0.1,0.6-0.2c0.1-0.1,0.2-0.3,0.2-0.5c0-0.3-0.1-0.4-0.2-0.5c-0.2-0.1-0.4-0.1-0.6-0.1c0,0-0.1,0-0.1,0
				c0,0-0.1,0-0.1,0v-0.4c0,0,0.1,0,0.1,0c0,0,0.1,0,0.1,0c0.2,0,0.3,0,0.4-0.1c0.2-0.1,0.3-0.3,0.3-0.5c0-0.2-0.1-0.3-0.2-0.4
				c-0.1-0.1-0.3-0.1-0.4-0.1c-0.3,0-0.5,0.1-0.6,0.3c-0.1,0.1-0.1,0.3-0.1,0.5h-0.5c0-0.3,0.1-0.5,0.2-0.7c0.2-0.3,0.5-0.5,1-0.5
				c0.4,0,0.7,0.1,0.9,0.2c0.2,0.2,0.3,0.4,0.3,0.7c0,0.2-0.1,0.4-0.2,0.5c-0.1,0.1-0.2,0.2-0.3,0.2c0.2,0.1,0.3,0.2,0.4,0.3
				c0.1,0.2,0.2,0.3,0.2,0.5c0,0.3-0.1,0.6-0.3,0.8c-0.2,0.2-0.6,0.3-1,0.3C80.3,87,80,86.9,79.8,86.7z"/>
			<path class="stb10" d="M87.1,84.8c-0.1-0.1-0.2-0.3-0.2-0.5c0-0.3,0.1-0.5,0.3-0.7c0.2-0.2,0.5-0.3,0.8-0.3c0.3,0,0.6,0.1,0.8,0.3
				c0.2,0.2,0.3,0.4,0.3,0.6c0,0.2-0.1,0.4-0.2,0.6c-0.1,0.1-0.2,0.2-0.3,0.2c0.2,0.1,0.3,0.1,0.4,0.2c0.2,0.2,0.2,0.4,0.2,0.7
				c0,0.3-0.1,0.6-0.3,0.8C88.7,86.9,88.4,87,88,87c-0.4,0-0.7-0.1-0.9-0.3c-0.2-0.2-0.4-0.5-0.4-0.8c0-0.2,0.1-0.4,0.2-0.6
				c0.1-0.2,0.3-0.3,0.5-0.4C87.3,84.9,87.2,84.9,87.1,84.8z M88.6,86.4c0.1-0.1,0.2-0.3,0.2-0.5c0-0.2-0.1-0.4-0.2-0.5
				c-0.1-0.1-0.3-0.2-0.6-0.2c-0.2,0-0.4,0.1-0.5,0.2c-0.1,0.1-0.2,0.3-0.2,0.5c0,0.2,0.1,0.4,0.2,0.5c0.1,0.1,0.3,0.2,0.6,0.2
				C88.3,86.6,88.4,86.5,88.6,86.4z M88.5,84.6c0.1-0.1,0.2-0.2,0.2-0.4c0-0.1-0.1-0.3-0.2-0.4c-0.1-0.1-0.3-0.2-0.5-0.2
				c-0.2,0-0.4,0.1-0.5,0.2c-0.1,0.1-0.1,0.2-0.1,0.4c0,0.2,0.1,0.3,0.2,0.4c0.1,0.1,0.3,0.1,0.4,0.1C88.2,84.8,88.4,84.7,88.5,84.6
				z"/>
			<path class="stb10" d="M92.2,83.3v0.4c-0.1,0.1-0.3,0.3-0.5,0.6c-0.2,0.3-0.4,0.6-0.5,0.9c-0.1,0.3-0.3,0.6-0.3,0.9
				c0,0.2-0.1,0.4-0.2,0.8h-0.5c0.1-0.7,0.4-1.4,0.8-2.1c0.2-0.4,0.5-0.7,0.7-1h-2v-0.5H92.2z"/>
			<path class="stb10" d="M94.1,86.9V86h-1.6v-0.4l1.7-2.3h0.4v2.4h0.5V86h-0.5v0.9H94.1z M94.1,85.6V84l-1.2,1.6H94.1z"/>
			<path class="stb10" d="M95.7,86.7c-0.2-0.2-0.3-0.5-0.3-0.9h0.5c0,0.2,0.1,0.4,0.1,0.5c0.1,0.2,0.3,0.3,0.6,0.3
				c0.2,0,0.4-0.1,0.6-0.2c0.1-0.1,0.2-0.3,0.2-0.5c0-0.3-0.1-0.4-0.2-0.5c-0.2-0.1-0.4-0.1-0.6-0.1c0,0-0.1,0-0.1,0
				c0,0-0.1,0-0.1,0v-0.4c0,0,0.1,0,0.1,0c0,0,0.1,0,0.1,0c0.2,0,0.3,0,0.4-0.1c0.2-0.1,0.3-0.3,0.3-0.5c0-0.2-0.1-0.3-0.2-0.4
				c-0.1-0.1-0.3-0.1-0.4-0.1c-0.3,0-0.5,0.1-0.6,0.3c-0.1,0.1-0.1,0.3-0.1,0.5h-0.5c0-0.3,0.1-0.5,0.2-0.7c0.2-0.3,0.5-0.5,1-0.5
				c0.4,0,0.7,0.1,0.9,0.2c0.2,0.2,0.3,0.4,0.3,0.7c0,0.2-0.1,0.4-0.2,0.5c-0.1,0.1-0.2,0.2-0.3,0.2c0.2,0.1,0.3,0.2,0.4,0.3
				c0.1,0.2,0.2,0.3,0.2,0.5c0,0.3-0.1,0.6-0.3,0.8c-0.2,0.2-0.6,0.3-1,0.3C96.2,87,95.9,86.9,95.7,86.7z"/>
		</g>
		<g>
			<path class="stb11" d="M54.3,65.6h-3.5v4.8h4.6v-3.6C55.5,66.1,54.9,65.6,54.3,65.6z M44.9,76.2h4.8V65.6h-4.8V76.2z M39.5,75.1
				c0,0.6,0.5,1.1,1.1,1.1h3.2v-4.8h-4.3V75.1z M39.5,66.7v3.6h4.3v-4.8h-3.2C40,65.6,39.5,66.1,39.5,66.7z M50.8,76.2h3.5
				c0.6,0,1.1-0.5,1.1-1.1v-3.6h-4.6V76.2z"/>
		</g>
		<g>
			<path class="stb12" d="M39.6,95.4c0.1-0.1,0.2-0.3,0.4-0.4l0.3-0.2c0.1-0.1,0.2-0.1,0.3-0.2c0.1-0.1,0.1-0.2,0.1-0.3
				c0-0.1,0-0.2-0.1-0.3c-0.1-0.1-0.2-0.1-0.3-0.1c-0.2,0-0.3,0.1-0.4,0.2c0,0.1-0.1,0.2-0.1,0.3h-0.3c0-0.2,0-0.3,0.1-0.4
				c0.1-0.2,0.3-0.3,0.6-0.3c0.2,0,0.4,0.1,0.5,0.2c0.1,0.1,0.2,0.3,0.2,0.4c0,0.2-0.1,0.3-0.2,0.4c-0.1,0.1-0.2,0.2-0.4,0.2
				l-0.2,0.1c-0.1,0.1-0.2,0.1-0.2,0.1c-0.1,0.1-0.2,0.2-0.2,0.3H41v0.2h-1.4C39.5,95.7,39.6,95.6,39.6,95.4z"/>
			<path class="stb12" d="M41.3,95.7c-0.1-0.1-0.2-0.3-0.2-0.5h0.3c0,0.1,0,0.2,0.1,0.3c0.1,0.1,0.2,0.2,0.4,0.2c0.1,0,0.2,0,0.3-0.1
				c0.1-0.1,0.1-0.2,0.1-0.3c0-0.1,0-0.2-0.1-0.3c-0.1-0.1-0.2-0.1-0.4-0.1c0,0,0,0-0.1,0c0,0,0,0-0.1,0v-0.2c0,0,0,0,0.1,0
				c0,0,0,0,0.1,0c0.1,0,0.2,0,0.2,0c0.1-0.1,0.2-0.2,0.2-0.3c0-0.1,0-0.2-0.1-0.2C42.1,94.1,42,94,41.9,94c-0.2,0-0.3,0.1-0.4,0.2
				c0,0.1-0.1,0.2-0.1,0.3h-0.3c0-0.2,0-0.3,0.1-0.4c0.1-0.2,0.3-0.3,0.6-0.3c0.2,0,0.4,0,0.5,0.1c0.1,0.1,0.2,0.2,0.2,0.4
				c0,0.1,0,0.2-0.1,0.3c0,0-0.1,0.1-0.2,0.1c0.1,0,0.2,0.1,0.3,0.2c0.1,0.1,0.1,0.2,0.1,0.3c0,0.2-0.1,0.4-0.2,0.5
				c-0.1,0.1-0.3,0.2-0.6,0.2C41.6,95.9,41.4,95.9,41.3,95.7z"/>
			<path class="stb12" d="M43.6,93.8h0.2l-0.7,2.1h-0.2L43.6,93.8z"/>
			<path class="stb12" d="M44,94.4v-0.2c0.2,0,0.3,0,0.4-0.1c0.1,0,0.1-0.1,0.2-0.3h0.2v2.1h-0.3v-1.5H44z"/>
			<path class="stb12" d="M45.8,95.4c0,0.1,0.1,0.3,0.2,0.3c0.1,0,0.1,0,0.2,0c0.2,0,0.3,0,0.3-0.1c0.1-0.1,0.1-0.2,0.1-0.3
				c0-0.1,0-0.3-0.1-0.3c-0.1-0.1-0.2-0.1-0.3-0.1c-0.1,0-0.2,0-0.2,0.1c-0.1,0-0.1,0.1-0.2,0.1l-0.2,0l0.2-1.1h1.1v0.3h-0.9
				l-0.1,0.6c0,0,0.1-0.1,0.1-0.1c0.1,0,0.2,0,0.3,0c0.2,0,0.4,0.1,0.5,0.2c0.1,0.1,0.2,0.3,0.2,0.5c0,0.2-0.1,0.4-0.2,0.5
				c-0.1,0.2-0.3,0.2-0.6,0.2c-0.2,0-0.3,0-0.4-0.1c-0.1-0.1-0.2-0.2-0.2-0.4H45.8z"/>
		</g>
		<g>
			<path class="stb12" d="M90.3,93.8h0.4l0.6,1.8l0.6-1.8h0.4v2.1h-0.3v-1.3c0,0,0-0.1,0-0.2c0-0.1,0-0.2,0-0.3l-0.6,1.8h-0.3
				l-0.6-1.8v0.1c0,0.1,0,0.1,0,0.2c0,0.1,0,0.2,0,0.2v1.3h-0.3V93.8z"/>
			<path class="stb12" d="M93.1,93.8v1.3c0,0.2,0,0.3,0.1,0.4c0.1,0.2,0.2,0.2,0.4,0.2c0.2,0,0.4-0.1,0.5-0.3c0-0.1,0.1-0.2,0.1-0.4
				v-1.3h0.3V95c0,0.3,0,0.5-0.1,0.6C94.3,95.9,94,96,93.7,96c-0.4,0-0.6-0.1-0.7-0.4c-0.1-0.1-0.1-0.3-0.1-0.6v-1.2H93.1z"/>
			<path class="stb12" d="M95,93.8h0.3v1.9h1.1v0.3H95V93.8z"/>
			<path class="stb12" d="M97.9,93.8v0.3h-0.7v1.9h-0.3v-1.9h-0.7v-0.3H97.9z"/>
		</g>
	</g>
	<g>
		<path class="stb5" d="M63.9,30.8c0.2,0.1,0.3,0.2,0.4,0.4l-0.3,0.1c-0.1-0.1-0.2-0.2-0.3-0.3c-0.1,0-0.3,0-0.4,0
			c-0.2,0.1-0.3,0.2-0.4,0.4c-0.1,0.2-0.1,0.4,0,0.7c0.1,0.2,0.2,0.4,0.4,0.5c0.2,0.1,0.3,0.1,0.6,0.1c0.2-0.1,0.3-0.2,0.4-0.4
			c0-0.1,0-0.2,0-0.4l0.3-0.1c0,0.2,0,0.4-0.1,0.6c-0.1,0.2-0.3,0.4-0.6,0.5c-0.2,0.1-0.5,0.1-0.7,0c-0.3-0.1-0.5-0.4-0.6-0.8
			c-0.1-0.3-0.1-0.6,0-0.8c0.1-0.3,0.3-0.5,0.6-0.5C63.5,30.7,63.8,30.7,63.9,30.8z"/>
		<path class="stb5" d="M64.5,30.4l0.9-0.3c0.2-0.1,0.3-0.1,0.4-0.1c0.2,0,0.4,0.2,0.4,0.4c0,0.1,0,0.2,0,0.3c0,0.1-0.1,0.2-0.2,0.3
			c0.1,0,0.2,0,0.2,0.1c0.1,0,0.1,0.1,0.2,0.2l0.1,0.3c0,0.1,0.1,0.1,0.1,0.2c0,0.1,0.1,0.1,0.1,0.1l0,0l-0.3,0.1c0,0,0,0,0-0.1
			c0,0,0-0.1-0.1-0.2l-0.1-0.3c-0.1-0.1-0.1-0.2-0.2-0.2c-0.1,0-0.1,0-0.3,0l-0.6,0.2l0.3,0.9l-0.3,0.1L64.5,30.4z M65.8,31.1
			c0.1,0,0.2-0.1,0.3-0.2c0.1-0.1,0.1-0.2,0-0.3c0-0.1-0.1-0.2-0.3-0.2c-0.1,0-0.1,0-0.2,0l-0.7,0.2l0.2,0.7L65.8,31.1z"/>
		<path class="stb5" d="M66.6,29.8l1.5-0.5l0.1,0.3L67,29.9l0.2,0.6l1.1-0.4l0.1,0.2l-1.1,0.4l0.2,0.7l1.2-0.4l0.1,0.2l-1.5,0.5
			L66.6,29.8z"/>
		<path class="stb5" d="M68.5,29.1l0.8-0.3c0.3-0.1,0.5-0.1,0.7,0.1c0.2,0.1,0.3,0.3,0.4,0.6c0.1,0.2,0.1,0.4,0.1,0.6
			c0,0.4-0.2,0.6-0.6,0.7l-0.8,0.3L68.5,29.1z M69.9,30.7c0.1,0,0.2-0.1,0.2-0.1c0.1-0.1,0.2-0.2,0.2-0.3c0-0.1,0-0.2,0-0.4
			c0-0.1,0-0.2-0.1-0.2c-0.1-0.3-0.2-0.4-0.3-0.5c-0.1-0.1-0.3-0.1-0.5-0.1l-0.5,0.2l0.5,1.6L69.9,30.7z"/>
		<path class="stb5" d="M70.6,28.4l0.3-0.1l0.7,2.1l-0.3,0.1L70.6,28.4z"/>
		<path class="stb5" d="M72.9,27.7L73,28l-0.7,0.2l0.6,1.8l-0.3,0.1L72,28.3l-0.7,0.2l-0.1-0.2L72.9,27.7z"/>
		<path class="stb5" d="M75.4,27.1c0.2,0.1,0.3,0.2,0.4,0.4l-0.3,0.1c-0.1-0.1-0.2-0.2-0.3-0.3c-0.1,0-0.3,0-0.4,0
			c-0.2,0.1-0.3,0.2-0.4,0.4c-0.1,0.2-0.1,0.4,0,0.7c0.1,0.2,0.2,0.4,0.4,0.5c0.2,0.1,0.3,0.1,0.6,0.1c0.2-0.1,0.3-0.2,0.4-0.4
			c0-0.1,0-0.2,0-0.4l0.3-0.1c0,0.2,0,0.4-0.1,0.6c-0.1,0.2-0.3,0.4-0.6,0.5c-0.2,0.1-0.5,0.1-0.7,0c-0.3-0.1-0.5-0.4-0.6-0.8
			c-0.1-0.3-0.1-0.6,0-0.8c0.1-0.3,0.3-0.5,0.6-0.5C75,27,75.2,27,75.4,27.1z"/>
		<path class="stb5" d="M76.6,26.5l0.3-0.1l1.4,1.8L78,28.3l-0.4-0.5L76.8,28l0,0.7l-0.3,0.1L76.6,26.5z M77.4,27.6l-0.6-0.8l0,1
			L77.4,27.6z"/>
		<path class="stb5" d="M77.9,26.1l0.9-0.3c0.2-0.1,0.3-0.1,0.4-0.1c0.2,0,0.4,0.2,0.4,0.4c0,0.1,0,0.2,0,0.3c0,0.1-0.1,0.2-0.2,0.3
			c0.1,0,0.2,0,0.2,0.1c0.1,0,0.1,0.1,0.2,0.2l0.1,0.3c0,0.1,0.1,0.1,0.1,0.2c0,0.1,0.1,0.1,0.1,0.1l0,0l-0.3,0.1c0,0,0,0,0-0.1
			c0,0,0-0.1-0.1-0.2l-0.1-0.3c-0.1-0.1-0.1-0.2-0.2-0.2c-0.1,0-0.1,0-0.3,0l-0.6,0.2l0.3,0.9l-0.3,0.1L77.9,26.1z M79.1,26.7
			c0.1,0,0.2-0.1,0.3-0.2c0.1-0.1,0.1-0.2,0-0.3c0-0.1-0.1-0.2-0.3-0.2c-0.1,0-0.1,0-0.2,0l-0.7,0.2l0.2,0.7L79.1,26.7z"/>
		<path class="stb5" d="M80,25.4l0.8-0.3c0.3-0.1,0.5-0.1,0.7,0.1c0.2,0.1,0.3,0.3,0.4,0.6c0.1,0.2,0.1,0.4,0.1,0.6
			c0,0.4-0.2,0.6-0.6,0.7l-0.8,0.3L80,25.4z M81.3,27c0.1,0,0.2-0.1,0.2-0.1c0.1-0.1,0.2-0.2,0.2-0.3c0-0.1,0-0.2,0-0.4
			c0-0.1,0-0.2-0.1-0.2c-0.1-0.3-0.2-0.4-0.3-0.5c-0.1-0.1-0.3-0.1-0.5-0.1l-0.5,0.2l0.5,1.6L81.3,27z"/>
	</g>
	<g>
		<path class="stb12" d="M60.4,94c0.2,0.1,0.2,0.3,0.3,0.5l-0.3,0c0-0.1-0.1-0.2-0.2-0.3C60.1,94.1,60,94,59.8,94
			c-0.2,0-0.4,0.1-0.5,0.2c-0.1,0.2-0.2,0.4-0.2,0.7c0,0.3,0.1,0.5,0.2,0.6c0.1,0.2,0.3,0.2,0.5,0.2c0.2,0,0.4-0.1,0.5-0.3
			c0.1-0.1,0.1-0.2,0.1-0.3l0.3,0c0,0.2-0.1,0.4-0.2,0.6c-0.2,0.2-0.4,0.3-0.7,0.3c-0.2,0-0.5-0.1-0.6-0.2c-0.2-0.2-0.3-0.5-0.3-0.9
			c0-0.3,0.1-0.6,0.2-0.8c0.2-0.2,0.4-0.3,0.7-0.3C60.1,93.8,60.3,93.9,60.4,94z"/>
		<path class="stb12" d="M61.1,93.8l1,0c0.2,0,0.3,0,0.4,0.1c0.2,0.1,0.3,0.3,0.3,0.5c0,0.1,0,0.2-0.1,0.3c-0.1,0.1-0.1,0.1-0.2,0.2
			c0.1,0,0.1,0.1,0.2,0.1c0,0.1,0.1,0.1,0.1,0.3l0,0.3c0,0.1,0,0.1,0,0.2c0,0.1,0,0.1,0.1,0.1l0,0l-0.4,0c0,0,0,0,0-0.1
			c0,0,0-0.1,0-0.2l0-0.4c0-0.1-0.1-0.2-0.2-0.3c-0.1,0-0.1,0-0.3,0l-0.6,0l0,0.9l-0.3,0L61.1,93.8z M62.1,94.8c0.1,0,0.2,0,0.3-0.1
			c0.1-0.1,0.1-0.2,0.1-0.3c0-0.2-0.1-0.3-0.2-0.3c-0.1,0-0.1,0-0.2,0l-0.7,0l0,0.7L62.1,94.8z"/>
		<path class="stb12" d="M63.3,93.8l1.6,0l0,0.3l-1.3,0l0,0.7l1.2,0l0,0.3l-1.2,0l0,0.7l1.3,0l0,0.3l-1.6,0L63.3,93.8z"/>
		<path class="stb12" d="M65.3,93.8l0.9,0c0.3,0,0.5,0.1,0.7,0.3c0.1,0.2,0.2,0.4,0.2,0.7c0,0.2,0,0.4-0.1,0.6
			c-0.1,0.3-0.4,0.5-0.8,0.5l-0.9,0L65.3,93.8z M66.1,95.7c0.1,0,0.2,0,0.2,0c0.1,0,0.2-0.1,0.3-0.2c0.1-0.1,0.1-0.2,0.1-0.3
			c0-0.1,0-0.2,0-0.2c0-0.3-0.1-0.5-0.2-0.6c-0.1-0.1-0.3-0.2-0.5-0.2l-0.5,0l0,1.7L66.1,95.7z"/>
		<path class="stb12" d="M67.5,93.8l0.3,0l0,2.2l-0.3,0L67.5,93.8z"/>
		<path class="stb12" d="M69.9,93.8l0,0.3l-0.7,0l0,1.9l-0.3,0l0-1.9l-0.7,0l0-0.3L69.9,93.8z"/>
		<path class="stb12" d="M72.5,93.9c0.2,0.1,0.2,0.3,0.3,0.5l-0.3,0c0-0.1-0.1-0.3-0.2-0.3C72.1,94,72,94,71.8,94
			c-0.2,0-0.4,0.1-0.5,0.2c-0.1,0.2-0.2,0.4-0.2,0.7c0,0.3,0.1,0.5,0.2,0.6c0.1,0.2,0.3,0.2,0.5,0.2c0.2,0,0.4-0.1,0.5-0.3
			c0.1-0.1,0.1-0.2,0.1-0.3l0.3,0c0,0.2-0.1,0.4-0.2,0.6c-0.2,0.2-0.4,0.3-0.7,0.3c-0.2,0-0.5-0.1-0.6-0.2c-0.2-0.2-0.3-0.5-0.3-0.9
			c0-0.3,0.1-0.6,0.2-0.8c0.2-0.2,0.4-0.3,0.7-0.3C72.1,93.7,72.3,93.8,72.5,93.9z"/>
		<path class="stb12" d="M73.7,93.8l0.3,0l0.8,2.2l-0.3,0l-0.2-0.6l-0.9,0l-0.2,0.7l-0.3,0L73.7,93.8z M74.2,95.1l-0.3-1l-0.3,1
			L74.2,95.1z"/>
		<path class="stb12" d="M75.2,93.8l1,0c0.2,0,0.3,0,0.4,0.1c0.2,0.1,0.3,0.3,0.3,0.5c0,0.1,0,0.2-0.1,0.3c-0.1,0.1-0.1,0.1-0.2,0.2
			c0.1,0,0.1,0.1,0.2,0.1c0,0.1,0.1,0.1,0.1,0.3l0,0.3c0,0.1,0,0.1,0,0.2c0,0.1,0,0.1,0.1,0.1l0,0l-0.4,0c0,0,0,0,0-0.1
			c0,0,0-0.1,0-0.2l0-0.4c0-0.1-0.1-0.2-0.2-0.3c-0.1,0-0.1,0-0.3,0l-0.6,0l0,0.9l-0.3,0L75.2,93.8z M76.1,94.8c0.1,0,0.2,0,0.3-0.1
			c0.1-0.1,0.1-0.2,0.1-0.3c0-0.2-0.1-0.3-0.2-0.3c-0.1,0-0.1,0-0.2,0l-0.7,0l0,0.7L76.1,94.8z"/>
		<path class="stb12" d="M77.3,93.8l0.9,0c0.3,0,0.5,0.1,0.7,0.3c0.1,0.2,0.2,0.4,0.2,0.7c0,0.2,0,0.4-0.1,0.6
			c-0.1,0.3-0.4,0.5-0.8,0.5l-0.9,0L77.3,93.8z M78.1,95.7c0.1,0,0.2,0,0.2,0c0.1,0,0.2-0.1,0.3-0.2c0.1-0.1,0.1-0.2,0.1-0.3
			c0-0.1,0-0.2,0-0.2c0-0.3-0.1-0.5-0.2-0.6c-0.1-0.1-0.3-0.2-0.5-0.2l-0.5,0l0,1.7L78.1,95.7z"/>
	</g>
</g>
</svg>
