<?xml version="1.0" encoding="utf-8"?>
<!-- Generator: Adobe Illustrator 18.0.0, SVG Export Plug-In . SVG Version: 6.00 Build 0)  -->
<!DOCTYPE svg PUBLIC "-//W3C//DTD SVG 1.1//EN" "http://www.w3.org/Graphics/SVG/1.1/DTD/svg11.dtd">
<svg version="1.1" id="Layer_1" xmlns="http://www.w3.org/2000/svg" xmlns:xlink="http://www.w3.org/1999/xlink" x="0px" y="0px"
	 width="128px" height="128px" viewBox="0 0 128 128" style="enable-background:new 0 0 128 128;" xml:space="preserve">
<style type="text/css">
	.st0{fill:#73AC43;}
	.st1{clip-path:url(#SVGID_2_);fill:#58973A;}
	.st2{fill:#EF5023;}
	.st3{fill:#58973A;}
	.st4{fill:#D4E8C3;}
	.st5{fill:#364942;}
	.st6{clip-path:url(#SVGID_4_);}
	.st7{fill:none;stroke:#D4E8C3;stroke-width:2;stroke-miterlimit:10;}
	.st8{fill:none;stroke:#FFCD03;stroke-width:4;stroke-miterlimit:10;}
	.st9{fill:#FFCD03;}
</style>
<g>
	<circle class="st0" cx="64" cy="64" r="64"/>
	<g>
		<defs>
			<circle id="SVGID_1_" cx="64" cy="64" r="64"/>
		</defs>
		<clipPath id="SVGID_2_">
			<use xlink:href="#SVGID_1_"  style="overflow:visible;"/>
		</clipPath>
		<polygon class="st1" points="98.4,42.2 128,72.1 128,128 74.2,128 55.9,109.6 65.7,84.2 51.7,32.5 52.6,30.4 64.2,42 71.2,40.4 
			78.7,43.9 84.4,35.3 90.8,34.5 		"/>
	</g>
	<path class="st2" d="M74.3,89.5l31.5-9.1c2.1-0.6,3.3-2.8,2.7-5L99.4,44c-0.6-2.1-2.8-3.3-5-2.7L63,50.3c-2.1,0.6-3.3,2.8-2.7,5
		l9.1,31.5C69.9,88.9,72.2,90.1,74.3,89.5z"/>
	<polygon class="st3" points="19,46.8 58.3,86 67,86 50.4,35 19,43.3 	"/>
	<path class="st4" d="M109.5,79.3L72.4,90.1c-1.1,0.3-2.2-0.3-2.5-1.4L54.2,34.1l0,0l-0.8-2.6c-0.3-1.1-1.4-1.7-2.5-1.4l-22.9,6.8
		c-1.1,0.3-1.7,1.4-1.4,2.5l0.5,1.6c0.3,1.1,1.4,1.7,2.5,1.4L47,37.2c1.1-0.3,2.2,0.3,2.5,1.4L65,92.2l0,0l1,3.5
		c0.3,1.1,1.4,1.7,2.5,1.4l42.6-12.3c1.1-0.3,1.7-1.4,1.4-2.5l-0.5-1.6C111.7,79.7,110.6,79,109.5,79.3z"/>
	<path class="st5" d="M16.4,40.2l1.5,5.3c0.3,1.1,1.4,1.7,2.5,1.4l18-5.2c1.1-0.3,1.7-1.4,1.4-2.5l-1.5-5.3
		c-0.3-1.1-1.4-1.7-2.5-1.4l-18,5.2C16.7,38,16.1,39.1,16.4,40.2z"/>
	<circle class="st5" cx="66.6" cy="97.7" r="16"/>
	<circle class="st4" cx="66.6" cy="97.7" r="9.5"/>
	<circle class="st5" cx="66.6" cy="97.7" r="4"/>
	<g>
		<defs>
			<path id="SVGID_3_" d="M16.4,40.2l1.5,5.3c0.3,1.1,1.4,1.7,2.5,1.4l18-5.2c1.1-0.3,1.7-1.4,1.4-2.5l-1.5-5.3
				c-0.3-1.1-1.4-1.7-2.5-1.4l-18,5.2C16.7,38,16.1,39.1,16.4,40.2z"/>
		</defs>
		<clipPath id="SVGID_4_">
			<use xlink:href="#SVGID_3_"  style="overflow:visible;"/>
		</clipPath>
		<g class="st6">
			<line class="st7" x1="18.1" y1="34.9" x2="23.1" y2="51.2"/>
			<line class="st7" x1="23.1" y1="32.9" x2="28.1" y2="49.2"/>
			<line class="st7" x1="28.1" y1="30.9" x2="33.1" y2="47.2"/>
			<line class="st7" x1="33.1" y1="28.9" x2="38.1" y2="45.2"/>
		</g>
	</g>
	<path class="st8" d="M79.2,45.4c0,0,0.4-10.7,7.2-10.3C93.2,35.4,91.2,41.9,79.2,45.4z"/>
	<path class="st8" d="M77.9,46.6c0,0-4.8-9.5-10.9-6.4C61,43.4,65.6,48.4,77.9,46.6z"/>
	
		<rect x="81.8" y="45" transform="matrix(-0.9608 0.2773 -0.2773 -0.9608 183.5751 104.8107)" class="st9" width="5.1" height="40.8"/>
	
		<rect x="81.8" y="45" transform="matrix(-0.2773 -0.9608 0.9608 -0.2773 44.9507 164.5813)" class="st9" width="5.1" height="40.8"/>
</g>
</svg>
