<?xml version="1.0" encoding="UTF-8"?>
<!DOCTYPE svg PUBLIC "-//W3C//DTD SVG 1.1//EN" "http://www.w3.org/Graphics/SVG/1.1/DTD/svg11.dtd">
<!-- Creator: CorelDRAW -->
<svg xmlns="http://www.w3.org/2000/svg" xml:space="preserve" width="6.82666in" height="6.82666in" style="shape-rendering:geometricPrecision; text-rendering:geometricPrecision; image-rendering:optimizeQuality; fill-rule:evenodd; clip-rule:evenodd"
viewBox="0 0 6.82666 6.82666"
 xmlns:xlink="http://www.w3.org/1999/xlink">
 <defs>
  <style type="text/css">
    .filx2 {fill:none}
    .filx3 {fill:#FDB835}
    .filx4 {fill:#158F83}
    .filx1 {fill:#11878f}
    .filx0 {fill:#11878f}
    .filx6 {fill:#E0F2F1}
    .filx5 {fill:#FDB835}#FDB835
  </style>
   <clipPath id="id0">
    <path d="M3.41333 -3.93701e-006c1.88513,0 3.41333,1.5282 3.41333,3.41333 0,1.88513 -1.5282,3.41333 -3.41333,3.41333 -1.88513,0 -3.41333,-1.5282 -3.41333,-3.41333 0,-1.88513 1.5282,-3.41333 3.41333,-3.41333z"/>
   </clipPath>
 </defs>
 <g id="Layer_x0020_1">
  <metadata id="CorelCorpID_0Corel-Layer"/>
  <path class="filx0" d="M3.41333 -3.93701e-006c1.88513,0 3.41333,1.5282 3.41333,3.41333 0,1.88513 -1.5282,3.41333 -3.41333,3.41333 -1.88513,0 -3.41333,-1.5282 -3.41333,-3.41333 0,-1.88513 1.5282,-3.41333 3.41333,-3.41333z"/>
  <g style="clip-path:url(#id0)">
   <g id="_453120920">
    <g>
     <polygon id="_4718885361" class="filx1" points="4.75123,1.63659 8.5375,5.42286 8.54451,5.43222 8.55061,5.44224 8.55575,5.45286 8.55985,5.46401 8.56286,5.47564 8.56471,5.48767 8.56534,5.50005 8.56534,5.98009 4.77907,2.19382 4.77907,1.71378 4.77844,1.7014 4.77659,1.68937 4.77358,1.67774 4.76948,1.66659 4.76435,1.65597 4.75824,1.64595 "/>
     <polygon id="_471889256" class="filx1" points="5.28,2.83402 9.06627,6.62029 9.06587,6.63745 9.06471,6.65443 9.06279,6.67119 9.06012,6.68772 9.05674,6.70402 9.05265,6.72004 9.04787,6.73579 9.04243,6.75124 9.03632,6.76638 9.02959,6.78119 9.02223,6.79565 9.01428,6.80974 9.00574,6.82346 8.99663,6.83677 8.98697,6.84967 8.97678,6.86213 8.96607,6.87413 8.95487,6.88567 8.94319,6.89673 8.93104,6.90728 8.91844,6.91731 8.90542,6.9268 8.89198,6.93574 8.87816,6.94411 8.86395,6.95188 8.84938,6.95905 8.83447,6.9656 8.81924,6.9715 8.80369,6.97675 8.78786,6.98132 8.77175,6.98519 8.75538,6.98836 4.96911,3.20209 4.98548,3.19892 5.00159,3.19505 5.01743,3.19048 5.03297,3.18523 5.0482,3.17933 5.06311,3.17278 5.07768,3.16561 5.09189,3.15783 5.10572,3.14947 5.11915,3.14053 5.13218,3.13104 5.14477,3.12101 5.15692,3.11046 5.1686,3.0994 5.17981,3.08786 5.19051,3.07585 5.2007,3.06339 5.21036,3.0505 5.21947,3.03719 5.22801,3.02347 5.23596,3.00938 5.24332,2.99492 5.25006,2.98011 5.25616,2.96497 5.26161,2.94952 5.26638,2.93377 5.27047,2.91774 5.27385,2.90145 5.27652,2.88492 5.27844,2.86815 5.27961,2.85118 "/>
     <polygon id="_471888848" class="filx1" points="4.96911,3.20209 8.75538,6.98836 8.75538,9.02068 4.96911,5.23441 "/>
     <polygon id="_471888752" class="filx1" points="1.85755,3.20209 5.64381,6.98836 5.62745,6.98519 5.61134,6.98132 5.5955,6.97675 5.57996,6.9715 5.56472,6.9656 5.54981,6.95905 5.53525,6.95188 5.52104,6.94411 5.50721,6.93574 5.49378,6.9268 5.48075,6.91731 5.46816,6.90728 5.45601,6.89673 1.66974,3.11046 1.68189,3.12101 1.69448,3.13104 1.70751,3.14053 1.72094,3.14947 1.73477,3.15783 1.74898,3.16561 1.76355,3.17278 1.77846,3.17933 1.79369,3.18523 1.80924,3.19048 1.82507,3.19505 1.84118,3.19892 "/>
     <polygon id="_471888824" class="filx1" points="3.23598,5.23441 7.02225,9.02068 6.96058,9.02068 3.17431,5.23441 "/>
     <polygon id="_471888896" class="filx1" points="3.17431,5.23441 6.96058,9.02068 6.55626,9.02068 2.77,5.23441 "/>
     <polygon id="_471888560" class="filx1" points="2.77,5.23441 6.55626,9.02068 6.49605,9.02068 2.70978,5.23441 "/>
     <polygon id="_471888920" class="filx1" points="2.70978,5.23441 6.49605,9.02068 6.09173,9.02068 2.30546,5.23441 "/>
     <polygon id="_471889544" class="filx1" points="2.30546,5.23441 6.09173,9.02068 6.03152,9.02068 2.24525,5.23441 "/>
     <polygon id="_471889664" class="filx1" points="2.24525,5.23441 6.03152,9.02068 5.64381,9.02068 1.85755,5.23441 "/>
     <polygon id="_471889568" class="filx1" points="4.96911,5.23441 8.75538,9.02068 7.02225,9.02068 3.23598,5.23441 "/>
     <polygon id="_471889640" class="filx1" points="4.95219,2.19382 8.73846,5.98009 8.7394,6.0001 8.74214,6.02011 8.74656,6.04011 8.75254,6.06012 8.75996,6.08013 8.76871,6.10013 8.77865,6.12014 8.78968,6.14014 8.80166,6.16015 8.81449,6.18015 8.82803,6.20016 8.84218,6.22017 8.8568,6.24017 8.87179,6.26018 8.88702,6.28019 8.90236,6.30019 8.91771,6.3202 8.93293,6.3402 8.94792,6.36021 8.96255,6.38022 8.97669,6.40022 8.99024,6.42023 9.00306,6.44023 9.01505,6.46024 9.02607,6.48024 9.03602,6.50025 9.04476,6.52026 9.05218,6.54026 9.05817,6.56027 9.06259,6.58028 9.06533,6.60028 9.06627,6.62029 5.28,2.83402 5.27906,2.81401 5.27632,2.794 5.2719,2.774 5.26591,2.75399 5.25849,2.73398 5.24975,2.71398 5.2398,2.69397 5.22878,2.67397 5.2168,2.65396 5.20397,2.63396 5.19043,2.61395 5.17628,2.59394 5.16165,2.57394 5.14667,2.55393 5.13144,2.53393 5.11609,2.51392 5.10075,2.49391 5.08552,2.47391 5.07054,2.4539 5.05591,2.43389 5.04176,2.41389 5.02822,2.39388 5.01539,2.37388 5.00341,2.35387 4.99239,2.33387 4.98244,2.31386 4.9737,2.29385 4.96628,2.27385 4.96029,2.25384 4.95587,2.23383 4.95313,2.21383 "/>
    </g>
    <path id="_453120968" class="fil1" d="M4.95219 2.19382c0,0.213398 0.327811,0.426795 0.327811,0.640193 0,0.184071 -0.135008,0.338138 -0.310886,0.368075l0 2.03232 -1.73313 0 -0.0616693 0 -0.404319 0 -0.0602165 0 -0.404319 0 -0.0602126 0 -0.387701 0 0 -2.03232c-0.175878,-0.029937 -0.310886,-0.184004 -0.310886,-0.368075 0,-0.213398 0.327811,-0.426795 0.327811,-0.640193l0.173118 0 0 -0.480043c0,-0.0668465 0.054685,-0.121528 0.121524,-0.121528l2.48843 0c0.0668425,0 0.121528,0.0546811 0.121528,0.121528l0 0.480043 0.172909 0 0.000208661 0z"/>
   </g>
  </g>
  <path class="filx2" d="M3.41333 -3.93701e-006c1.88513,0 3.41333,1.5282 3.41333,3.41333 0,1.88513 -1.5282,3.41333 -3.41333,3.41333 -1.88513,0 -3.41333,-1.5282 -3.41333,-3.41333 0,-1.88513 1.5282,-3.41333 3.41333,-3.41333z"/>
  <path class="filx3" d="M2.16911 1.59225l2.48843 0c0.0668425,0 0.121528,0.0546811 0.121528,0.121528l0 0.495823 -2.73148 0 0 -0.495823c0,-0.0668465 0.054685,-0.121528 0.121524,-0.121528z"/>
  <path class="filx4" d="M4.96911 2.79444l0 2.43996c-2.14136,0 -2.24592,0 -3.11157,0l0 -2.43996 3.11157 0z"/>
  <path class="filx5" d="M4.53333 2.83402c0,0.205335 0.168,0.373335 0.373335,0.373335 0,0 0,0 0,0 0.205335,0 0.373331,-0.168 0.373331,-0.373335 0,-0.213398 -0.327807,-0.426795 -0.327807,-0.640193l-0.000208661 0c-1.10361,0 -1.97389,0 -3.07751,0 0,0.213398 -0.327807,0.426795 -0.327807,0.640193 0,0.205335 0.167996,0.373335 0.373331,0.373335 0,0 0,0 0,0 0.205335,0 0.373335,-0.168 0.373335,-0.373335 0,0.205335 0.168,0.373335 0.373335,0.373335 0,0 0,0 0,0 0.205331,0 0.373331,-0.168 0.373331,-0.373335 0,0.205335 0.168,0.373335 0.373335,0.373335 0,0 0,0 0,0 0.205335,0 0.373335,-0.168 0.373335,-0.373335 0,0.205335 0.168,0.373335 0.373331,0.373335 0,0 0,0 0,0 0.205335,0 0.373335,-0.168 0.373335,-0.373335z"/>
  <path class="filx3" d="M3.23453 5.18757l0.00145276 0 0 0.0468346 -0.990736 0 0 -0.0368937 0 -0.00994094 0 -0.840008 0 -0.80237c0,-0.0166299 0.0134803,-0.0301102 0.0301063,-0.0301102l0.929071 0c0.016626,0 0.0301063,0.0134803 0.0301063,0.0301102l0 0.80237 0 0.840008z"/>
  <path class="fixl3" d="M3.59213 3.5452l0 0.464531 0 0.464535c0,0.016626 0.0134803,0.0301063 0.0301063,0.0301063l0.464535 0 0.464535 0c0.0166299,0 0.0301063,-0.0134803 0.0301063,-0.0301063l0 -0.464535 0 -0.464531c0,-0.016626 -0.0134764,-0.0301063 -0.0301063,-0.0301063l-0.464276 0 -0.000259843 -3.93701e-006 -0.000259843 3.93701e-006 -0.464276 0c-0.016626,0 -0.0301063,0.0134803 -0.0301063,0.0301063z"/>
  <polygon class="filx6" points="4.11688,4.44416 4.11688,4.03983 4.5212,4.03983 4.5212,4.44416 "/>
  <polygon class="filx6" points="3.65234,4.03983 4.05666,4.03983 4.05666,4.44416 3.65234,4.44416 "/>
  <polygon class="filx6" points="4.11688,3.97962 4.11688,3.57531 4.5212,3.57531 4.5212,3.97962 "/>
  <polygon class="filx6" points="4.05666,3.57531 4.05666,3.97962 3.65234,3.97962 3.65234,3.57531 "/>
  <polygon class="filx6" points="2.77,4.31746 2.77,3.5753 3.17431,3.5753 3.17431,4.31746 "/>
  <polygon class="filx6" points="2.77,5.23441 3.17431,5.23441 3.17431,4.37768 2.77,4.37768 "/>
  <polygon class="filx6" points="2.30546,5.23441 2.70978,5.23441 2.70978,4.37768 2.30546,4.37768 "/>
  <polygon class="filx6" points="2.70978,3.5753 2.70978,4.31746 2.30546,4.31746 2.30546,3.5753 "/>
  <path class="filx3" d="M2.99641 4.00454l0 0.0948386c0,0.0166299 0.0134803,0.0301102 0.0301063,0.0301102 0.016626,0 0.0301102,-0.0134803 0.0301102,-0.0301102l0 -0.0948386c0,-0.016626 -0.0134843,-0.0301102 -0.0301102,-0.0301102 -0.016626,0 -0.0301063,0.0134843 -0.0301063,0.0301102z"/>
 </g>
</svg>
