<?xml version="1.0" encoding="UTF-8"?>
<!DOCTYPE svg PUBLIC "-//W3C//DTD SVG 1.1//EN" "http://www.w3.org/Graphics/SVG/1.1/DTD/svg11.dtd">
<!-- Creator: CorelDRAW -->
<svg xmlns="http://www.w3.org/2000/svg" xml:space="preserve" width="6.82666in" height="6.82666in" style="shape-rendering:geometricPrecision; text-rendering:geometricPrecision; image-rendering:optimizeQuality; fill-rule:evenodd; clip-rule:evenodd"
viewBox="0 0 6.82666 6.82666"
 xmlns:xlink="http://www.w3.org/1999/xlink">
 <defs>
  <style type="text/css">
    .filw2 {fill:none}
    .filw4 {fill:#212121}
    .filw1 {fill:#76459e}
    .filw0 {fill:#76459e}
    .filw3 {fill:#76459e}
    .filw7 {fill:red}
    .filw5 {fill:#FFFFFE}
    .filw6 {fill:#ECEFF1;fill-rule:nonzero}
  </style>
   <clipPath id="id0">
    <path d="M3.41333 -3.93701e-006c1.88513,0 3.41333,1.5282 3.41333,3.41333 0,1.88513 -1.5282,3.41333 -3.41333,3.41333 -1.88513,0 -3.41333,-1.5282 -3.41333,-3.41333 0,-1.88513 1.5282,-3.41333 3.41333,-3.41333z"/>
   </clipPath>
 </defs>
 <g id="Layer_x0020_1">
  <metadata id="CorelCorpID_0Corel-Layer"/>
  <path class="filw0" d="M3.41333 -3.93701e-006c1.88513,0 3.41333,1.5282 3.41333,3.41333 0,1.88513 -1.5282,3.41333 -3.41333,3.41333 -1.88513,0 -3.41333,-1.5282 -3.41333,-3.41333 0,-1.88513 1.5282,-3.41333 3.41333,-3.41333z"/>
  <g style="clip-path:url(#id0)">
   <g id="_453123488">
    <g>
     <polygon id="_4659018481" class="filw1" points="5.26814,2.87075 9.05441,6.65702 9.05441,7.7294 5.26814,3.94313 "/>
     <polygon id="_465901728" class="filw1" points="5.26814,3.94313 9.05441,7.7294 9.05381,7.74127 9.05205,7.7528 9.04919,7.76393 9.04528,7.7746 9.04039,7.78475 9.03458,7.79432 9.02789,7.80326 9.0204,7.81151 9.01215,7.819 9.00322,7.82569 8.99364,7.8315 8.98349,7.83639 8.97282,7.8403 8.9617,7.84316 8.95017,7.84492 8.9383,7.84552 5.15203,4.05924 5.1639,4.05865 5.17543,4.05689 5.18656,4.05402 5.19722,4.05012 5.20737,4.04523 5.21695,4.03941 5.22589,4.03273 5.23413,4.02524 5.24163,4.01699 5.24831,4.00805 5.25413,3.99848 5.25902,3.98833 5.26292,3.97766 5.26578,3.96653 5.26754,3.955 "/>
     <polygon id="_465902448" class="filw1" points="5.15203,4.05924 8.9383,7.84552 8.93764,7.84551 8.93698,7.84551 8.93633,7.8455 8.93568,7.84548 8.93502,7.84546 8.93437,7.84544 8.93372,7.84542 8.93307,7.84539 5.14681,4.05912 5.14746,4.05915 5.14811,4.05917 5.14876,4.05919 5.14941,4.05921 5.15006,4.05922 5.15072,4.05924 5.15137,4.05924 "/>
     <polygon id="_465902952" class="filw1" points="1.70526,1.91269 5.49152,5.69896 5.48469,5.69851 5.47771,5.69811 5.4706,5.69773 5.4634,5.69734 5.45613,5.69691 5.44881,5.69642 5.44148,5.69584 5.43417,5.69515 5.4269,5.69431 5.4197,5.6933 5.41259,5.69209 5.40562,5.69066 5.39879,5.68898 5.39215,5.68702 5.38571,5.68476 5.37951,5.68217 5.37357,5.67922 5.36793,5.67588 5.3626,5.67213 5.35762,5.66794 1.57135,1.88167 1.57633,1.88586 1.58166,1.88961 1.5873,1.89294 1.59324,1.8959 1.59944,1.89849 1.60588,1.90075 1.61252,1.90271 1.61935,1.90439 1.62633,1.90582 1.63343,1.90703 1.64063,1.90804 1.64791,1.90887 1.65522,1.90957 1.66254,1.91015 1.66986,1.91064 1.67713,1.91107 1.68433,1.91146 1.69144,1.91184 1.69843,1.91224 "/>
     <polygon id="_465902640" class="filw1" points="2.67528,4.1473 6.46155,7.93357 6.46248,7.93989 6.46343,7.94622 6.46438,7.95257 6.46534,7.95891 6.4663,7.96524 6.46727,7.97157 6.46824,7.97787 6.46922,7.98414 6.4702,7.99037 6.47119,7.99656 6.47219,8.0027 6.47319,8.00879 6.47419,8.0148 6.47519,8.02075 6.4762,8.02661 6.47721,8.03239 6.47822,8.03807 6.47924,8.04364 6.48026,8.04911 6.48128,8.05446 6.4823,8.05969 6.48333,8.06478 6.48435,8.06973 6.48538,8.07454 6.48641,8.07919 6.48744,8.08368 6.48847,8.088 6.4895,8.09214 6.49053,8.0961 6.49156,8.09987 6.49259,8.10344 6.49362,8.10681 2.70735,4.32054 2.70633,4.31717 2.7053,4.3136 2.70426,4.30983 2.70324,4.30587 2.7022,4.30173 2.70117,4.29741 2.70015,4.29292 2.69911,4.28826 2.69809,4.28346 2.69706,4.2785 2.69604,4.27341 2.69501,4.26819 2.69399,4.26284 2.69297,4.25737 2.69195,4.2518 2.69094,4.24611 2.68993,4.24034 2.68892,4.23448 2.68792,4.22853 2.68692,4.22252 2.68592,4.21643 2.68493,4.21029 2.68394,4.2041 2.68295,4.19787 2.68198,4.19159 2.681,4.1853 2.68003,4.17897 2.67907,4.17264 2.67811,4.1663 2.67716,4.15995 2.67622,4.15362 "/>
     <polygon id="_465903120" class="filw1" points="2.70735,4.32054 6.49362,8.10681 6.49517,8.11147 6.49686,8.11603 6.49867,8.12048 6.5006,8.12481 6.50266,8.12903 6.50483,8.13313 6.50711,8.1371 6.5095,8.14095 6.51201,8.14466 6.51461,8.14824 6.51731,8.15167 6.52011,8.15496 6.52301,8.15811 6.526,8.1611 6.52907,8.16393 2.7428,4.37766 2.73973,4.37483 2.73674,4.37183 2.73385,4.36869 2.73105,4.3654 2.72834,4.36196 2.72574,4.35839 2.72324,4.35468 2.72084,4.35083 2.71856,4.34686 2.71639,4.34276 2.71433,4.33854 2.7124,4.3342 2.71059,4.32976 2.70891,4.3252 "/>
     <polygon id="_465902544" class="filw1" points="1.91012,2.00767 5.69639,5.79394 5.69115,5.78894 5.68567,5.78398 5.67995,5.77908 5.67399,5.77423 5.66777,5.76943 5.66129,5.76468 5.65454,5.75999 5.64752,5.75536 5.64021,5.7508 5.63262,5.74629 5.62473,5.74185 5.61654,5.73747 5.60804,5.73317 5.59922,5.72894 5.59008,5.72478 1.80381,1.9385 1.81295,1.94267 1.82177,1.9469 1.83027,1.9512 1.83846,1.95557 1.84635,1.96002 1.85394,1.96452 1.86125,1.96909 1.86827,1.97372 1.87502,1.97841 1.8815,1.98315 1.88772,1.98796 1.89369,1.99281 1.8994,1.99771 1.90488,2.00267 "/>
     <polygon id="_465902808" class="filw1" points="1.80381,1.9385 5.59008,5.72478 5.58432,5.72229 5.57846,5.71989 5.5725,5.71759 5.56647,5.71538 5.56037,5.71328 5.55421,5.7113 5.548,5.70943 5.54174,5.70768 5.53546,5.70607 5.52916,5.70459 5.52285,5.70326 5.51654,5.70207 5.51025,5.70105 5.50397,5.70018 5.49773,5.69948 5.49152,5.69896 1.70526,1.91269 1.71146,1.91321 1.7177,1.91391 1.72398,1.91478 1.73028,1.9158 1.73659,1.91699 1.74289,1.91832 1.7492,1.9198 1.75548,1.92141 1.76173,1.92315 1.76794,1.92502 1.7741,1.92701 1.7802,1.92911 1.78624,1.93131 1.79219,1.93362 1.79805,1.93602 "/>
     <polygon id="_465902592" class="filw1" points="2.11093,2.3554 5.89719,6.14167 5.88681,6.13652 5.87716,6.13108 5.86819,6.12536 5.85989,6.11937 5.8522,6.11312 5.8451,6.10663 2.05883,2.32035 2.06593,2.32685 2.07362,2.3331 2.08193,2.33909 2.09089,2.34481 2.10055,2.35025 "/>
     <polygon id="_465902904" class="filw1" points="2.00308,1.82653 5.78935,5.6128 5.79332,5.61691 5.79719,5.62104 5.80095,5.62519 5.8046,5.62937 5.80815,5.63357 5.8116,5.63779 5.81495,5.64203 5.8182,5.64629 5.82136,5.65057 5.82443,5.65487 5.8274,5.65918 5.83028,5.66351 5.83308,5.66785 5.83579,5.6722 5.83842,5.67657 2.05215,1.8903 2.04952,1.88593 2.04681,1.88158 2.04402,1.87724 2.04113,1.87291 2.03816,1.8686 2.03509,1.8643 2.03194,1.86002 2.02868,1.85576 2.02533,1.85152 2.02189,1.8473 2.01833,1.84309 2.01468,1.83892 2.01092,1.83476 2.00706,1.83063 "/>
     <polygon id="_465903384" class="filw1" points="2.05215,1.8903 5.83842,5.67657 5.8412,5.6813 5.84393,5.68597 5.8466,5.69059 5.84922,5.69517 5.85178,5.69969 5.85428,5.70416 5.85674,5.70858 5.85914,5.71296 5.8615,5.71729 5.8638,5.72157 5.86607,5.72581 5.86828,5.73 5.87046,5.73415 5.87259,5.73825 5.87469,5.74231 5.87674,5.74633 2.09047,1.96006 2.08842,1.95604 2.08632,1.95198 2.08419,1.94787 2.08202,1.94373 2.0798,1.93954 2.07754,1.9353 2.07523,1.93102 2.07287,1.92669 2.07047,1.92231 2.06801,1.91789 2.06551,1.91341 2.06295,1.90889 2.06033,1.90432 2.05767,1.8997 2.05494,1.89502 "/>
     <polygon id="_465903480" class="filw1" points="2.09047,1.96006 5.87674,5.74633 5.87901,5.75083 5.88124,5.75527 5.88342,5.75966 5.88556,5.764 5.88766,5.7683 5.88972,5.77254 5.89174,5.77674 5.89374,5.7809 5.89569,5.78501 5.89762,5.78907 5.89952,5.7931 5.90139,5.79709 5.90324,5.80103 5.90507,5.80494 5.90687,5.80881 5.90866,5.81264 2.12239,2.02637 2.1206,2.02254 2.1188,2.01867 2.11697,2.01476 2.11513,2.01081 2.11325,2.00683 2.11135,2.0028 2.10943,1.99874 2.10747,1.99463 2.10548,1.99047 2.10345,1.98627 2.10139,1.98202 2.09929,1.97773 2.09715,1.97339 2.09497,1.969 2.09274,1.96456 "/>
     <polygon id="_465903648" class="filw1" points="2.12239,2.02637 5.90866,5.81264 5.91147,5.81867 5.91423,5.82456 5.91695,5.83032 5.91964,5.83595 5.92231,5.84145 5.92498,5.84682 5.92765,5.85206 5.93033,5.85718 5.93304,5.86217 5.93579,5.86704 5.93859,5.87178 5.94145,5.87639 5.94438,5.88089 5.94739,5.88527 5.9505,5.88952 5.9537,5.89366 5.95703,5.89768 5.96048,5.90158 5.96407,5.90537 2.1778,2.11909 2.17421,2.11531 2.17076,2.11141 2.16744,2.10739 2.16423,2.10325 2.16112,2.099 2.15811,2.09462 2.15518,2.09012 2.15232,2.0855 2.14952,2.08076 2.14678,2.0759 2.14406,2.07091 2.14138,2.06579 2.13871,2.06055 2.13604,2.05518 2.13337,2.04968 2.13068,2.04405 2.12796,2.03829 2.1252,2.03239 "/>
     <polygon id="_465903744" class="filw1" points="5.14681,4.05912 8.93307,7.84539 6.46155,7.93357 2.67528,4.1473 "/>
     <polygon id="_465903888" class="filw1" points="2.79141,4.62961 6.57768,8.41588 6.571,8.41581 6.56436,8.41558 6.55774,8.41521 6.55117,8.41469 6.54463,8.41402 6.53812,8.41321 6.53166,8.41226 6.52523,8.41117 6.51885,8.40993 6.51251,8.40856 6.50621,8.40705 6.49996,8.40541 6.49375,8.40363 6.48759,8.40171 6.48148,8.39967 6.47541,8.3975 6.4694,8.3952 6.46344,8.39277 6.45754,8.39021 6.45169,8.38754 6.44589,8.38473 6.44015,8.38181 6.43447,8.37877 6.42885,8.37561 6.42329,8.37233 6.41779,8.36894 6.41235,8.36543 6.40698,8.36181 6.40168,8.35807 6.39644,8.35423 6.39127,8.35028 6.38617,8.34622 2.5999,4.55995 2.605,4.56401 2.61017,4.56796 2.61541,4.5718 2.62072,4.57554 2.62609,4.57915 2.63152,4.58267 2.63702,4.58606 2.64258,4.58933 2.6482,4.5925 2.65388,4.59554 2.65962,4.59846 2.66542,4.60126 2.67127,4.60394 2.67717,4.6065 2.68313,4.60893 2.68915,4.61123 2.69521,4.6134 2.70132,4.61544 2.70748,4.61735 2.71369,4.61913 2.71994,4.62078 2.72624,4.62229 2.73258,4.62366 2.73896,4.62489 2.74539,4.62599 2.75185,4.62694 2.75836,4.62775 2.7649,4.62842 2.77148,4.62894 2.77809,4.62931 2.78474,4.62954 "/>
     <polygon id="_465903672" class="filw1" points="2.5999,4.55995 6.38617,8.34622 6.38131,8.3422 6.37653,8.33809 6.37182,8.33388 2.58555,4.54761 2.59026,4.55181 2.59505,4.55593 "/>
     <polygon id="_465903624" class="filw1" points="3.24165,4.62961 7.02791,8.41588 6.57768,8.41588 2.79141,4.62961 "/>
     <polygon id="_465903264" class="filw1" points="5.24599,4.43139 9.03226,8.21767 9.03975,8.22591 9.04644,8.23485 9.05225,8.24442 9.05714,8.25457 9.06105,8.26524 9.06391,8.27637 9.06567,8.2879 9.06627,8.29977 5.28,4.5135 5.2794,4.50163 5.27764,4.49009 5.27478,4.47897 5.27087,4.4683 5.26598,4.45815 5.26017,4.44857 5.25348,4.43964 "/>
     <polygon id="_465903528" class="filw1" points="5.28,4.5135 9.06627,8.29977 9.06567,8.31164 9.06391,8.32317 9.06105,8.3343 9.05714,8.34496 9.05225,8.35511 9.04644,8.36469 9.03975,8.37363 9.03226,8.38187 9.02401,8.38937 9.01507,8.39605 9.0055,8.40187 8.99535,8.40676 8.98468,8.41066 8.97355,8.41352 8.96202,8.41528 8.95015,8.41588 5.16388,4.62961 5.17575,4.62901 5.18728,4.62725 5.19841,4.62439 5.20908,4.62048 5.21923,4.61559 5.2288,4.60978 5.23774,4.60309 5.24599,4.5956 5.25348,4.58735 5.26017,4.57842 5.26598,4.56884 5.27087,4.55869 5.27478,4.54802 5.27764,4.5369 5.2794,4.52537 "/>
     <polygon id="_465903360" class="filw1" points="5.16388,4.62961 8.95015,8.41588 8.45576,8.41588 4.6695,4.62961 "/>
     <polygon id="_465903696" class="filw1" points="4.45196,4.62961 8.23823,8.41588 7.24544,8.41588 3.45918,4.62961 "/>
     <polygon id="_465904248" class="filw1" points="4.6695,4.62961 8.45576,8.41588 8.35178,8.57134 4.56551,4.78507 "/>
     <polygon id="_465904056" class="filw1" points="4.57301,4.79223 8.35928,8.5785 8.36289,8.58222 8.3664,8.58604 8.36982,8.58993 8.37314,8.59392 8.37635,8.598 8.37947,8.60215 8.38248,8.60639 8.38539,8.6107 8.38818,8.6151 8.39087,8.61957 8.39344,8.62411 8.3959,8.62872 8.39824,8.63341 8.40046,8.63816 8.40257,8.64298 8.40456,8.64786 8.40641,8.65281 8.40815,8.65781 8.40975,8.66287 8.41123,8.66799 8.41257,8.67316 8.41378,8.67839 8.41486,8.68367 8.4158,8.68899 8.4166,8.69436 8.41726,8.69978 8.41777,8.70524 8.41814,8.71074 8.41837,8.71628 8.41844,8.72185 8.41818,8.73231 8.41739,8.74263 8.4161,8.7528 8.41431,8.76281 8.41204,8.77264 8.4093,8.78229 8.40611,8.79173 8.40247,8.80096 8.3984,8.80996 8.39391,8.81873 8.38902,8.82724 8.38373,8.83548 8.37807,8.84345 8.37203,8.85113 8.36565,8.8585 8.35892,8.86556 8.35186,8.87229 8.34448,8.87868 8.33681,8.88471 8.32884,8.89038 8.32059,8.89567 8.31208,8.90056 8.30332,8.90505 8.29431,8.90911 8.28509,8.91276 8.27564,8.91595 8.266,8.91869 8.25617,8.92096 8.24616,8.92274 8.23598,8.92404 8.22567,8.92482 8.2152,8.92509 8.20475,8.92482 8.19443,8.92404 8.18425,8.92274 8.17424,8.92096 8.16441,8.91869 8.15477,8.91595 8.14533,8.91276 8.13609,8.90911 8.12709,8.90505 8.11833,8.90056 8.10982,8.89567 8.10157,8.89038 8.0936,8.88471 8.08593,8.87868 8.07855,8.87229 8.07149,8.86556 4.28522,5.07929 4.29228,5.08602 4.29966,5.09241 4.30733,5.09844 4.3153,5.10411 4.32355,5.10939 4.33206,5.11429 4.34083,5.11878 4.34983,5.12284 4.35906,5.12648 4.3685,5.12968 4.37815,5.13242 4.38798,5.13469 4.39798,5.13647 4.40816,5.13776 4.41848,5.13855 4.42894,5.13881 4.4394,5.13855 4.44972,5.13776 4.45989,5.13647 4.4699,5.13469 4.47973,5.13242 4.48937,5.12968 4.49882,5.12648 4.50805,5.12284 4.51705,5.11878 4.52581,5.11429 4.53432,5.10939 4.54257,5.10411 4.55054,5.09844 4.55822,5.09241 4.56559,5.08602 4.57265,5.07929 4.57938,5.07223 4.58576,5.06486 4.5918,5.05718 4.59746,5.04921 4.60275,5.04096 4.60765,5.03246 4.61213,5.02369 4.6162,5.01469 4.61984,5.00546 4.62304,4.99602 4.62578,4.98637 4.62804,4.97654 4.62983,4.96653 4.63112,4.95636 4.63191,4.94604 4.63217,4.93558 4.6321,4.93 4.63187,4.92446 4.6315,4.91896 4.63099,4.9135 4.63033,4.90809 4.62953,4.90272 4.62859,4.89739 4.62752,4.89212 4.6263,4.88689 4.62496,4.88172 4.62348,4.8766 4.62188,4.87154 4.62015,4.86654 4.61829,4.86159 4.6163,4.85671 4.6142,4.85189 4.61197,4.84714 4.60963,4.84245 4.60717,4.83784 4.6046,4.8333 4.60191,4.82883 4.59912,4.82443 4.59621,4.82012 4.5932,4.81588 4.59009,4.81172 4.58687,4.80765 4.58355,4.80366 4.58013,4.79976 4.57662,4.79595 "/>
     <polygon id="_465904368" class="filw1" points="3.45918,4.62961 7.24544,8.41588 7.14146,8.57134 3.35519,4.78507 "/>
     <polygon id="_465904272" class="filw1" points="3.35519,4.78507 7.14146,8.57134 7.14526,8.57488 7.14896,8.5785 7.15257,8.58222 7.15608,8.58604 7.1595,8.58994 7.16282,8.59393 7.16604,8.598 7.16915,8.60215 7.17216,8.60639 7.17507,8.61071 7.17786,8.6151 7.18055,8.61957 7.18312,8.62411 7.18558,8.62873 7.18792,8.63341 7.19015,8.63817 7.19225,8.64298 7.19424,8.64787 7.19609,8.65281 7.19783,8.65781 7.19943,8.66287 7.20091,8.66799 7.20225,8.67317 7.20346,8.67839 7.20454,8.68367 7.20548,8.68899 7.20628,8.69436 7.20694,8.69978 7.20745,8.70524 7.20782,8.71074 7.20805,8.71628 7.20812,8.72185 7.20786,8.73231 7.20707,8.74263 7.20578,8.7528 7.20399,8.76281 7.20172,8.77265 7.19898,8.78229 7.19579,8.79173 7.19215,8.80096 7.18808,8.80996 7.18359,8.81873 7.1787,8.82724 7.17341,8.83548 7.16775,8.84345 7.16171,8.85113 7.15533,8.8585 7.14859,8.86556 7.14154,8.87229 7.13416,8.87868 7.12648,8.88471 7.11852,8.89038 7.11027,8.89567 7.10176,8.90056 7.093,8.90505 7.084,8.90912 7.07476,8.91276 7.06532,8.91595 7.05568,8.91869 7.04585,8.92096 7.03584,8.92275 7.02567,8.92404 7.01534,8.92483 7.00489,8.92509 6.99443,8.92483 6.98411,8.92404 6.97393,8.92275 6.96393,8.92096 6.95409,8.91869 6.94445,8.91595 6.935,8.91276 6.92578,8.90912 6.91677,8.90505 6.90801,8.90056 6.8995,8.89567 6.89125,8.89038 6.88328,8.88471 6.87561,8.87868 6.86823,8.87229 3.08196,5.08602 3.08934,5.09241 3.09702,5.09844 3.10498,5.10411 3.11323,5.10939 3.12174,5.11429 3.1305,5.11878 3.13951,5.12285 3.14874,5.12649 3.15818,5.12968 3.16783,5.13242 3.17766,5.13469 3.18767,5.13648 3.19784,5.13777 3.20816,5.13856 3.21862,5.13882 3.22907,5.13856 3.2394,5.13777 3.24957,5.13648 3.25958,5.13469 3.26941,5.13242 3.27906,5.12968 3.2885,5.12649 3.29773,5.12285 3.30673,5.11878 3.31549,5.11429 3.324,5.10939 3.33225,5.10411 3.34022,5.09844 3.34789,5.09241 3.35527,5.08602 3.36233,5.07929 3.36906,5.07223 3.37544,5.06486 3.38148,5.05718 3.38715,5.04921 3.39243,5.04097 3.39732,5.03246 3.40181,5.02369 3.40588,5.01469 3.40952,5.00546 3.41272,4.99602 3.41546,4.98637 3.41772,4.97654 3.41951,4.96653 3.4208,4.95636 3.42159,4.94604 3.42185,4.93558 3.42178,4.93 3.42156,4.92446 3.42119,4.91896 3.42067,4.91351 3.42001,4.90809 3.41921,4.90272 3.41827,4.89739 3.4172,4.89212 3.41598,4.88689 3.41464,4.88172 3.41317,4.8766 3.41156,4.87154 3.40983,4.86654 3.40797,4.86159 3.40598,4.85671 3.40388,4.85189 3.40165,4.84714 3.39931,4.84246 3.39685,4.83784 3.39428,4.8333 3.39159,4.82883 3.3888,4.82444 3.38589,4.82012 3.38289,4.81588 3.37977,4.81173 3.37655,4.80765 3.37323,4.80367 3.36981,4.79977 3.3663,4.79595 3.36269,4.79223 3.35899,4.78861 "/>
     <polygon id="_465903960" class="filw1" points="5.24276,2.7962 9.02903,6.58248 9.03488,6.5905 9.04004,6.59898 9.04446,6.60789 9.04811,6.61717 9.05097,6.62677 9.05299,6.63664 9.05415,6.64674 9.05441,6.65702 5.26814,2.87075 5.26788,2.86047 5.26672,2.85037 5.2647,2.8405 5.26185,2.83089 5.25819,2.82162 5.25377,2.81271 5.24861,2.80422 "/>
    </g>
    <path id="_453123824" class="fil1" d="M5.26814 2.87075l0 1.07238c0,0.064126 -0.0519882,0.116114 -0.116114,0.116114 -0.00174803,0 -0.00349213,-4.72441e-005 -0.00522047,-0.000122047l-2.47153 0.0881811c0.0099685,0.0672795 0.0211024,0.138472 0.0320748,0.173232 0.00792913,0.0251378 0.0215591,0.0459685 0.0385984,0.0597992 0.0132244,0.0107323 0.0289409,0.0170472 0.0454606,0.0170472l2.37247 0c0.064126,0 0.116118,0.0519882 0.116118,0.116114 0,0.064126 -0.0519921,0.116114 -0.116118,0.116114l-0.494386 0 -0.103984 0.155457c0.0409488,0.0371811 0.0666614,0.0908425 0.0666614,0.150512 0,0.112248 -0.0909882,0.203236 -0.203236,0.203236 -0.112244,0 -0.20324,-0.0909882 -0.20324,-0.203236 0,-0.107307 0.0831693,-0.195193 0.188563,-0.202713l0.0377047 -0.103256 -0.992787 0 -0.103984 0.155461c0.0409488,0.0371811 0.0666614,0.0908425 0.0666614,0.150508 0,0.112248 -0.0909921,0.20324 -0.203236,0.20324 -0.112248,0 -0.203236,-0.0909921 -0.203236,-0.20324 0,-0.107307 0.0831614,-0.195193 0.188559,-0.202713l0.0377047 -0.103256 -0.450232 0c-0.0714055,0 -0.137472,-0.0258031 -0.191512,-0.0696614 -0.0521614,-0.0423307 -0.0923976,-0.101457 -0.11389,-0.169559 -0.017689,-0.0560551 -0.0318268,-0.152209 -0.0440433,-0.235323 -0.00599213,-0.0407717 -0.0115315,-0.0784331 -0.0147402,-0.0959528l-0.316303 -1.70371c-0.114685,-0.053378 -0.100091,-0.157858 -0.140941,-0.257614 -0.0239449,-0.0584685 -0.066937,-0.115311 -0.166173,-0.159283 -0.030437,-0.0134843 -0.0656024,-0.0234921 -0.0985551,-0.0258189 -0.0719488,-0.00507874 -0.174598,0.00205906 -0.156484,-0.125248 0.00901575,-0.063374 0.0677087,-0.107445 0.131083,-0.0984252 0.103559,0.0149291 0.179811,0.0407835 0.236961,0.072752 0.0663031,0.0370827 0.107728,0.0819094 0.135339,0.128535 0.0150118,0.0253465 0.0274685,0.0484331 0.038315,0.0697638 0.012252,0.0241024 0.0224409,0.0459606 0.0319213,0.0663031 0.0302992,0.0650039 0.0499213,0.107083 0.119709,0.131906 0.448886,0.0878858 0.90148,0.181661 1.38022,0.280846 0.458366,0.0949685 0.942091,0.195189 1.55194,0.315705l0.000287402 -6.69291e-005c0.0560591,0.0110787 0.0946575,0.0607874 0.0936024,0.115996z"/>
   </g>
  </g>
  <path class="filw2" d="M3.41333 -3.93701e-006c1.88513,0 3.41333,1.5282 3.41333,3.41333 0,1.88513 -1.5282,3.41333 -3.41333,3.41333 -1.88513,0 -3.41333,-1.5282 -3.41333,-3.41333 0,-1.88513 1.5282,-3.41333 3.41333,-3.41333z"/>
  <polygon class="filw3" points="3.30067,4.46799 3.56728,4.46799 3.18372,5.04142 3.094,5.03394 "/>
  <circle class="filw4" cx="3.21862" cy="4.93558" r="0.203238"/>
  <circle class="filw5" cx="3.21862" cy="4.93558" r="0.117172"/>
  <polygon class="filw3" points="4.51098,4.46799 4.7776,4.46799 4.39404,5.04142 4.30431,5.03394 "/>
  <circle class="filw4" cx="4.42894" cy="4.93558" r="0.203238"/>
  <circle class="filw5" cx="4.42894" cy="4.93558" r="0.117172"/>
  <path class="filw6" d="M1.67985 1.68901c-0.063374,-0.00901969 -0.122067,0.0350512 -0.131083,0.0984252 -0.0181142,0.127307 0.0845354,0.120169 0.156484,0.125248 0.0329528,0.00232677 0.0681181,0.0123346 0.0985551,0.0258189 0.26922,0.119295 0.124484,0.333307 0.308492,0.417531 0.0192008,0.0087874 0.0406417,0.0170787 0.0647559,0.0249252l-7.08661e-005 0.000208661 0.0190157 0.00447244 0.358638 1.53435c-0.063878,0.00225591 -0.113831,0.0558661 -0.111579,0.119744 0.00225591,0.063878 0.0558661,0.113831 0.119744,0.111579l2.584 -0.0921929c0.00172835,7.48031e-005 0.00347244,0.000122047 0.00522047,0.000122047 0.064126,0 0.116114,-0.0519882 0.116114,-0.116114l0 -1.07238c0.00105512,-0.0552087 -0.0375433,-0.104917 -0.0936024,-0.115996l-0.000287402 6.69291e-005c-0.609846,-0.120516 -1.09357,-0.220736 -1.55194,-0.315705 -0.478736,-0.099185 -0.931331,-0.192961 -1.38022,-0.280846 -0.0697874,-0.0248228 -0.0894094,-0.0669016 -0.119709,-0.131906 -0.0178701,-0.0383425 -0.0382638,-0.0820787 -0.0702362,-0.136067 -0.0276102,-0.046626 -0.0690354,-0.0914528 -0.135339,-0.128535 -0.0571496,-0.0319685 -0.133402,-0.0578228 -0.236961,-0.072752zm0.80211 0.912992c0.465795,0.0698661 0.861598,0.140945 1.2574,0.21202 0.389657,0.0699764 0.779323,0.139953 1.25383,0.211126l-0.00262205 0.116894c-0.465827,-0.069874 -0.875807,-0.143094 -1.27162,-0.214173 -0.389638,-0.0699685 -0.740772,-0.134138 -1.21526,-0.205311l-0.0217283 -0.120555zm0.0891693 0.494752c0.45872,0.0426535 0.843063,0.085378 1.21499,0.127106 0.377413,0.0423425 0.754831,0.0846929 1.2003,0.12611l-0.00311417 0.115909c-0.45872,-0.0426496 -0.837965,-0.0850866 -1.20989,-0.126815 -0.377417,-0.0423425 -0.735547,-0.0828898 -1.18102,-0.124311l-0.0212677 -0.118zm0.089378 0.49589c0.436563,0.013626 0.816307,0.0279882 1.17187,0.0414961 0.357654,0.0135906 0.714724,0.0271614 1.14624,0.0406299l-0.00259055 0.115685c-0.436567,-0.0136299 -0.79215,-0.0271417 -1.14772,-0.0406535 -0.35765,-0.0135827 -0.715307,-0.0271772 -1.1468,-0.0406457l-0.0209961 -0.116512z"/>
  <path class="filw6" d="M5.16388 4.62961c0.064126,0 0.116118,-0.0519882 0.116118,-0.116114 0,-0.064126 -0.0519921,-0.116114 -0.116118,-0.116114l-2.37247 0c-0.0165197,0 -0.0322362,-0.00631496 -0.0454606,-0.0170472 -0.0170394,-0.0138307 -0.0306693,-0.0346614 -0.0385984,-0.0597992 -0.0123898,-0.039252 -0.0249882,-0.124961 -0.035878,-0.199035 -0.00531496,-0.0361693 -0.0102244,-0.069563 -0.0165551,-0.104118 -0.0115236,-0.062874 -0.0718386,-0.104504 -0.134713,-0.0929803 -0.062874,0.0115236 -0.1045,0.0718386 -0.0929803,0.134713 0.00320866,0.0175197 0.00874803,0.0551811 0.0147402,0.0959528 0.0122165,0.0831142 0.0263543,0.179268 0.0440433,0.235323 0.0214921,0.0681024 0.0617283,0.127228 0.11389,0.169559 0.0540394,0.0438583 0.120106,0.0696614 0.191512,0.0696614l2.37247 0z"/>
  <path class="filw6" d="M2.32678 2.24989c-0.0115236,-0.062874 -0.0718386,-0.104504 -0.134713,-0.0929803 -0.062874,0.0115236 -0.104504,0.0718386 -0.0929803,0.134713l0.328142 1.76749c0.0115197,0.062874 0.0718346,0.104504 0.134709,0.0929803 0.062874,-0.0115236 0.104504,-0.0718386 0.0929803,-0.134713l-0.328138 -1.76749z"/>
  <path class="filw7" d="M1.96997 2.09781l0.1205 -0.137744c-0.0108465,-0.0213307 -0.0233031,-0.0444173 -0.038315,-0.0697638 -0.0276102,-0.046626 -0.0690354,-0.0914528 -0.135339,-0.128535 -0.0571496,-0.0319685 -0.133402,-0.0578228 -0.236961,-0.072752 -0.063374,-0.00901969 -0.122067,0.0350512 -0.131083,0.0984252 -0.0181142,0.127307 0.0845354,0.120169 0.156484,0.125248 0.0329528,0.00232677 0.0681181,0.0123346 0.0985551,0.0258189 0.099248,0.0439764 0.142213,0.100831 0.166157,0.159303z"/>
 </g>
</svg>
